<?xml version="1.0" encoding="utf-8"?>
<!-- Generator: Adobe Illustrator 27.5.0, SVG Export Plug-In . SVG Version: 6.00 Build 0)  -->
<svg version="1.1" xmlns="http://www.w3.org/2000/svg" xmlns:xlink="http://www.w3.org/1999/xlink" x="0px" y="0px"
	 viewBox="0 0 500 500" style="enable-background:new 0 0 500 500;" xml:space="preserve">
<g id="BACKGROUND">
	<g style="opacity:0.4;">
		<path style="opacity:0.6;fill:#FADFE8;" d="M436.713,297.273c-37.311,65.741-92.927,90.941-223.147,40.827
			c-170.673-65.682-115.357-177.232-48.928-174.42c142.009,6.012,142.894-117.46,241.614-84.502
			C494.66,108.695,467.646,242.77,436.713,297.273z"/>
		<path style="opacity:0.6;fill:#B0F2E5;" d="M111.418,198.744c52.169,5.533,123.138,32.597,137.799,113.733
			c23.523,130.176-81.232,125.664-128.975,113.371c-61.45-15.823-86.224-89.119-86.489-153.115
			C33.472,204.873,72.256,194.591,111.418,198.744z"/>
		<path style="opacity:0.6;fill:#B0ECFF;" d="M451.2,378.991c-29.649,43.907-86.39,83.181-169.945,69.651
			c-126.539-20.489-90.663-119.667-40.789-123.162c106.619-7.471,98.633-92.106,174.511-76.294
			C477.2,262.154,473.2,346.412,451.2,378.991z"/>
		<path style="opacity:0.6;fill:#ECDDFC;" d="M96.381,228.168c40.916,32.845,105.588,53.087,179.089,14.943
			c111.312-57.766,63.145-148.165-3.99-134.886C169.075,128.48,156.17,55.619,90.497,93.616
			C36.642,124.775,66.021,203.797,96.381,228.168z"/>
		<path style="opacity:0.6;fill:#B0ECFF;" d="M119.273,396.766c13.408-0.32,30.357,3.928,43.601,22.737
			c12.281,17.441-5.446,27.779-14.407,27.805c-19.912,0.059-41.114-6.418-47.043-23.763
			C95.98,407.62,109.324,397.004,119.273,396.766z"/>
		<path style="opacity:0.6;fill:#B0ECFF;" d="M214.382,90.974c6.477-13.49,18.994-27.681,43.183-29.243
			c22.43-1.449,23.087,22.484,18.584,31.384c-10.008,19.778-26.746,36.814-45.878,32.025
			C212.706,120.742,209.575,100.983,214.382,90.974z"/>
	</g>
</g>
<g id="OBJECTS">
	<g>
		<path style="opacity:0.5;fill:#E7E5F7;" d="M432.064,328.327H240.71c-3.039,0-5.324,3.704-5.108,8.195v0
			c0.213,4.408-1.999,7.923-4.938,7.923H205.45c-2.938,0-5.759-3.514-6.309-7.923l-1.23-9.856c-0.584-4.68-3.581-8.541-6.685-8.541
			H84.367c-16.04,0-13.83,13.355-12.099,18.345c1.549,4.467,7.593,7.974,15.526,7.974h12.967c2.938,0,6.447,3.462,7.815,7.664
			l2.884,8.861c1.292,3.969,4.585,7.137,7.375,7.137h183.768c2.79,0,5.401-3.167,5.838-7.137l0,0
			c0.445-4.041,3.148-7.369,6.029-7.369c0,0,26.864,0,35.918,0c4.445,3.113,18.625,5.208,31.798,11.148
			c16.42,7.404,25.121,17.637,34.133,15.723c3.883-0.825,20.437-6.629,23.096-12.632c1.63-3.681-10.1-7.437-9.228-10.166
			c0.783-2.449,1.215-4.072,1.215-4.072C447.538,353.6,456.363,328.327,432.064,328.327z"/>
		<g>
			<path style="fill:#FCFFFF;" d="M283.882,287.549h-166.67c-4.242,0-7.682-3.439-7.682-7.682v-21.186
				c0-4.242,3.439-7.682,7.682-7.682h166.67V287.549z"/>
			<path style="fill:#E6F0EB;" d="M270.373,259.89H122.862c-0.273,0-0.494-0.221-0.494-0.494s0.221-0.494,0.494-0.494h147.512
				c0.273,0,0.494,0.221,0.494,0.494S270.646,259.89,270.373,259.89z M270.867,265.982c0-0.273-0.221-0.494-0.494-0.494H122.862
				c-0.273,0-0.494,0.221-0.494,0.494c0,0.273,0.221,0.494,0.494,0.494h147.512C270.646,266.476,270.867,266.255,270.867,265.982z
				 M270.867,272.568c0-0.273-0.221-0.494-0.494-0.494H122.862c-0.273,0-0.494,0.221-0.494,0.494s0.221,0.494,0.494,0.494h147.512
				C270.646,273.061,270.867,272.841,270.867,272.568z M270.867,279.153c0-0.273-0.221-0.494-0.494-0.494H122.862
				c-0.273,0-0.494,0.221-0.494,0.494c0,0.273,0.221,0.494,0.494,0.494h147.512C270.646,279.647,270.867,279.426,270.867,279.153z"
				/>
			<path style="opacity:0.3;fill:#E6F0EB;" d="M118.659,287.549h96.898V251h-96.898c-5.042,0-9.129,4.087-9.129,9.129v18.291
				C109.53,283.462,113.618,287.549,118.659,287.549z"/>
			<g>
				<path style="fill:#E08E99;" d="M286.681,290.513H117.446c-5.998,0-10.879-4.88-10.879-10.879v-20.718
					c0-5.999,4.88-10.88,10.879-10.88h169.235v5.927H117.446c-2.73,0-4.952,2.222-4.952,4.953v20.718
					c0,2.73,2.222,4.952,4.952,4.952h169.235V290.513z"/>
			</g>
			<path style="opacity:0.2;fill:#E08E99;" d="M215.557,284.586h71.124v5.927h-71.124V284.586z M215.557,248.036v5.927h71.124
				v-5.927H215.557z"/>
		</g>
		<g>
			<path style="fill:#FCFFFF;" d="M246.232,245.487H102.818c-3.65,0-6.61-2.959-6.61-6.61v-18.23c0-3.65,2.959-6.61,6.61-6.61
				h143.414V245.487z"/>
			<path style="fill:#E6F0EB;" d="M234.608,221.687H107.679c-0.235,0-0.425-0.19-0.425-0.425c0-0.235,0.19-0.425,0.425-0.425
				h126.928c0.235,0,0.425,0.19,0.425,0.425C235.033,221.497,234.843,221.687,234.608,221.687z M235.033,226.929
				c0-0.235-0.19-0.425-0.425-0.425H107.679c-0.235,0-0.425,0.19-0.425,0.425c0,0.235,0.19,0.425,0.425,0.425h126.928
				C234.843,227.354,235.033,227.163,235.033,226.929z M235.033,232.596c0-0.235-0.19-0.425-0.425-0.425H107.679
				c-0.235,0-0.425,0.19-0.425,0.425c0,0.235,0.19,0.425,0.425,0.425h126.928C234.843,233.02,235.033,232.83,235.033,232.596z
				 M235.033,238.262c0-0.235-0.19-0.425-0.425-0.425H107.679c-0.235,0-0.425,0.19-0.425,0.425c0,0.235,0.19,0.425,0.425,0.425
				h126.928C234.843,238.687,235.033,238.497,235.033,238.262z"/>
			<rect x="145.049" y="214.037" style="opacity:0.3;fill:#E6F0EB;" width="101.183" height="31.449"/>
			<polygon style="fill:#FFD13B;" points="124.683,235.893 119.866,231.182 115.05,235.893 115.05,221.687 124.683,221.687 			"/>
			<g>
				<path style="fill:#FFCC31;" d="M248.64,248.036H103.019c-5.161,0-9.361-4.199-9.361-9.361v-17.827
					c0-5.162,4.199-9.361,9.361-9.361H248.64v5.1H103.019c-2.349,0-4.261,1.912-4.261,4.262v17.827c0,2.349,1.912,4.261,4.261,4.261
					H248.64V248.036z"/>
			</g>
			<g style="opacity:0.2;">
				<rect x="145.049" y="242.936" style="fill:#FFCC31;" width="103.591" height="5.1"/>
				<rect x="145.049" y="211.487" style="fill:#FFCC31;" width="103.591" height="5.1"/>
			</g>
		</g>
		<g>
			<path style="fill:#FCFFFF;" d="M284.012,333.148H104.667c-10.856,0-19.657-8.8-19.657-19.656v0
				c0-10.856,8.8-19.656,19.657-19.656h179.346V333.148z"/>
			<rect x="177.498" y="293.004" style="opacity:0.3;fill:#E6F0EB;" width="106.514" height="40.974"/>
			<path style="fill:#E6F0EB;" d="M270.788,304.115c0-0.389-0.248-0.703-0.554-0.703H104.865c-0.306,0-0.554,0.315-0.554,0.703
				s0.248,0.703,0.554,0.703h165.369C270.54,304.818,270.788,304.504,270.788,304.115z M270.788,313.491
				c0-0.389-0.248-0.703-0.554-0.703H104.865c-0.306,0-0.554,0.314-0.554,0.703c0,0.389,0.248,0.703,0.554,0.703h165.369
				C270.54,314.194,270.788,313.88,270.788,313.491z M270.788,322.868c0-0.389-0.248-0.703-0.554-0.703H104.865
				c-0.306,0-0.554,0.315-0.554,0.703c0,0.389,0.248,0.703,0.554,0.703h165.369C270.54,323.571,270.788,323.256,270.788,322.868z"/>
			<polygon style="fill:#93DAED;" points="132.542,326.637 124.105,318.386 115.667,326.637 115.667,301.752 132.542,301.752 			"/>
			<g>
				<path style="fill:#42AAA4;" d="M289.162,336.47H102.839c-12.67,0-22.979-10.309-22.979-22.979
					c0-12.67,10.309-22.979,22.979-22.979h186.322v6.645H102.839c-9.006,0-16.334,7.328-16.334,16.334
					c0,9.006,7.328,16.334,16.334,16.334h186.322V336.47z"/>
			</g>
			<g style="opacity:0.2;">
				<rect x="177.498" y="329.826" style="fill:#42AAA4;" width="111.664" height="6.644"/>
				<rect x="177.498" y="290.513" style="fill:#42AAA4;" width="111.664" height="6.644"/>
			</g>
		</g>
		<g>
			<path style="fill:#FCFFFF;" d="M398.057,262.792H265.088c-8.635,0-15.636-7-15.636-15.636l0,0c0-8.635,7-15.636,15.636-15.636
				h132.969V262.792z"/>
			<rect x="323.021" y="230.86" style="opacity:0.3;fill:#E6F0EB;" width="75.036" height="32.592"/>
			<path style="fill:#E6F0EB;" d="M387.538,239.698c0-0.309-0.197-0.559-0.44-0.559H265.246c-0.243,0-0.44,0.25-0.44,0.559
				c0,0.309,0.197,0.559,0.44,0.559h121.851C387.341,240.257,387.538,240.007,387.538,239.698z M387.538,247.156
				c0-0.309-0.197-0.559-0.44-0.559H265.246c-0.243,0-0.44,0.25-0.44,0.559c0,0.309,0.197,0.559,0.44,0.559h121.851
				C387.341,247.715,387.538,247.465,387.538,247.156z M387.538,254.615c0-0.309-0.197-0.559-0.44-0.559H265.246
				c-0.243,0-0.44,0.25-0.44,0.559c0,0.309,0.197,0.559,0.44,0.559h121.851C387.341,255.174,387.538,254.924,387.538,254.615z"/>
			<polygon style="fill:#ABA3D7;" points="287.262,257.613 280.55,251.049 273.839,257.613 273.839,237.818 287.262,237.818 			"/>
			<g>
				<path style="fill:#ABA3D7;" d="M402.153,265.435H263.635c-10.079,0-18.278-8.2-18.278-18.278s8.2-18.278,18.278-18.278h138.518
					v5.285H263.635c-7.164,0-12.993,5.829-12.993,12.993c0,7.164,5.829,12.993,12.993,12.993h138.518V265.435z"/>
			</g>
			<g style="opacity:0.2;">
				<rect x="323.021" y="260.149" style="fill:#ABA3D7;" width="79.132" height="5.285"/>
				<rect x="323.021" y="228.878" style="fill:#ABA3D7;" width="79.132" height="5.285"/>
			</g>
		</g>
		<g>
			<path style="fill:#FCFFFF;" d="M253.781,298.89h175.582c3.592,0,6.504-2.912,6.504-6.504v-17.938
				c0-3.592-2.912-6.504-6.504-6.504H253.781V298.89z"/>
			<path style="fill:#E6F0EB;" d="M264.801,275.053c0-0.231,0.187-0.418,0.418-0.418h159.36c0.231,0,0.418,0.187,0.418,0.418
				c0,0.231-0.187,0.418-0.418,0.418h-159.36C264.988,275.471,264.801,275.284,264.801,275.053z M265.219,281.047h159.36
				c0.231,0,0.418-0.187,0.418-0.418c0-0.231-0.187-0.418-0.418-0.418h-159.36c-0.231,0-0.418,0.187-0.418,0.418
				C264.801,280.86,264.988,281.047,265.219,281.047z M265.219,286.623h159.36c0.231,0,0.418-0.187,0.418-0.418
				c0-0.231-0.187-0.418-0.418-0.418h-159.36c-0.231,0-0.418,0.187-0.418,0.418C264.801,286.436,264.988,286.623,265.219,286.623z
				 M265.219,292.199h159.36c0.231,0,0.418-0.187,0.418-0.418s-0.187-0.418-0.418-0.418h-159.36c-0.231,0-0.418,0.187-0.418,0.418
				S264.988,292.199,265.219,292.199z"/>
			
				<rect x="253.781" y="267.944" transform="matrix(-1 -1.224647e-16 1.224647e-16 -1 610.3436 566.8339)" style="opacity:0.3;fill:#E6F0EB;" width="102.782" height="30.946"/>
			<polygon style="fill:#FFAF31;" points="407.847,289.45 412.587,284.815 417.326,289.45 417.326,275.471 407.847,275.471 			"/>
			<g>
				<path style="fill:#FFAF31;" d="M251.411,301.399h177.754c5.079,0,9.211-4.132,9.211-9.211v-17.542
					c0-5.08-4.132-9.212-9.211-9.212H251.411v5.018h177.754c2.312,0,4.193,1.881,4.193,4.193v17.542
					c0,2.311-1.881,4.193-4.193,4.193H251.411V301.399z"/>
			</g>
			<g style="opacity:0.2;">
				<rect x="251.411" y="296.381" style="fill:#FFAF31;" width="136.397" height="5.018"/>
				<rect x="251.411" y="265.435" style="fill:#FFAF31;" width="136.397" height="5.018"/>
			</g>
		</g>
		<g>
			<g>
				<path style="fill:#FCFFFF;" d="M263.23,345.827h148.351c11.312,0,20.483-9.171,20.483-20.483l0,0
					c0-11.312-9.171-20.483-20.483-20.483H263.23V345.827z"/>
				
					<rect x="263.23" y="303.996" transform="matrix(-1 -1.224647e-16 1.224647e-16 -1 624.7571 650.6875)" style="opacity:0.3;fill:#E6F0EB;" width="98.298" height="42.696"/>
				<g>
					<path style="fill:#F788B6;" d="M257.864,349.288h155.621c13.203,0,23.945-10.742,23.945-23.945
						c0-13.203-10.742-23.945-23.945-23.945H257.864v6.924h85.681c9.385,0,17.021,7.636,17.021,17.021
						c0,9.385-7.636,17.021-17.021,17.021h-85.681V349.288z"/>
				</g>
				<path style="opacity:0.2;fill:#F788B6;" d="M368.257,325.344c0-13.203-10.742-23.945-23.945-23.945h-86.448v6.924h85.681
					c9.385,0,17.021,7.636,17.021,17.021c0,9.385-7.636,17.021-17.021,17.021h-85.681v6.924h86.448
					C357.515,349.288,368.257,338.547,368.257,325.344z"/>
			</g>
			<path style="fill:#E6F0EB;" d="M342.721,316.633H283.4c-0.39,0-0.706-0.316-0.706-0.706c0-0.39,0.316-0.706,0.706-0.706h59.321
				c0.39,0,0.706,0.316,0.706,0.706C343.427,316.317,343.111,316.633,342.721,316.633z M343.427,325.344
				c0-0.39-0.316-0.706-0.706-0.706H283.4c-0.39,0-0.706,0.316-0.706,0.706c0,0.39,0.316,0.706,0.706,0.706h59.321
				C343.111,326.05,343.427,325.734,343.427,325.344z M343.427,334.761c0-0.39-0.316-0.706-0.706-0.706H283.4
				c-0.39,0-0.706,0.316-0.706,0.706c0,0.39,0.316,0.706,0.706,0.706h59.321C343.111,335.467,343.427,335.151,343.427,334.761z"/>
		</g>
		<g>
			<path style="fill:#FCFFFF;" d="M122.358,209.044h123.708c7.488,0,13.559-6.07,13.559-13.559l0,0
				c0-7.488-6.07-13.559-13.559-13.559H122.358V209.044z"/>
			<path style="opacity:0.3;fill:#E6F0EB;" d="M245.493,209.617h-49.664v-28.262h49.664c7.804,0,14.131,6.327,14.131,14.131l0,0
				C259.624,203.29,253.297,209.617,245.493,209.617z"/>
			<path style="fill:#E6F0EB;" d="M131.862,189.503h114.067c0.211,0,0.382-0.217,0.382-0.485c0-0.268-0.171-0.485-0.382-0.485
				H131.862c-0.211,0-0.382,0.217-0.382,0.485C131.48,189.287,131.65,189.503,131.862,189.503z M131.862,195.971h114.067
				c0.211,0,0.382-0.217,0.382-0.485c0-0.268-0.171-0.485-0.382-0.485H131.862c-0.211,0-0.382,0.217-0.382,0.485
				C131.48,195.754,131.65,195.971,131.862,195.971z M131.862,202.439h114.067c0.211,0,0.382-0.217,0.382-0.485
				c0-0.268-0.171-0.485-0.382-0.485H131.862c-0.211,0-0.382,0.217-0.382,0.485C131.48,202.222,131.65,202.439,131.862,202.439z"/>
			<g>
				<path style="fill:#42AAA4;" d="M118.806,211.336h128.52c8.74,0,15.85-7.111,15.85-15.85c0-8.74-7.111-15.85-15.85-15.85h-128.52
					v4.583h128.52c6.212,0,11.267,5.055,11.267,11.267c0,6.212-5.055,11.267-11.267,11.267h-128.52V211.336z"/>
			</g>
			<g style="opacity:0.2;">
				<rect x="118.806" y="206.753" style="fill:#42AAA4;" width="77.023" height="4.583"/>
				<rect x="118.806" y="179.636" style="fill:#42AAA4;" width="77.023" height="4.583"/>
			</g>
		</g>
		<g>
			<g>
				<path style="fill:#6669A1;" d="M217.352,353.209h-75.542v-107.13c21.318-6.89,54.943-5.286,75.542-3.078V353.209z"/>
				<g>
					<path style="fill:#CAE3E8;" d="M217.352,351.225c0-1.279-38.744-4.226-72.115,0c0,0,0-98.526,0-103.354l5.47-2.08
						c14.643-1.668,28.326-1.714,43.037-1.197c7.157,0.252,14.708,0.043,21.783,1.273c0.204,0.035,1.826,0.14,1.826,0.492
						c0,30.209,0.001,60.417,0,90.626C217.352,341.732,217.352,346.478,217.352,351.225z"/>
				</g>
				<g>
					<path style="fill:#FCFFFF;" d="M217.352,343.116c-14.896-1.696-29.92-2.257-44.901-1.666c-1.768,0.07-21.745,1-21.745,1.666
						c0-29.922,0-59.845,0-89.767c0-2.572,0-4.985,0-7.558c14.482-1.266,26.859-2.011,33.195-2.011
						c10.508,0,24.15,0.301,33.291,1.678c0.074,0.011,0.158,0.083,0.158,0.174c0,30.046,0.002,60.092,0,90.138
						C217.352,338.218,217.352,340.667,217.352,343.116z"/>
				</g>
				<g>
					<path style="opacity:0.2;fill:#CAE3E8;" d="M217.352,343.116c-14.896-1.696-29.92-2.257-44.901-1.666
						c-1.768,0.07-21.745,1-21.745,1.666c16.486-15.721,34.465-6.394,51.077-12.949c13.523-5.336,7.612-76.807,15.41-84.709
						c0.053-0.053,0.158,0.083,0.158,0.174c0,30.046,0.002,60.092,0,90.138C217.352,338.218,217.352,340.667,217.352,343.116z"/>
				</g>
			</g>
			<g>
				<path style="fill:#6669A1;" d="M217.352,353.209h75.542v-107.13c-21.318-6.89-54.943-5.286-75.542-3.078V353.209z"/>
				<g>
					<path style="fill:#CAE3E8;" d="M217.352,351.225c0-1.279,38.744-4.226,72.116,0c0,0,0-98.526,0-103.354l-5.47-2.08
						c-14.643-1.668-28.326-1.714-43.037-1.197c-7.158,0.252-14.708,0.043-21.783,1.273c-0.204,0.035-1.826,0.14-1.826,0.492
						c0,30.209-0.001,60.417,0,90.626C217.352,341.732,217.352,346.478,217.352,351.225z"/>
				</g>
				<g>
					<path style="fill:#FCFFFF;" d="M217.352,343.116c14.896-1.696,29.92-2.257,44.901-1.666c1.768,0.07,21.745,1,21.745,1.666
						c0-29.922,0-59.845,0-89.767c0-2.572,0-4.985,0-7.558c-14.482-1.266-26.859-2.011-33.195-2.011
						c-10.508,0-24.15,0.301-33.291,1.678c-0.074,0.011-0.159,0.083-0.159,0.174c0,30.046-0.002,60.092,0,90.138
						C217.352,338.218,217.352,340.667,217.352,343.116z"/>
				</g>
			</g>
			<g>
				<g>
					<path style="fill:#D9EDF1;" d="M158.829,260.813c-0.277,0-0.514-0.211-0.541-0.493c-0.028-0.298,0.191-0.564,0.491-0.592
						c0.118-0.011,11.958-1.126,26.153-1.591c13.185-0.432,26.059,0.74,26.188,0.752c0.299,0.028,0.519,0.293,0.492,0.591
						c-0.029,0.299-0.305,0.514-0.592,0.492c-0.128-0.013-12.942-1.179-26.052-0.748c-14.16,0.463-25.97,1.575-26.088,1.587
						C158.864,260.812,158.847,260.813,158.829,260.813z"/>
				</g>
				<g>
					<path style="fill:#D9EDF1;" d="M158.829,268.519c-0.277,0-0.514-0.211-0.541-0.493c-0.028-0.298,0.191-0.564,0.491-0.593
						c0.118-0.011,11.958-1.126,26.153-1.591c13.185-0.432,26.059,0.74,26.188,0.752c0.299,0.028,0.519,0.293,0.492,0.591
						c-0.029,0.299-0.305,0.514-0.592,0.492c-0.128-0.013-12.942-1.179-26.052-0.748c-14.16,0.463-25.97,1.575-26.088,1.587
						C158.864,268.518,158.847,268.519,158.829,268.519z"/>
				</g>
				<g>
					<path style="fill:#D9EDF1;" d="M158.829,276.225c-0.277,0-0.514-0.211-0.541-0.493c-0.028-0.298,0.191-0.564,0.491-0.592
						c0.118-0.011,11.958-1.126,26.153-1.591c13.185-0.432,26.059,0.74,26.188,0.752c0.299,0.028,0.519,0.293,0.492,0.591
						c-0.029,0.299-0.305,0.514-0.592,0.492c-0.128-0.013-12.942-1.179-26.052-0.748c-14.16,0.463-25.97,1.575-26.088,1.586
						C158.864,276.224,158.847,276.225,158.829,276.225z"/>
				</g>
				<g>
					<path style="fill:#D9EDF1;" d="M158.829,283.931c-0.277,0-0.514-0.211-0.541-0.493c-0.028-0.298,0.191-0.564,0.491-0.593
						c0.118-0.011,11.958-1.126,26.153-1.591c13.185-0.432,26.059,0.74,26.188,0.752c0.299,0.028,0.519,0.293,0.492,0.592
						c-0.029,0.299-0.305,0.514-0.592,0.492c-0.128-0.013-12.942-1.179-26.052-0.748c-14.16,0.463-25.97,1.575-26.088,1.587
						C158.864,283.93,158.847,283.931,158.829,283.931z"/>
				</g>
				<g>
					<path style="fill:#D9EDF1;" d="M158.829,291.637c-0.277,0-0.514-0.211-0.541-0.493c-0.028-0.298,0.191-0.564,0.491-0.593
						c0.118-0.011,11.958-1.126,26.153-1.591c13.185-0.432,26.059,0.74,26.188,0.752c0.299,0.028,0.519,0.293,0.492,0.591
						c-0.029,0.299-0.305,0.514-0.592,0.492c-0.128-0.013-12.942-1.179-26.052-0.748c-14.16,0.463-25.97,1.575-26.088,1.587
						C158.864,291.636,158.847,291.637,158.829,291.637z"/>
				</g>
				<g>
					<path style="fill:#D9EDF1;" d="M158.829,299.343c-0.277,0-0.514-0.211-0.541-0.493c-0.028-0.298,0.191-0.564,0.491-0.593
						c0.118-0.011,11.958-1.126,26.153-1.591c13.185-0.432,26.059,0.74,26.188,0.752c0.299,0.028,0.519,0.293,0.492,0.592
						c-0.029,0.299-0.305,0.514-0.592,0.492c-0.128-0.013-12.942-1.179-26.052-0.748c-14.16,0.463-25.97,1.575-26.088,1.587
						C158.864,299.342,158.847,299.343,158.829,299.343z"/>
				</g>
				<g>
					<path style="fill:#D9EDF1;" d="M158.829,307.049c-0.277,0-0.514-0.211-0.541-0.493c-0.028-0.298,0.191-0.564,0.491-0.593
						c0.118-0.011,11.958-1.126,26.153-1.591c13.185-0.432,26.059,0.74,26.188,0.752c0.299,0.028,0.519,0.293,0.492,0.592
						c-0.029,0.299-0.305,0.514-0.592,0.492c-0.128-0.013-12.942-1.179-26.052-0.748c-14.16,0.463-25.97,1.575-26.088,1.587
						C158.864,307.048,158.847,307.049,158.829,307.049z"/>
				</g>
				<g>
					<path style="fill:#D9EDF1;" d="M158.829,314.755c-0.277,0-0.514-0.211-0.541-0.493c-0.028-0.298,0.191-0.564,0.491-0.592
						c0.118-0.011,11.958-1.126,26.153-1.591c13.185-0.432,26.059,0.74,26.188,0.752c0.299,0.028,0.519,0.293,0.492,0.592
						c-0.029,0.299-0.305,0.514-0.592,0.492c-0.128-0.013-12.942-1.179-26.052-0.748c-14.16,0.463-25.97,1.575-26.088,1.587
						C158.864,314.754,158.847,314.755,158.829,314.755z"/>
				</g>
				<g>
					<path style="fill:#D9EDF1;" d="M158.829,322.461c-0.277,0-0.514-0.211-0.541-0.493c-0.028-0.298,0.191-0.564,0.491-0.593
						c0.118-0.011,11.958-1.126,26.153-1.591c13.185-0.432,26.059,0.74,26.188,0.752c0.299,0.028,0.519,0.293,0.492,0.592
						c-0.029,0.299-0.305,0.514-0.592,0.492c-0.128-0.013-12.942-1.179-26.052-0.748c-14.16,0.463-25.97,1.575-26.088,1.587
						C158.864,322.46,158.847,322.461,158.829,322.461z"/>
				</g>
				<g>
					<path style="fill:#D9EDF1;" d="M158.829,330.167c-0.277,0-0.514-0.211-0.541-0.493c-0.028-0.298,0.191-0.564,0.491-0.592
						c0.118-0.011,11.958-1.126,26.153-1.591c13.185-0.432,26.059,0.74,26.188,0.752c0.299,0.028,0.519,0.293,0.492,0.592
						c-0.029,0.299-0.305,0.514-0.592,0.492c-0.128-0.013-12.942-1.179-26.052-0.748c-14.16,0.463-25.97,1.575-26.088,1.587
						C158.864,330.165,158.847,330.167,158.829,330.167z"/>
				</g>
			</g>
			<g>
				<g>
					<path style="fill:#D9EDF1;" d="M276.796,260.813c0.277,0,0.514-0.211,0.541-0.493c0.028-0.298-0.191-0.564-0.491-0.592
						c-0.118-0.011-11.959-1.126-26.154-1.591c-13.185-0.432-26.059,0.74-26.188,0.752c-0.299,0.028-0.519,0.293-0.492,0.591
						c0.029,0.299,0.305,0.514,0.591,0.492c0.129-0.013,12.942-1.179,26.052-0.748c14.16,0.463,25.97,1.575,26.088,1.587
						C276.761,260.812,276.778,260.813,276.796,260.813z"/>
				</g>
				<g>
					<path style="fill:#D9EDF1;" d="M276.796,268.519c0.277,0,0.514-0.211,0.541-0.493c0.028-0.298-0.191-0.564-0.491-0.593
						c-0.118-0.011-11.959-1.126-26.154-1.591c-13.185-0.432-26.059,0.74-26.188,0.752c-0.299,0.028-0.519,0.293-0.492,0.591
						c0.029,0.299,0.305,0.514,0.591,0.492c0.129-0.013,12.942-1.179,26.052-0.748c14.16,0.463,25.97,1.575,26.088,1.587
						C276.761,268.518,276.778,268.519,276.796,268.519z"/>
				</g>
				<g>
					<path style="fill:#D9EDF1;" d="M276.796,276.225c0.277,0,0.514-0.211,0.541-0.493c0.028-0.298-0.191-0.564-0.491-0.592
						c-0.118-0.011-11.959-1.126-26.154-1.591c-13.185-0.432-26.059,0.74-26.188,0.752c-0.299,0.028-0.519,0.293-0.492,0.591
						c0.029,0.299,0.305,0.514,0.591,0.492c0.129-0.013,12.942-1.179,26.052-0.748c14.16,0.463,25.97,1.575,26.088,1.586
						C276.761,276.224,276.778,276.225,276.796,276.225z"/>
				</g>
				<g>
					<path style="fill:#D9EDF1;" d="M276.796,283.931c0.277,0,0.514-0.211,0.541-0.493c0.028-0.298-0.191-0.564-0.491-0.593
						c-0.118-0.011-11.959-1.126-26.154-1.591c-13.185-0.432-26.059,0.74-26.188,0.752c-0.299,0.028-0.519,0.293-0.492,0.592
						c0.029,0.299,0.305,0.514,0.591,0.492c0.129-0.013,12.942-1.179,26.052-0.748c14.16,0.463,25.97,1.575,26.088,1.587
						C276.761,283.93,276.778,283.931,276.796,283.931z"/>
				</g>
				<g>
					<path style="fill:#D9EDF1;" d="M276.796,291.637c0.277,0,0.514-0.211,0.541-0.493c0.028-0.298-0.191-0.564-0.491-0.593
						c-0.118-0.011-11.959-1.126-26.154-1.591c-13.185-0.432-26.059,0.74-26.188,0.752c-0.299,0.028-0.519,0.293-0.492,0.591
						c0.029,0.299,0.305,0.514,0.591,0.492c0.129-0.013,12.942-1.179,26.052-0.748c14.16,0.463,25.97,1.575,26.088,1.587
						C276.761,291.636,276.778,291.637,276.796,291.637z"/>
				</g>
				<g>
					<path style="fill:#D9EDF1;" d="M276.796,299.343c0.277,0,0.514-0.211,0.541-0.493c0.028-0.298-0.191-0.564-0.491-0.593
						c-0.118-0.011-11.959-1.126-26.154-1.591c-13.185-0.432-26.059,0.74-26.188,0.752c-0.299,0.028-0.519,0.293-0.492,0.592
						c0.029,0.299,0.305,0.514,0.591,0.492c0.129-0.013,12.942-1.179,26.052-0.748c14.16,0.463,25.97,1.575,26.088,1.587
						C276.761,299.342,276.778,299.343,276.796,299.343z"/>
				</g>
				<g>
					<path style="fill:#D9EDF1;" d="M276.796,307.049c0.277,0,0.514-0.211,0.541-0.493c0.028-0.298-0.191-0.564-0.491-0.593
						c-0.118-0.011-11.959-1.126-26.154-1.591c-13.185-0.432-26.059,0.74-26.188,0.752c-0.299,0.028-0.519,0.293-0.492,0.592
						c0.029,0.299,0.305,0.514,0.591,0.492c0.129-0.013,12.942-1.179,26.052-0.748c14.16,0.463,25.97,1.575,26.088,1.587
						C276.761,307.048,276.778,307.049,276.796,307.049z"/>
				</g>
				<g>
					<path style="fill:#D9EDF1;" d="M276.796,314.755c0.277,0,0.514-0.211,0.541-0.493c0.028-0.298-0.191-0.564-0.491-0.592
						c-0.118-0.011-11.959-1.126-26.154-1.591c-13.185-0.432-26.059,0.74-26.188,0.752c-0.299,0.028-0.519,0.293-0.492,0.592
						c0.029,0.299,0.305,0.514,0.591,0.492c0.129-0.013,12.942-1.179,26.052-0.748c14.16,0.463,25.97,1.575,26.088,1.587
						C276.761,314.754,276.778,314.755,276.796,314.755z"/>
				</g>
				<g>
					<path style="fill:#D9EDF1;" d="M276.796,322.461c0.277,0,0.514-0.211,0.541-0.493c0.028-0.298-0.191-0.564-0.491-0.593
						c-0.118-0.011-11.959-1.126-26.154-1.591c-13.185-0.432-26.059,0.74-26.188,0.752c-0.299,0.028-0.519,0.293-0.492,0.592
						c0.029,0.299,0.305,0.514,0.591,0.492c0.129-0.013,12.942-1.179,26.052-0.748c14.16,0.463,25.97,1.575,26.088,1.587
						C276.761,322.46,276.778,322.461,276.796,322.461z"/>
				</g>
				<g>
					<path style="fill:#D9EDF1;" d="M276.796,330.167c0.277,0,0.514-0.211,0.541-0.493c0.028-0.298-0.191-0.564-0.491-0.592
						c-0.118-0.011-11.959-1.126-26.154-1.591c-13.185-0.432-26.059,0.74-26.188,0.752c-0.299,0.028-0.519,0.293-0.492,0.592
						c0.029,0.299,0.305,0.514,0.591,0.492c0.129-0.013,12.942-1.179,26.052-0.748c14.16,0.463,25.97,1.575,26.088,1.587
						C276.761,330.165,276.778,330.167,276.796,330.167z"/>
				</g>
			</g>
		</g>
		<g>
			<path style="fill:#FF8E9E;" d="M343.792,165.672h-73.944c-4.324,0-7.83-3.506-7.83-7.83l0,0c0-4.324,3.506-7.83,7.83-7.83h73.944
				c4.324,0,7.83,3.506,7.83,7.83l0,0C351.622,162.167,348.116,165.672,343.792,165.672z"/>
			<rect x="268.747" y="165.672" style="fill:#EFF3EC;" width="76.146" height="63.206"/>
			<path style="fill:#FFFFFD;" d="M340.56,225.808c0,0-40.774,0-57.704,0c-5.825,0-9.924-8.158-9.924-13.473
				c0-13.326,0-46.663,0-46.663h67.628V225.808z"/>
			<g>
				<path style="fill:#FF6479;" d="M286.996,159.173L286.996,159.173c-2.716,0-4.918-2.202-4.918-4.918v-8.486
					c0-2.716,2.202-4.918,4.918-4.918l0,0c2.716,0,4.918,2.202,4.918,4.918v8.486C291.914,156.971,289.712,159.173,286.996,159.173z
					"/>
				<path style="fill:#FF6479;" d="M326.644,159.173L326.644,159.173c-2.716,0-4.918-2.202-4.918-4.918v-8.486
					c0-2.716,2.202-4.918,4.918-4.918l0,0c2.716,0,4.918,2.202,4.918,4.918v8.486C331.562,156.971,329.36,159.173,326.644,159.173z"
					/>
			</g>
			<path style="fill:#DCE9E7;" d="M272.932,212.335c0,6.266,3.432,13.473,9.147,13.473c-1.114-1.178-1.58-4.979-0.933-9.75
				C277.882,215.831,274.223,215.032,272.932,212.335z"/>
			<g>
				<rect x="280.575" y="176.43" style="fill:#EFF3EC;" width="5.268" height="3.464"/>
				<rect x="288.421" y="176.43" style="fill:#EFF3EC;" width="5.268" height="3.464"/>
				<rect x="296.266" y="176.43" style="fill:#EFF3EC;" width="5.268" height="3.464"/>
				<rect x="304.112" y="176.43" style="fill:#EFF3EC;" width="5.268" height="3.464"/>
				<rect x="311.958" y="176.43" style="fill:#EFF3EC;" width="5.268" height="3.464"/>
				<rect x="319.803" y="176.43" style="fill:#EFF3EC;" width="5.268" height="3.464"/>
				<rect x="327.649" y="176.43" style="fill:#FF8E9E;" width="5.268" height="3.464"/>
			</g>
			<g>
				<rect x="280.575" y="183.265" style="fill:#AEC5C5;" width="5.268" height="3.464"/>
				<rect x="288.421" y="183.265" style="fill:#AEC5C5;" width="5.268" height="3.464"/>
				<rect x="296.266" y="183.265" style="fill:#AEC5C5;" width="5.268" height="3.464"/>
				<rect x="304.112" y="183.265" style="fill:#AEC5C5;" width="5.268" height="3.464"/>
				<rect x="311.958" y="183.265" style="fill:#AEC5C5;" width="5.268" height="3.464"/>
				<rect x="319.803" y="183.265" style="fill:#AEC5C5;" width="5.268" height="3.464"/>
				<rect x="327.649" y="183.265" style="fill:#FF8E9E;" width="5.268" height="3.464"/>
			</g>
			<g>
				<rect x="280.575" y="190.099" style="fill:#AEC5C5;" width="5.268" height="3.464"/>
				<rect x="288.421" y="190.099" style="fill:#AEC5C5;" width="5.268" height="3.464"/>
				<rect x="296.266" y="190.099" style="fill:#AEC5C5;" width="5.268" height="3.464"/>
				<rect x="304.112" y="190.099" style="fill:#AEC5C5;" width="5.268" height="3.464"/>
				<rect x="311.958" y="190.099" style="fill:#AEC5C5;" width="5.268" height="3.464"/>
				<rect x="319.803" y="190.099" style="fill:#AEC5C5;" width="5.268" height="3.464"/>
				<rect x="327.649" y="190.099" style="fill:#FF8E9E;" width="5.268" height="3.464"/>
			</g>
			<g>
				<rect x="280.575" y="196.934" style="fill:#AEC5C5;" width="5.268" height="3.464"/>
				<rect x="288.421" y="196.934" style="fill:#AEC5C5;" width="5.268" height="3.464"/>
				<rect x="296.266" y="196.934" style="fill:#AEC5C5;" width="5.268" height="3.464"/>
				<rect x="304.112" y="196.934" style="fill:#AEC5C5;" width="5.268" height="3.464"/>
				<rect x="311.958" y="196.934" style="fill:#AEC5C5;" width="5.268" height="3.464"/>
				<rect x="319.803" y="196.934" style="fill:#AEC5C5;" width="5.268" height="3.464"/>
				<rect x="327.649" y="196.934" style="fill:#FF8E9E;" width="5.268" height="3.464"/>
			</g>
			<g>
				<rect x="280.575" y="203.768" style="fill:#AEC5C5;" width="5.268" height="3.464"/>
				<rect x="288.421" y="203.768" style="fill:#AEC5C5;" width="5.268" height="3.464"/>
				<rect x="296.266" y="203.768" style="fill:#AEC5C5;" width="5.268" height="3.464"/>
				<rect x="304.112" y="203.768" style="fill:#AEC5C5;" width="5.268" height="3.464"/>
				<rect x="311.958" y="203.768" style="fill:#AEC5C5;" width="5.268" height="3.464"/>
				<rect x="319.803" y="203.768" style="fill:#AEC5C5;" width="5.268" height="3.464"/>
				<rect x="327.649" y="203.768" style="fill:#FF8E9E;" width="5.268" height="3.464"/>
			</g>
			<g>
				<rect x="280.575" y="210.603" style="fill:#AEC5C5;" width="5.268" height="3.464"/>
				<rect x="288.421" y="210.603" style="fill:#AEC5C5;" width="5.268" height="3.464"/>
				<rect x="296.266" y="210.603" style="fill:#AEC5C5;" width="5.268" height="3.464"/>
				<rect x="304.112" y="210.603" style="fill:#AEC5C5;" width="5.268" height="3.464"/>
				<rect x="311.958" y="210.603" style="fill:#AEC5C5;" width="5.268" height="3.464"/>
			</g>
		</g>
		<g>
			
				<rect x="149.798" y="148.219" transform="matrix(-1 -1.224647e-16 1.224647e-16 -1 391.7396 327.8439)" style="fill:#466386;" width="92.144" height="31.406"/>
			
				<rect x="131.651" y="138.141" transform="matrix(-1 -1.224647e-16 1.224647e-16 -1 391.7396 286.3596)" style="fill:#466386;" width="128.437" height="10.078"/>
			
				<rect x="193.366" y="148.219" transform="matrix(-1 -1.224647e-16 1.224647e-16 -1 435.3073 327.8439)" style="opacity:0.2;fill:#466386;" width="48.576" height="31.406"/>
			
				<rect x="180.669" y="138.141" transform="matrix(-1 -1.224647e-16 1.224647e-16 -1 440.7572 286.3596)" style="opacity:0.2;fill:#466386;" width="79.419" height="10.078"/>
			<g>
				<g>
					<path style="fill:#466386;" d="M216.494,194.8c-1.14,0-2.064-0.924-2.064-2.064v-54.532h-24.943
						c-1.14,0-2.064-0.924-2.064-2.064s0.925-2.064,2.064-2.064h27.008c1.14,0,2.064,0.924,2.064,2.064v56.596
						C218.558,193.876,217.633,194.8,216.494,194.8z"/>
				</g>
				<g>
					<g>
						<path style="fill:#466386;" d="M211.82,213.072c-0.38,0-0.688-0.308-0.688-0.688v-15.826c0-0.38,0.308-0.688,0.688-0.688
							c0.38,0,0.688,0.308,0.688,0.688v15.826C212.509,212.764,212.201,213.072,211.82,213.072z"/>
					</g>
					<g>
						<path style="fill:#466386;" d="M213.655,213.072c-0.38,0-0.688-0.308-0.688-0.688v-15.826c0-0.38,0.308-0.688,0.688-0.688
							c0.38,0,0.688,0.308,0.688,0.688v15.826C214.343,212.764,214.036,213.072,213.655,213.072z"/>
					</g>
					<g>
						<path style="fill:#466386;" d="M215.49,213.072c-0.38,0-0.688-0.308-0.688-0.688v-15.826c0-0.38,0.308-0.688,0.688-0.688
							c0.38,0,0.688,0.308,0.688,0.688v15.826C216.178,212.764,215.871,213.072,215.49,213.072z"/>
					</g>
					<g>
						<path style="fill:#466386;" d="M217.325,213.072c-0.38,0-0.688-0.308-0.688-0.688v-15.826c0-0.38,0.308-0.688,0.688-0.688
							c0.38,0,0.688,0.308,0.688,0.688v15.826C218.013,212.764,217.706,213.072,217.325,213.072z"/>
					</g>
					<g>
						<path style="fill:#466386;" d="M219.16,213.072c-0.38,0-0.688-0.308-0.688-0.688v-15.826c0-0.38,0.308-0.688,0.688-0.688
							c0.38,0,0.688,0.308,0.688,0.688v15.826C219.848,212.764,219.541,213.072,219.16,213.072z"/>
					</g>
					<g>
						<path style="fill:#466386;" d="M220.995,213.072c-0.38,0-0.688-0.308-0.688-0.688v-15.826c0-0.38,0.308-0.688,0.688-0.688
							c0.38,0,0.688,0.308,0.688,0.688v15.826C221.683,212.764,221.375,213.072,220.995,213.072z"/>
					</g>
				</g>
				<rect x="211.132" y="191.569" style="fill:#466386;" width="10.551" height="6.766"/>
			</g>
		</g>
		<g>
			<path style="opacity:0.5;fill:#E7E5F7;" d="M287.061,359.124l-19.859-43.312c-0.706-1.538-2.43-2.269-4.005-1.789l-5.338-11.636
				c17.026-10.367,23.976-32.065,15.461-50.628c-9.178-20.007-32.836-28.785-52.843-19.607
				c-20.006,9.178-28.785,32.836-19.607,52.843c8.515,18.563,29.495,27.448,48.459,21.305l5.337,11.635
				c-1.395,0.879-1.969,2.666-1.262,4.206l19.859,43.312c0.769,1.677,2.753,2.413,4.43,1.644l7.724-3.543
				C287.094,362.784,287.83,360.801,287.061,359.124z"/>
			<g>
				
					<rect x="256.719" y="297.357" transform="matrix(0.9089 -0.417 0.417 0.9089 -106.2868 137.4138)" style="fill:#C1AAAF;" width="9.384" height="29.303"/>
				
					<ellipse transform="matrix(0.3539 -0.9353 0.9353 0.3539 -94.5283 398.3188)" style="opacity:0.5;fill:#C2ECFF;" cx="241.028" cy="267.577" rx="35.026" ry="35.026"/>
				<path style="opacity:0.5;fill:#C2ECFF;" d="M262.51,280.903c-17.582,8.066-38.374,0.351-46.44-17.231
					c-2.538-5.534-3.511-11.384-3.108-17.057c-7.408,9.937-9.301,23.506-3.769,35.566c8.066,17.582,28.858,25.297,46.44,17.231
					c12.049-5.527,19.461-17.031,20.339-29.383C272.58,274.58,268.032,278.37,262.51,280.903z"/>
				<path style="opacity:0.8;fill:#FFFFFF;" d="M226.173,254.176c13.895-6.374,30.299-0.382,36.849,13.376
					c0.241-3.513-0.367-7.135-1.938-10.562c-5.019-10.94-17.956-15.74-28.896-10.722c-4.897,2.246-8.558,6.081-10.665,10.611
					C222.958,255.851,224.508,254.94,226.173,254.176z"/>
				<path style="fill:#6A88CA;" d="M224.411,231.352c-20.006,9.178-28.785,32.836-19.607,52.843
					c9.178,20.007,32.836,28.785,52.843,19.607s28.785-32.836,19.607-52.843C268.076,230.952,244.417,222.174,224.411,231.352z
					 M253.745,295.296c-15.309,7.023-33.413,0.306-40.436-15.004c-7.023-15.309-0.306-33.413,15.004-40.436
					s33.413-0.306,40.436,15.003C275.771,270.169,269.054,288.273,253.745,295.296z"/>
				<path style="fill:#6A88CA;" d="M289.351,362.754l-7.724,3.543c-1.677,0.769-3.66,0.033-4.43-1.644l-19.859-43.312
					c-0.769-1.677-0.034-3.66,1.644-4.43l7.724-3.543c1.677-0.769,3.66-0.034,4.43,1.644l19.859,43.312
					C291.764,360.001,291.028,361.984,289.351,362.754z"/>
			</g>
		</g>
		<g>
			<path style="fill:#FFC618;" d="M380.78,148.567c0,0,8.334,0.339,11.521,9.427c3.187,9.088,0.244,13.499,13.626,17.715
				c11.111,3.501,7.447,24.87-17.635,21.67C350.901,192.61,347.845,156.317,380.78,148.567z"/>
			<path style="opacity:0.3;fill:#FFC618;" d="M380.78,148.567c0,0,9.841,1.099,9.297,10.954
				c-0.799,14.464-7.904,15.581-5.13,23.192c3.53,9.687,21.84,8.534,17.07,13.588c-3.547,1.277-8.097,1.796-13.725,1.078
				C350.901,192.61,347.845,156.317,380.78,148.567z"/>
			<path style="fill:#1B254B;" d="M432.663,247.163l-0.712,2.568c0,0,0.646,1.82,3.472,0.989c1.631-0.479,7.936-7.774,7.744-10.13
				C442.972,238.192,440.673,242.409,432.663,247.163z"/>
			<path style="fill:#8D4B86;" d="M380.464,209.255c0,0,33.154,2.387,35.617,6.056c2.342,3.489,18.046,30.951,18.046,30.951
				s0.61,3.017-2.175,3.469c0,0-11.077-10.075-21.491-24.985c-8.925-3.583-37.135,3.608-37.528-8.46
				C372.429,200.848,380.464,209.255,380.464,209.255z"/>
			<path style="opacity:0.3;fill:#8D4B86;" d="M417.254,217.19c-0.515-0.85-0.924-1.509-1.173-1.879
				c-2.463-3.669-35.617-6.056-35.617-6.056s-8.034-8.407-7.531,7.031c0.393,12.068,28.603,4.876,37.528,8.46
				c5.125,7.337,10.407,13.5,14.454,17.871c-0.129-0.351-0.245-0.708-0.371-1.059C419.534,234.527,416.733,225.554,417.254,217.19z"
				/>
			<path style="fill:#8D4B86;" d="M381.563,209.072c0,0,28.153,3.469,32.043,6.681c3.699,3.055,5.366,42.314,5.366,42.314
				s0,0-2.078,0.056c0,0-9.489-17.261-11.984-33.08c-4.008,0-7.311,1.293-19.424,3.307c-10.834,1.801-20.946,2.42-23.561-5.456
				C356.615,206.909,381.563,209.072,381.563,209.072z"/>
			<path style="fill:#FFBFC6;" d="M376.149,186.836c0,0,6.116,9.935,7.253,11.496c0.707,0.972,14.035,4.753,14.035,4.753
				l-1.343,2.673c0,0-12.983-1.57-15.134-2.58c-1.573-0.738-7.622-8.904-9.396-11.904
				C371.32,190.864,374.908,187.807,376.149,186.836z"/>
			<path style="opacity:0.4;fill:#FFBFC6;" d="M380.728,195.216c0.01-0.295,0.056-0.565,0.124-0.82
				c-2.121-3.367-4.703-7.561-4.703-7.561c-1.24,0.971-4.828,4.028-4.585,4.439c1.773,3,7.823,11.166,9.396,11.904
				c0.876,0.411,3.55,0.915,6.412,1.369C383.475,202.592,380.576,199.596,380.728,195.216z"/>
			<path style="fill:#F2D4BB;" d="M385.885,154.383c1.269,2.963-2.286,11.207-2.912,14.479c-0.127,0.664-1.443-0.208-1.847,0.1
				c-0.755,0.576-2.036,2.286-3.906,2.798c-0.97,0.265-2.371-1.135-2.371-1.135s-0.563,3.378-0.234,5.769
				c0.621,7.801,2.495,7.752,2.495,7.752l-8.548,3.048l-2.231-13.931c0,0-0.508-5.841-0.837-8.185
				c-0.666-4.756,1.595-13.592,6.175-16.521C376.789,145.282,383.386,148.547,385.885,154.383z"/>
			<path style="fill:#FFBFC6;" d="M374.615,176.394c0.941,1.243,3.731,8.475,5.079,11.672c1.69,4.007,1.337,5.639-0.554,8.231
				c-5.231,7.173,2.167,12.55,0.427,13.763c-0.999,0.697-1.658-0.007-8.005,3.975c-6.347,3.982-6.638,7.059-9.684,7.425
				c-1.051,0.126-1.29-10.718-2.001-18.522c-1.663-18.251,1.685-23.332,6.506-33.76
				C368.013,174.917,370.879,175.056,374.615,176.394z"/>
			<path style="fill:#1B254B;" d="M418.972,258.067l-2.5-0.802c0,0-0.765,3.864-0.638,4.551c0.415,2.235,7.275,6.514,8.589,6.62
				C427.632,268.693,425.674,268.568,418.972,258.067z"/>
			<path style="fill:#F2D4BB;" d="M374.849,170.625c0,0-0.57-0.438-1.98-3.04c-1.037-1.913-1.317-5.061-1.317-5.061
				s-0.267,3.205,0.369,5.73c0.25,0.993,2.606,5.73,2.606,5.73L374.849,170.625z"/>
			<path style="fill:#F2D4BB;" d="M396.889,202.876c0,0,5.668-0.64,6.916,0.153c0.591,0.376,1.799,0.911,2.115,2.227
				c0.149,0.622-1.704,0.031-2.096-0.256c-1.661-1.215-4.09-0.06-3.31,0.309c1.148,0.543,0.721,1.196,0.292,1.138
				c-1.7-0.228-4.69-0.732-4.69-0.732L396.889,202.876z"/>
			<path style="fill:#FFFFFF;" d="M366.475,167.225c0,0,0.765,5.57,8.093,8.733c0.699,0.302,0.726,6.622,0.726,6.622
				s-6.658-2.307-8.119-4.27C363.856,173.851,366.475,167.225,366.475,167.225z"/>
			<path style="fill:#FFFFFF;" d="M374.603,173.185c-0.204,1.584-0.035,2.773-0.035,2.773s1.964,4.49,2.635,6.027
				C378.17,180.348,376.53,176.238,374.603,173.185z"/>
			<polygon style="fill:#7A87C8;" points="382.771,210.044 381.419,212.388 408.262,214.549 425.674,191.191 423.781,190.36 
				407.208,212.724 			"/>
			<polygon style="fill:#ACBBE7;" points="394.752,207.223 406.87,208.974 418.72,193.679 423.781,190.36 407.208,212.724 
				382.771,210.044 			"/>
			<path style="opacity:0.4;fill:#FFBFC6;" d="M363.849,192.078c-1.208,4.399,2.326,14.892,4.796,16.092
				c2.161,1.05,9.623-0.725,9.623-0.725s-2.339-5.613,0-9.761c-0.702-0.036-3.699-0.306-5.266-4.58
				C371.215,188.232,364.693,189.006,363.849,192.078z"/>
			<g>
				<path style="fill:#FFBFC6;" d="M364.055,193.449c1.38,4.919,3.922,13.328,6.723,14.052c4.259,1.101,23.662,2.924,23.662,2.924
					l-0.202-3.127l-19.254-5.1c0,0-1.527-7.082-3.782-17.258C370.671,182.547,362.416,187.609,364.055,193.449z"/>
				<path style="fill:#F2D4BB;" d="M394.237,207.298c0,0,1.832-1.518,2.351-1.657c0.456-0.122,1.616,0.746,1.616,0.746
					s2.478-0.629,3.797,0.196c0.625,0.391,2.414,1.857,2.756,3.241c0.162,0.654-1.362,0.714-1.807,0.463
					c-1.025-0.577-2.434,0.357-3.79,0.425c-0.45,0.022-4.72-0.326-4.72-0.326L394.237,207.298z"/>
			</g>
			<path style="fill:#FFC618;" d="M389.593,153.089c2.17,2.41,0.484,11.312-8.813,10.065c-6.674-0.895-13.846-0.373-19.937,19.425
				c-3.493-3.244-6.4-7.072-6.188-15.987C355.012,151.623,376.832,138.922,389.593,153.089z"/>
		</g>
		<g>
			<g>
				<path style="opacity:0.5;fill:#E7E5F7;" d="M191.341,252.1c-1.915,1.118-4.616,2.585-6.452,3.844
					c-0.014,0.01-0.022,0.028-0.032,0.043c-0.005-0.155-0.002-0.322,0.028-0.52c-2.166-0.176-2.854,4.247-4.149,5.508
					c-0.595,0.578-9.041,12.441-9.965,12.441c-0.277,0-2.06-1.169-4.546-2.71l-8.9-6.41l-11.256-5.066
					c-0.022,0.005-0.04,0.007-0.062,0.011l0.275-2.763c0,0,1.346,1.178,2.559,0.269c4.274-3.201,6.036-11.949,6.65-16.125
					c0.739-0.254,1.526-0.527,2.345-0.857c3.973-1.601,4.537-7.157,1.986-9.9c-1.604-1.724-5.029,1.879-11.003-0.063
					c-5.974-1.942-9.251-0.059-11.701,1.165c-10.87,5.429-4.524,19.139,0.001,22.515c0.932,0.695,1.647,1.143,2.234,1.442
					l-0.458,3.426c-0.016-0.026-0.027-0.045-0.027-0.045c-6.946,2.491-12.8,3.758-13.863,5.305
					c-2.194,2.707-4.561,11.868-5.131,15.2c0.34,0.144,0.711,0.259,1.099,0.36c-0.425,1.905-2.406,10.921-2.191,12.652
					c0.342,2.749,6.758,15.645,8.55,19.207c-1.079,10.528-0.095,15.207,0.047,23.134c0.004-0.01,0.008-0.02,0.013-0.031
					c0.001-0.003,0.001-0.006,0.002-0.009c0,0,0.001,0,0.002,0.001c0.109-0.26,0.217-0.519,0.327-0.779
					c0.498-1.178,1.384-1.667,2.325-1.686c0.29-0.241,0.594-0.474,0.92-0.694c0.352-0.238,0.737-0.363,1.132-0.413
					c0.572-1.11,1.175-2.206,1.853-3.263c1.58-2.468,5.677-1.526,6.144,0.895c0.823,0.103,1.569,0.529,2.028,1.335
					c0.455,0.158,0.884,0.41,1.283,0.819c1.845,1.889,1.962,5.055,1.785,8.085c0.416,2.221,0.94,4.412,1.571,6.572
					c0.151,0.143,0.296,0.294,0.426,0.464c1.764,2.315,3.362,4.95,4.665,7.748c1.086,0.031,2.172,0.066,3.258,0.102
					c0.531-0.025,1.062-0.046,1.593-0.069c-0.142-2.993-0.145-5.749,0.069-7.982c0.352-3.671-1.333-24.383-2.341-36.106
					c0.461-0.253,0.678-0.533,0.561-0.837c-0.339-0.881-0.413-3.882-0.351-7.675c0.007-0.414,0.015-0.837,0.025-1.269
					c0.003-0.126,0.006-0.251,0.009-0.378c0.006-0.239,0.012-0.479,0.019-0.721c0.002-0.086,0.005-0.173,0.007-0.259
					c0.015-0.535,0.033-1.078,0.051-1.628c0.001-0.023,0.002-0.047,0.002-0.07c0.01-0.275,0.02-0.553,0.03-0.83
					c0.004-0.096,0.007-0.192,0.011-0.288c0.033-0.868,0.069-1.745,0.108-2.619c0.003-0.069,0.006-0.137,0.009-0.206
					c0.013-0.282,0.025-0.564,0.038-0.845c0.004-0.075,0.007-0.15,0.011-0.224c0.027-0.575,0.054-1.147,0.083-1.712
					c0.001-0.014,0.001-0.027,0.002-0.041c0.014-0.289,0.029-0.576,0.044-0.861c0.003-0.062,0.007-0.124,0.01-0.186
					c0.043-0.837,0.087-1.652,0.131-2.437c0.005-0.092,0.01-0.184,0.015-0.276c0.013-0.24,0.027-0.478,0.04-0.711
					c0.004-0.072,0.008-0.143,0.012-0.215c0.026-0.447,0.051-0.881,0.075-1.299c0.003-0.058,0.007-0.117,0.01-0.174
					c0.012-0.197,0.023-0.389,0.035-0.579c0.007-0.123,0.015-0.243,0.022-0.363c0.02-0.323,0.038-0.632,0.057-0.928
					c0.005-0.083,0.01-0.171,0.016-0.252c0.009-0.149,0.018-0.29,0.027-0.431c0.006-0.1,0.012-0.2,0.018-0.296
					c0.009-0.141,0.018-0.279,0.026-0.41c0.006-0.095,0.012-0.184,0.018-0.274c0.028-0.438,0.053-0.823,0.074-1.134
					c0.003-0.044,0.006-0.088,0.009-0.129c0.004-0.064,0.008-0.128,0.012-0.185c0.008-0.119,0.015-0.221,0.021-0.309
					c0.005-0.07,0.008-0.127,0.012-0.176c0.001-0.008,0.001-0.018,0.002-0.025c0.003-0.047,0.006-0.086,0.008-0.11
					c0.001-0.014,0.003-0.041,0.003-0.041l10.67,3.357c0.008-0.271,0.032-0.607,0.064-0.981c1.792,0.661,3.214,0.961,3.988,0.687
					c4.911-1.739,10.273-16.506,12.583-16.66c1.42-0.095,2.608-1.125,4.075-1.936c0.596-0.329,1.188-1.214,1.982-3.8
					c0.162-0.527-0.285-1.905-0.835-2.664c1.442-0.653,2.853-1.374,3.103-1.471C193.385,253.497,191.811,251.826,191.341,252.1z
					 M126.764,297.055c-0.003,0.028-0.005,0.055-0.008,0.083c-0.695-1.331-1.214-2.672-1.274-3.933
					c-0.07-1.463,0.916-4.412,1.632-7.273C127.27,290.126,127.05,293.861,126.764,297.055z"/>
				<path style="opacity:0.5;fill:#E7E5F7;" d="M185.379,256.817c0.165-0.026,0.361-0.074,0.587-0.145
					C185.745,256.791,185.548,256.84,185.379,256.817z"/>
				<path style="fill:#F2D4BB;" d="M117.939,277.239c0,0-2.513,11.074-2.272,13.012c0.398,3.197,9.016,20.128,9.016,20.128
					s1.733,0.17,3.32-6.264c0.596-2.415-5.419-7.963-5.636-12.478c-0.121-2.529,2.917-9.494,2.25-12.77
					C124.136,276.499,117.939,277.239,117.939,277.239z"/>
				<path style="fill:#4C4A69;" d="M123.827,379.21c0,0-0.813,1.496-0.254,4.298c0.237,1.188,3.301,1.486,5.583,0.79
					c5.572-1.697,6.939-3.932,4.268-5.029c-2.888-1.186-5.311-1.497-5.938-1.141C126.002,378.969,123.827,379.21,123.827,379.21z"/>
				<path style="fill:#394D79;" d="M138.87,301.039c0,0-0.497,36.706-2.355,41.559c-4.227,11.042-8.737,37.619-8.737,37.619
					s-2.043,0.568-3.372,0.049c-1.329-0.519-2.444-23.353-0.205-41.774c0.551-14.258-2.035-17.403,1.098-37.176
					C126.064,296.488,131.139,300.98,138.87,301.039z"/>
				<path style="opacity:0.3;fill:#394D79;" d="M133.004,311.484c-1.027,7.546,0.37,7.173,3.834,29.89
					c1.593-7.95,2.032-27.828,2.032-27.828C134.052,313.51,135.358,311.636,133.004,311.484z"/>
				<path style="fill:#F2D4BB;" d="M144.21,262.298c0,0-7.046,1.232-1.348,4.928c5.698,3.696,21.13,13.201,24.486,12.012
					c4.911-1.739,10.273-16.506,12.583-16.66c1.42-0.095,2.608-1.125,4.075-1.936c0.596-0.329,1.188-1.214,1.982-3.8
					c0.267-0.869-1.122-4.068-1.899-2.953c-1.271,1.824-2.598,1.856-2.319,0.008c-2.166-0.176-2.854,4.247-4.149,5.507
					c-0.594,0.578-9.041,12.441-9.965,12.441C166.732,271.846,149.176,258.91,144.21,262.298z"/>
				<path style="fill:#394D79;" d="M150.605,299.482c0,0,3.55,39.03,3.054,44.202c-1.129,11.769,3.721,37.957,3.721,37.957
					s-1.818,1.092-3.236,0.946c-1.419-0.146-13.975-23.881-13.416-38.53c-3.857-24.779-9.831-26.797-7.148-41.614
					C134.45,297.634,143.138,301.488,150.605,299.482z"/>
				<path style="fill:#4C4A69;" d="M152.455,380.706c0,0,0.268,1.606-0.361,4.749c-0.238,1.188,10.278,2.152,12.66,2.02
					c2.383-0.132,6.501-2.403,5.655-2.849c-1.156-0.609-2.564,0.224-5.361-0.496c-3.351-0.863-7.134-3.348-7.761-2.993
					C155.804,381.978,152.455,380.706,152.455,380.706z"/>
				<g>
					<path style="fill:#F2D4BB;" d="M152.659,236.776c0,0-1.233,14.133-6.932,18.402c-1.213,0.909-2.559-0.269-2.559-0.269
						l-0.772,7.759l-7.261-1.055l1.521-11.382c0,0-3.131-0.389-2.573-4.973C134.641,240.673,142.901,228.986,152.659,236.776z"/>
					<path style="fill:#F2D4BB;" d="M139.001,260.266c0.451-0.284,1.619-5.356,3.953-4.832l0.203-0.499
						c-4.087-2.822-7.309-6.911-8.538-11.619c-0.285,0.72-0.469,1.384-0.537,1.942c-0.558,4.584,2.573,4.973,2.573,4.973
						l-1.143,8.668L139.001,260.266z"/>
					<path style="fill:#4B446A;" d="M134.004,229.397c2.45-1.224,5.727-3.108,11.701-1.165c5.974,1.942,9.399-1.661,11.003,0.063
						c2.551,2.743,1.987,8.299-1.986,9.9c-3.973,1.601-7.266,1.906-7.333,4.752c-0.099,4.182-3.545-1-3.734,0.77
						c-0.188,1.77,2.156,3.118,1.677,4.38c-0.479,1.261-4.646,6.019-4.673,6.01c-2.497-0.828-2.367,1.004-6.655-2.195
						C129.48,248.536,123.133,234.826,134.004,229.397z"/>
				</g>
				<path style="fill:#7E89A5;" d="M188.256,252.708c-0.45,0.174-4.639,2.361-6.035,2.549c-0.457,0.062-0.666-0.73-0.446-0.882
					c1.836-1.259,4.537-2.726,6.452-3.844C188.696,250.258,190.271,251.929,188.256,252.708z"/>
				<path style="fill:#399CDB;" d="M135.754,256.734c0,0,1.083,2.198,7.201,0.926l11.256,5.066l10.305,7.421
					c0,0-1.149,7.01-1.219,9.385l-10.67-3.357c0,0-1.903,27.563-0.748,30.566c1.155,3.003-28.989,3.771-28.989-2.401
					c0-4.454,1.937-13.074,0.815-24.349c-0.206-2.075-4.43-1.689-6.945-2.752c0.57-3.333,2.938-12.493,5.131-15.2
					C122.953,260.493,128.808,259.225,135.754,256.734z"/>
				<path style="opacity:0.3;fill:#399CDB;" d="M149.271,290.293c0.195,3.189,1.043,6.173,2.252,9.025
					c0.137-9.131,1.103-23.142,1.103-23.142S148.93,284.719,149.271,290.293z"/>
				<path style="opacity:0.3;fill:#399CDB;" d="M131.018,305.564c-3.362-2.742-5.728-6.219-7.368-10.077
					c-0.337,3.758-0.76,6.768-0.76,8.853c0,2.956,6.912,4.317,13.99,4.606C134.812,308.134,132.844,307.053,131.018,305.564z"/>
				<path style="opacity:0.3;fill:#399CDB;" d="M123.779,266.071c0,0-0.282,10.07-0.04,13.462c0,0-0.811-1.397-3.214-1.431
					C121.27,274.516,123.779,266.071,123.779,266.071z"/>
			</g>
			
				<ellipse transform="matrix(0.0429 -0.9991 0.9991 0.0429 -238.129 514.0887)" style="opacity:0.5;fill:#E7E5F7;" cx="149.249" cy="381.329" rx="8.999" ry="47.286"/>
		</g>
		<path style="opacity:0.5;fill:#E7E5F7;" d="M367.042,319.886c0.243,0.854,0.519,1.812,0.798,2.767
			C367.544,321.663,367.276,320.75,367.042,319.886z"/>
		<g>
			<g>
				<path style="fill:#4A78E0;" d="M296.574,389.909l-1.614-12.594l75.391-9.66c1.35-0.173,2.584,0.781,2.757,2.131l0.987,7.706
					c0.173,1.35-0.781,2.584-2.131,2.757L296.574,389.909z"/>
				<path style="fill:#528FDD;" d="M234.884,400.722l-2.347-18.318L358.8,366.226c1.963-0.252,3.759,1.136,4.01,3.099l1.436,11.209
					c0.251,1.963-1.136,3.758-3.099,4.01L234.884,400.722z"/>
				
					<rect x="247.351" y="365.57" transform="matrix(0.1271 0.9919 -0.9919 0.1271 609.4568 84.7363)" style="opacity:0.2;fill:#528FDD;" width="18.468" height="46.125"/>
				<polygon style="fill:#4A78E0;" points="212.72,394.252 232.537,382.404 234.884,400.722 				"/>
				<polygon style="fill:#FFCC31;" points="221.003,389.3 212.72,394.252 221.984,396.956 				"/>
				<path style="opacity:0.3;fill:#528FDD;" d="M348.416,386.176c0.066-0.18,0.104-0.371,0.078-0.574l-0.335-2.613l0.073-0.009
					c1.352-0.173,2.308-1.41,2.135-2.762l-0.232-1.813c-0.173-1.352-1.41-2.308-2.762-2.135l-0.073,0.009l-1.081-8.44l-5.534,0.709
					l1.081,8.44l-51.299,6.573c-1.352,0.173-2.308,1.41-2.135,2.762l0.232,1.813c0.173,1.352,1.41,2.308,2.762,2.135l51.3-6.573
					l0.335,2.613c0.026,0.203,0.111,0.378,0.22,0.536L348.416,386.176z"/>
				<g>
					<path style="fill:#FFCC31;" d="M346.453,386.542l-2.376-18.544c-0.086-0.675,0.391-1.293,1.066-1.379l3.088-0.396
						c0.675-0.087,1.293,0.391,1.379,1.066l2.376,18.544c0.087,0.675-0.391,1.293-1.066,1.379l-3.088,0.396
						C347.157,387.694,346.539,387.217,346.453,386.542z"/>
					<path style="fill:#FFCC31;" d="M291.734,393.448l-0.257-2.006c-0.192-1.496,0.866-2.864,2.362-3.056l58.258-7.464
						c1.496-0.192,2.864,0.866,3.056,2.362l0.257,2.006c0.192,1.496-0.866,2.864-2.362,3.056l-58.258,7.464
						C293.294,396.002,291.926,394.944,291.734,393.448z"/>
				</g>
			</g>
			<ellipse style="opacity:0.5;fill:#E7E5F7;" cx="288.312" cy="396.956" rx="84.714" ry="7.57"/>
		</g>
		<g>
			<path style="opacity:0.5;fill:#E7E5F7;" d="M360.5,349.477c0.937-0.551,1.899-0.996,2.878-1.377
				c-0.048-1.408,0.748-2.875,2.313-3.364c8.14-2.545,16.82-1.284,24.917-3.893c1.127-0.363,2.066-0.122,2.751,0.435
				c0.255-0.011,0.521-0.002,0.804,0.048c-0.48-0.235-0.967-0.473-1.465-0.713l4.586-1.515l8.271-25.366l-26.596,3.841l-1.994,7.24
				l-1.636-0.738l-2.993-8.809c0.797-0.531,1.285-0.973,1.285-0.973s-3.266-12.433-5.724-14.458
				c-2.771-2.283-11.126-2.979-11.126-2.979v0c-0.649-0.074-1.084-0.112-1.084-0.112l-1.612-4.081c0,0,3.856-0.515,5.792-1.187
				c1.262-0.438,3.389-5.206,3.719-9.958c0.089,0.072,0.17,0.153,0.279,0.198c0.595,0.247,1.105,0.016,1.524-0.362
				c0.203,0.119,0.43,0.204,0.672,0.237c0.396,0.055,0.772-0.14,1.026-0.439c0.8-0.123,1.445-0.865,1.672-1.619
				c0.237-0.787-0.024-1.383-0.306-2.07c0.61-0.634,0.928-1.522,0.88-2.393c0.019-0.205,0.011-0.409-0.014-0.612
				c0.035-0.043,0.073-0.083,0.102-0.133c0.405-0.697,0.707-1.574,0.148-2.285c-0.446-0.567-1.146-0.737-1.748-0.408
				c0.001-0.185-0.007-0.37-0.042-0.551c0.067-0.136,0.134-0.272,0.182-0.421c0.518-1.586-0.372-3.287-1.89-3.827
				c-0.098-0.071-0.205-0.132-0.316-0.186c-0.177-0.654-0.59-1.238-1.167-1.593c-0.22-0.135-0.475-0.179-0.717-0.139
				c0.02-0.117,0.044-0.232,0.044-0.356c0-0.645-0.503-1.184-1.15-1.134c-0.576-0.517-1.364-0.817-2.233-0.73
				c-0.459,0.046-0.663,0.44-0.648,0.833c-0.23-0.198-0.429-0.417-0.572-0.667c-0.35-0.204-0.727-0.291-1.099-0.26
				c-0.051-0.148-0.12-0.291-0.222-0.42c-1.043-1.327-2.819-0.957-4-0.062c-0.128,0.097-0.209,0.213-0.253,0.337
				c-0.38,0.261-0.637,0.664-0.736,1.116c-0.31-0.003-0.616,0.03-0.909,0.112c-0.242-0.605-0.785-1.06-1.461-1.173
				c-1.103-0.185-1.877,0.47-2.205,1.35c-0.89-1.042-2.337-0.617-3.199,0.219c-0.617-0.392-1.401-0.523-2.087-0.235
				c-0.694,0.291-1.164,1.029-1.135,1.761c-0.277,0.032-0.548,0.135-0.792,0.343c-0.328,0.279-0.508,0.695-0.524,1.107
				c-1.198,0.256-2.34,0.797-2.761,2.05c-0.046,0.138-0.063,0.267-0.066,0.391c-0.607-0.228-1.268-0.262-1.916,0.068
				c-1.021,0.519-1.302,1.688-0.895,2.638c-0.03,0.201-0.031,0.408,0.021,0.613c0.063,0.251,0.174,0.48,0.319,0.681
				c0.05,0.078,0.109,0.147,0.169,0.216c-0.331,0.343-0.519,0.803-0.47,1.306c0.013,0.132,0.063,0.252,0.104,0.375
				c-0.48,0.258-0.82,0.744-0.86,1.3c-0.027,0.378,0.082,0.744,0.281,1.056c-0.008,0.034-0.024,0.066-0.031,0.101
				c-0.002,0.014,0,0.026-0.002,0.039c-0.33,0.357-0.423,0.857-0.208,1.416c0.102,0.266,0.224,0.482,0.37,0.683
				c-0.013,0.204,0.048,0.391,0.16,0.548c-0.381,0.388-0.55,0.924-0.268,1.546c0.223,0.49,0.615,0.766,1.063,0.886
				c-0.161,0.32-0.249,0.674-0.221,1.034c0.049,0.605,0.4,1.162,0.894,1.511c-0.177,0.453-0.195,0.95,0.06,1.427
				c0.264,0.494,0.748,0.866,1.287,1.006c-0.052,0.174-0.077,0.357-0.037,0.542c0.167,0.784,0.963,1.044,1.671,0.922
				c0.118-0.02,0.217-0.058,0.307-0.102c0.111,0.524,0.527,0.966,1.051,1.107c-0.191,0.58-0.009,1.251,0.525,1.607
				c0.336,0.224,0.763,0.3,1.159,0.222c0.314-0.062,0.537-0.206,0.717-0.403c0.271,0.082,0.547,0.148,0.827,0.188
				c0.5,0.502,1.22,0.556,1.785,0.227c0.428,0.496,1.366,0.477,1.85-0.023c0.266-0.274,0.407-0.629,0.462-1.007
				c0.005-0.002,0.008-0.008,0.013-0.011c0.295,2.615,0.053,4.958,0.053,4.958l-1.815,0.395c-3.485,0.889-11.738,6.545-12.488,9.638
				c-1.464,6.042-0.406,16.138-0.406,16.138s1.482,0.103,3.312,0.249c0.402,1.675,2.766,11.448,3.254,11.773
				c0.156,0.104,1.868,0.505,4.279,1.016v0l0,0c0.656,4.188,1.299,7.625,1.676,6.797c0.025-0.055,0.074-0.115,0.141-0.177
				c0.23,1.688,0.834,4.61,2.372,7.299c3.906,0.03,7.799,0.169,11.686,0.45C360.236,349.655,360.361,349.559,360.5,349.477z
				 M369.691,328.302c0.18,0.15,2.739,0.95,5.813,1.818l-0.142,0.516l-4.908,1.184c-0.612-2.378-1.193-4.41-1.72-6.189
				C369.189,327.101,369.562,328.195,369.691,328.302z"/>
			<g>
				<path style="fill:#5D3C6E;" d="M362.461,338.273c0,0,4.968,2.98,11.488,5.633c6.519,2.653,25.532,9.483,28.669,9.966
					c3.137,0.482,31.782,14.379,31.782,14.379l2.32-4.167c0,0-26.084-16.68-28.968-18.468c-3.388-2.1-28.006-14.659-32.106-12.97
					C371.547,334.335,362.461,338.273,362.461,338.273z"/>
				<path style="opacity:0.2;fill:#5D3C6E;" d="M397.611,350.76c-1.734-1.137-2.805-3.091-2.524-5.022
					c-0.782-2.256,0.231-4.232,1.963-5.657c-8.378-4.027-18.856-8.484-21.405-7.434c-4.1,1.688-13.185,5.627-13.185,5.627
					s4.969,2.98,11.488,5.633c5.493,2.235,19.856,7.436,26.118,9.307c-0.637-0.647-1.205-1.334-1.698-2.044
					C398.114,351.038,397.853,350.918,397.611,350.76z"/>
				<path style="fill:#5D3C6E;" d="M350.602,340.206c0,0,0.452,12.469,10.201,14.558c11.689,2.505,25.304,4.505,27.857,6.391
					c5.371,3.969,29.359,18.667,29.359,18.667l3.64-1.63c0,0-24.639-25.026-25.242-25.034c-0.603-0.007-29.155-19.22-33.254-17.531
					C359.064,337.315,350.602,340.206,350.602,340.206z"/>
				<path style="fill:#F2D4BB;" d="M368.311,279.407c0.171,5.257-2.343,11.204-3.759,11.696c-1.935,0.673-5.792,1.187-5.792,1.187
					l1.612,4.081c0,0,6.694,0.582,6.914,1.686c0.221,1.104-11.478,11.824-13.354,12.376c-1.876,0.552-2.297-9.709-2.959-14.234
					l1.815-0.395c0,0,0.433-4.184-0.562-7.609c-5.542-3.827-8.605-14.085,6.166-17.688C361.082,269.852,368,269.854,368.311,279.407
					z"/>
				<path style="fill:#A3C9FF;" d="M350.973,296.199c0,0,1.85,5.078,7.897,4.95c3.956-0.084,4.2-1.3,2.586-4.666
					c0,0,8.354,0.696,11.126,2.979c2.458,2.025,5.724,14.458,5.724,14.458s-1.123,1.025-2.776,1.837
					c-2.349,1.153-4.579,0.374-4.388,1.32c0.745,3.708,2.372,7.854,4.26,15.4c0.444,1.774-23.972,7.511-24.799,9.332
					c-0.828,1.821-2.949-16.983-3.649-19.069c-2.741-0.339-8.873-0.766-8.873-0.766s-1.058-10.096,0.406-16.138
					C339.235,302.744,347.488,297.088,350.973,296.199z"/>
				<g>
					<path style="fill:#4C4A69;" d="M439.378,358.327c-2.163,1.912-7.389,6.725-6.258,9.693c1.131,2.968,4.668,1.827,5.445,0.946
						c2.318-2.629,5.628-10.473,5.339-12.565C443.614,354.31,441.391,356.547,439.378,358.327z"/>
					<path style="opacity:0.5;fill:#4C4A69;" d="M438.564,368.966c2.318-2.629,5.628-10.473,5.339-12.565
						c-0.082-0.594-0.324-0.83-0.669-0.836c-0.822,0.625-1.837,1.807-2.805,2.859c-2.074,2.253-7.074,7.914-5.771,11.19
						c0.016,0.04,0.036,0.071,0.053,0.109C436.178,370.305,438.028,369.574,438.564,368.966z"/>
				</g>
				<g>
					<path style="fill:#4C4A69;" d="M420.604,367.122c-1.708,2.642-5.777,9.228-3.718,12.01c2.059,2.782,5.435,0.545,5.991-0.607
						c1.66-3.439,2.827-12.643,1.909-14.753C423.869,361.662,422.193,364.664,420.604,367.122z"/>
					<path style="opacity:0.5;fill:#4C4A69;" d="M422.877,378.525c1.66-3.439,2.827-12.643,1.909-14.753
						c-0.261-0.599-0.584-0.776-0.948-0.68c-0.679,0.897-1.396,2.436-2.103,3.824c-1.514,2.974-5.096,10.383-2.766,13.437
						c0.029,0.037,0.059,0.064,0.087,0.099C420.767,380.63,422.493,379.32,422.877,378.525z"/>
				</g>
				<path style="fill:#F2D4BB;" d="M358.76,292.29c0,0-3.724-1.305-4.27-2.492l5.883,6.573L358.76,292.29z"/>
				<path style="fill:#F2D4BB;" d="M370.873,316.484c0,0,3.075,11.092,3.503,11.448c0.428,0.356,14.296,4.39,16.597,4.26
					c2.886-0.163,4.499,3.993,6.904,3.239c2.405-0.754-0.947-5.884-2.762-6.609c-0.613-0.245-3.756,0-3.756,0l-11.345-5.118
					l-3.048-8.97C376.966,314.732,374.559,316.136,370.873,316.484z"/>
				<path style="opacity:0.3;fill:#A3C9FF;" d="M347.647,313.491l2.055,8.711l-0.776,12.81c0,0,3.993,4.993,4.769,5.243
					c0.775,0.25,16.664-5.906,12.271-6.594C357.573,332.348,349.674,319.164,347.647,313.491z"/>
				<path style="fill:#465043;" d="M374.252,271.669c-0.446-0.567-1.146-0.736-1.748-0.408c0.001-0.185-0.007-0.37-0.042-0.551
					c0.067-0.136,0.134-0.272,0.182-0.421c0.518-1.586-0.372-3.287-1.89-3.827c-0.098-0.071-0.206-0.132-0.316-0.186
					c-0.177-0.654-0.59-1.238-1.167-1.593c-0.22-0.135-0.475-0.179-0.716-0.139c0.02-0.117,0.043-0.232,0.044-0.356
					c0.001-0.645-0.503-1.184-1.15-1.134c-0.576-0.516-1.364-0.817-2.233-0.73c-0.459,0.046-0.663,0.44-0.648,0.833
					c-0.23-0.198-0.429-0.417-0.572-0.667c-0.35-0.204-0.727-0.291-1.099-0.26c-0.051-0.148-0.12-0.291-0.221-0.42
					c-1.043-1.327-2.819-0.957-4-0.062c-0.128,0.097-0.209,0.213-0.252,0.337c-0.381,0.261-0.637,0.664-0.736,1.116
					c-0.311-0.003-0.616,0.03-0.91,0.112c-0.242-0.605-0.785-1.06-1.46-1.173c-1.103-0.185-1.877,0.47-2.205,1.35
					c-0.89-1.042-2.337-0.617-3.199,0.219c-0.617-0.392-1.401-0.523-2.087-0.235c-0.694,0.291-1.164,1.029-1.135,1.761
					c-0.277,0.032-0.548,0.135-0.792,0.343c-0.328,0.279-0.508,0.695-0.524,1.107c-1.198,0.256-2.34,0.797-2.761,2.05
					c-0.046,0.138-0.062,0.267-0.066,0.391c-0.607-0.228-1.268-0.262-1.916,0.068c-1.021,0.519-1.302,1.687-0.895,2.638
					c-0.03,0.201-0.031,0.408,0.021,0.613c0.063,0.251,0.174,0.48,0.318,0.681c0.05,0.078,0.109,0.147,0.169,0.216
					c-0.331,0.343-0.519,0.803-0.469,1.306c0.013,0.132,0.063,0.252,0.104,0.375c-0.48,0.258-0.82,0.744-0.86,1.3
					c-0.027,0.378,0.082,0.744,0.281,1.056c-0.008,0.034-0.024,0.066-0.031,0.101c-0.003,0.014,0,0.026-0.002,0.039
					c-0.33,0.357-0.423,0.857-0.208,1.416c0.102,0.266,0.225,0.482,0.37,0.683c-0.013,0.204,0.049,0.391,0.16,0.548
					c-0.381,0.388-0.55,0.924-0.268,1.546c0.223,0.49,0.615,0.766,1.063,0.886c-0.161,0.32-0.249,0.675-0.22,1.034
					c0.049,0.605,0.4,1.162,0.894,1.511c-0.177,0.453-0.195,0.95,0.06,1.427c0.264,0.494,0.748,0.866,1.287,1.006
					c-0.052,0.174-0.077,0.357-0.037,0.542c0.167,0.784,0.963,1.044,1.671,0.923c0.118-0.02,0.217-0.057,0.307-0.102
					c0.111,0.524,0.527,0.966,1.05,1.107c-0.191,0.58-0.008,1.251,0.525,1.607c0.336,0.224,0.763,0.3,1.158,0.222
					c0.314-0.062,0.537-0.206,0.717-0.403c0.271,0.082,0.547,0.148,0.827,0.188c0.5,0.502,1.22,0.556,1.785,0.227
					c0.428,0.495,1.366,0.477,1.85-0.023c0.266-0.274,0.407-0.629,0.461-1.007c0.2-0.096,0.365-0.282,0.409-0.591
					c0.061-0.426-0.206-0.859-0.613-0.996c0.096-0.324,0.094-0.688-0.078-1.075c-0.492-1.111-0.229-2.09-0.403-3.232
					c-0.065-0.428-0.207-0.87-0.499-1.208c-0.405-0.469-0.853-0.415-1.003-1.142c-0.012-0.06-0.051-0.105-0.087-0.15
					c-0.011-0.114-0.022-0.228-0.033-0.341c-0.057-0.606-0.113-1.234,0.08-1.811c0.193-0.578,0.704-1.096,1.313-1.096
					c0.516,0,0.949,0.378,1.189,0.843c-0.168,0.097-0.281,0.279-0.23,0.526l0.013,0.063c0.048,0.233,0.209,0.352,0.389,0.384
					c-0.46,0.562-0.069,1.647,0.843,1.46c0.397-0.081,0.602-0.353,0.664-0.658c0.51-0.045,0.994-0.448,0.861-1.097l-0.013-0.061
					c0.049-0.003,0.091,0.008,0.143-0.003c0.794-0.163,0.982-0.922,0.758-1.508c0.044-0.225,0.008-0.468-0.106-0.671
					c0.147,0.009,0.3,0.005,0.465-0.029c1.201-0.246,1.533-1.377,1.231-2.279c0.199-0.134,0.345-0.308,0.432-0.511
					c0.282,0.116,0.583,0.159,0.957,0.117c0.134-0.015,0.26-0.06,0.381-0.117c0.352,0.153,0.748,0.185,1.115,0.106
					c0.238,0.496,0.63,0.938,1.217,0.967c0.247,0.013,0.493-0.057,0.697-0.189c0.095,0.099,0.2,0.19,0.311,0.274
					c-0.075,0.66,0.419,1.325,1.118,1.36c0.396,0.02,0.759,0.138,1.063,0.405c0.167,0.147,0.354,0.212,0.533,0.219
					c0.042,0.108,0.084,0.216,0.146,0.315c-0.005,0.029,0,0.057-0.007,0.086c0.025,0.001,0.046,0.011,0.07,0.013
					c0.28,0.388,0.702,0.68,1.181,0.811c0.043,0.012,0.081,0.002,0.121-0.001c0.179,0.251,0.312,0.543,0.402,0.847
					c0.022,0.012,0.045,0.019,0.068,0.031c0.039,0.022,0.072,0.048,0.109,0.071c0.06,0.005,0.117,0.028,0.176,0.038
					c0.121,0.132,0.271,0.243,0.444,0.315c0.595,0.247,1.105,0.016,1.524-0.362c0.203,0.119,0.43,0.204,0.672,0.237
					c0.396,0.055,0.772-0.141,1.026-0.439c0.8-0.123,1.445-0.865,1.672-1.619c0.237-0.787-0.024-1.383-0.306-2.07
					c0.609-0.634,0.928-1.522,0.88-2.393c0.019-0.205,0.011-0.409-0.014-0.612c0.035-0.043,0.073-0.083,0.102-0.133
					C374.509,273.257,374.812,272.381,374.252,271.669z"/>
				<g>
					<polygon style="fill:#A1ABBE;" points="354.129,336.517 382.962,329.562 401.03,334.595 376.105,344.578 					"/>
					<polygon style="fill:#D9D7EB;" points="354.129,336.517 376.105,344.578 383.644,317.201 410.241,313.359 401.97,338.726 
						376.999,346.976 354.137,338.588 					"/>
					<polygon style="opacity:0.3;fill:#D9D7EB;" points="404.596,315.439 408.991,314.732 398.765,338.443 377.708,344.974 					"/>
				</g>
				<path style="fill:#F2D4BB;" d="M341.333,321.975c0,0,2.78,11.666,3.314,12.022c0.534,0.356,19.279,4.19,22.148,4.06
					c3.598-0.163,5.608,3.993,8.607,3.239c2.999-0.755-1.181-5.884-3.443-6.609c-0.764-0.245-4.682,0-4.682,0l-15.88-5.125
					l-1.694-7.359C349.702,322.203,345.583,322.73,341.333,321.975z"/>
				<path style="opacity:0.3;fill:#A3C9FF;" d="M368.319,307.732l2.555,8.752c0,0,3.111-0.292,5.075-1.263
					C375.949,315.22,370.254,311.798,368.319,307.732z"/>
			</g>
		</g>
	</g>
</g>
<g id="DESIGNED_BY_FREEPIK">
	<g>
		<g id="XMLID_319_">
			<g id="XMLID_338_">
				<path id="XMLID_346_" style="fill:#A5B7C6;" d="M260.104,465.465c-0.432,0.443-0.803,0.931-1.108,1.453l-0.465-0.241
					c-0.067-0.298-0.349-0.503-0.659-0.466c-0.331,0.039-0.568,0.339-0.529,0.67c0.039,0.331,0.339,0.568,0.67,0.529
					c0.066-0.008,0.127-0.026,0.184-0.052l0.451,0.234c-0.251,0.554-0.433,1.139-0.539,1.744l0.746,0.132
					c0.23-1.306,0.85-2.507,1.792-3.473L260.104,465.465z"/>
				<path id="XMLID_345_" style="fill:#A5B7C6;" d="M265.592,463.163c-0.171,0-0.341,0.006-0.51,0.017l-0.074-0.626
					c0.188-0.149,0.296-0.389,0.266-0.645c-0.046-0.393-0.402-0.674-0.795-0.628c-0.393,0.046-0.674,0.402-0.628,0.795
					c0.03,0.254,0.189,0.461,0.404,0.564l0.074,0.624c-0.714,0.116-1.403,0.332-2.06,0.646l0.327,0.684
					c0.934-0.447,1.942-0.673,2.995-0.673c0.496,0,0.993,0.053,1.475,0.158l0.161-0.741
					C266.692,463.222,266.142,463.163,265.592,463.163z"/>
				<path id="XMLID_344_" style="fill:#A5B7C6;" d="M272.194,465.711c0.331-0.04,0.566-0.341,0.526-0.672
					c-0.04-0.331-0.341-0.566-0.672-0.526c-0.309,0.038-0.535,0.304-0.53,0.609l-0.416,0.363c-0.418-0.43-0.889-0.813-1.408-1.139
					l-0.404,0.641c1.134,0.715,2.021,1.726,2.563,2.925l0.69-0.313c-0.251-0.554-0.568-1.072-0.942-1.545l0.402-0.351
					C272.065,465.716,272.129,465.719,272.194,465.711z"/>
				<path id="XMLID_343_" style="fill:#A5B7C6;" d="M265.044,473.372c-0.386,0.023-0.775,0.035-1.157,0.035
					c-0.88,0-1.733-0.061-2.478-0.179c-0.39-0.062-0.846-0.155-1.27-0.292c1.046,1.861,3.069,3.125,5.388,3.125
					c2.855,0,5.262-1.916,5.95-4.504c-0.682,0.449-1.505,0.825-2.459,1.123C267.839,473.047,266.463,473.286,265.044,473.372z"/>
				<path id="XMLID_339_" style="fill:#A5B7C6;" d="M265.592,464.68c-3.352,0-6.08,2.666-6.08,5.943
					c0,0.426,0.046,0.849,0.137,1.261c0.673,0.483,2.706,0.89,5.348,0.731c2.879-0.173,5.297-0.957,6.672-2.159
					c-0.006-0.195-0.021-0.39-0.045-0.582C271.244,466.913,268.65,464.68,265.592,464.68z M263.432,471.194
					c-1.02,0-1.85-0.83-1.85-1.85c0-1.02,0.83-1.85,1.85-1.85c1.02,0,1.85,0.83,1.85,1.85
					C265.282,470.365,264.452,471.194,263.432,471.194z M268.17,470.286c-0.75,0-1.36-0.61-1.36-1.36s0.61-1.361,1.36-1.361
					c0.75,0,1.361,0.61,1.361,1.361S268.92,470.286,268.17,470.286z"/>
			</g>
			<path id="XMLID_336_" style="fill:#A5B7C6;" d="M281.595,466.547c-0.295-0.116-0.805-0.309-1.382-0.237
				c-0.551,0.069-0.844,0.341-0.844,1.007v0.866h2.228v1.717h-2.228v5.455h-1.932v-5.455h-1.34v-1.717h1.34v-0.888
				c0-1.68,0.896-2.783,2.568-2.783c0.643,0,1.157,0.122,1.59,0.308L281.595,466.547z"/>
			<path id="XMLID_334_" style="fill:#A5B7C6;" d="M286.298,469.879c-0.177-0.03-0.358-0.046-0.526-0.046
				c-0.895,0-1.51,0.548-1.51,1.614v3.908h-1.932v-7.172h1.873v0.785c0.451-0.673,1.14-0.977,2.021-0.977
				c0.414,0,0.848,0.128,1.094,0.337L286.298,469.879z"/>
			<path id="XMLID_331_" style="fill:#A5B7C6;" d="M293.965,471.757c0,0.222-0.015,0.489-0.037,0.651h-5.085
				c0.207,1.036,0.933,1.488,1.843,1.488c0.622,0,1.295-0.252,1.813-0.688l1.133,1.243c-0.814,0.748-1.85,1.088-3.057,1.088
				c-2.198,0-3.723-1.495-3.723-3.753c0-2.258,1.48-3.797,3.627-3.797C292.544,467.99,293.958,469.522,293.965,471.757z
				 M288.851,471.091h3.175c-0.177-0.918-0.733-1.436-1.562-1.436C289.554,469.655,289.021,470.203,288.851,471.091z"/>
			<path id="XMLID_328_" style="fill:#A5B7C6;" d="M301.618,471.757c0,0.222-0.015,0.489-0.037,0.651h-5.085
				c0.207,1.036,0.932,1.488,1.843,1.488c0.622,0,1.295-0.252,1.814-0.688l1.132,1.243c-0.814,0.748-1.85,1.088-3.057,1.088
				c-2.198,0-3.723-1.495-3.723-3.753c0-2.258,1.48-3.797,3.627-3.797C300.197,467.99,301.611,469.522,301.618,471.757z
				 M296.504,471.091h3.175c-0.178-0.918-0.733-1.436-1.562-1.436C297.207,469.655,296.674,470.203,296.504,471.091z"/>
			<path id="XMLID_325_" style="fill:#A5B7C6;" d="M309.964,471.764c0,2.154-1.495,3.775-3.471,3.775
				c-0.962,0-1.643-0.378-2.109-0.933v3.708h-1.924v-10.133h1.887v0.792c0.466-0.585,1.155-0.984,2.139-0.984
				C308.469,467.99,309.964,469.61,309.964,471.764z M304.287,471.764c0,1.132,0.747,1.976,1.843,1.976
				c1.14,0,1.85-0.881,1.85-1.976c0-1.095-0.711-1.976-1.85-1.976C305.035,469.788,304.287,470.632,304.287,471.764z"/>
			<path id="XMLID_322_" style="fill:#A5B7C6;" d="M313.067,465.836c0,0.696-0.54,1.229-1.236,1.229
				c-0.696,0-1.229-0.533-1.229-1.229c0-0.696,0.533-1.243,1.229-1.243C312.527,464.592,313.067,465.14,313.067,465.836z
				 M312.809,475.354h-1.932v-7.172h1.932V475.354z"/>
			<path id="XMLID_320_" style="fill:#A5B7C6;" d="M316.032,470.736l2.702-2.554h2.368l-3.479,3.375l3.501,3.797h-2.376
				l-2.716-2.901v2.901H314.1v-10.658h1.932V470.736z"/>
		</g>
		<g>
			<path style="fill:#A5B7C6;" d="M184.412,475.289v-1.055c-0.527,0.718-1.391,1.23-2.387,1.23c-1.846,0-3.149-1.406-3.149-3.706
				c0-2.256,1.289-3.721,3.149-3.721c0.952,0,1.816,0.469,2.387,1.245v-3.765h1.099v9.77H184.412z M184.412,473.37v-3.208
				c-0.395-0.615-1.245-1.143-2.124-1.143c-1.421,0-2.27,1.172-2.27,2.739c0,1.567,0.85,2.724,2.27,2.724
				C183.168,474.483,184.017,473.986,184.412,473.37z"/>
			<path style="fill:#A5B7C6;" d="M186.932,471.744c0-2.051,1.465-3.706,3.486-3.706c2.139,0,3.398,1.67,3.398,3.794v0.279h-5.727
				c0.088,1.333,1.025,2.446,2.549,2.446c0.805,0,1.626-0.322,2.182-0.894l0.527,0.718c-0.703,0.703-1.655,1.084-2.812,1.084
				C188.44,475.465,186.932,473.956,186.932,471.744z M190.403,468.947c-1.509,0-2.256,1.274-2.314,2.358h4.643
				C192.718,470.25,192.015,468.947,190.403,468.947z"/>
			<path style="fill:#A5B7C6;" d="M194.607,474.351l0.571-0.791c0.469,0.542,1.362,1.011,2.329,1.011c1.084,0,1.67-0.513,1.67-1.216
				c0-1.714-4.38-0.659-4.38-3.281c0-1.098,0.952-2.036,2.636-2.036c1.201,0,2.051,0.454,2.622,1.026l-0.513,0.762
				c-0.424-0.513-1.201-0.894-2.109-0.894c-0.967,0-1.567,0.483-1.567,1.113c0,1.552,4.38,0.527,4.38,3.281
				c0,1.187-0.952,2.138-2.783,2.138C196.306,475.465,195.325,475.113,194.607,474.351z"/>
			<path style="fill:#A5B7C6;" d="M201.477,466.471c0-0.41,0.337-0.747,0.732-0.747c0.41,0,0.747,0.337,0.747,0.747
				c0,0.41-0.337,0.732-0.747,0.732C201.814,467.203,201.477,466.881,201.477,466.471z M201.667,475.289v-7.075h1.099v7.075H201.667
				z"/>
			<path style="fill:#A5B7C6;" d="M204.582,477.105l0.556-0.82c0.586,0.703,1.289,0.967,2.3,0.967c1.172,0,2.27-0.571,2.27-2.124
				v-1.011c-0.513,0.718-1.377,1.26-2.373,1.26c-1.845,0-3.149-1.377-3.149-3.662c0-2.27,1.289-3.677,3.149-3.677
				c0.952,0,1.802,0.469,2.373,1.245v-1.069h1.098v6.87c0,2.344-1.641,3.076-3.369,3.076
				C206.237,478.16,205.417,477.926,204.582,477.105z M209.709,473.253v-3.091c-0.381-0.615-1.23-1.143-2.109-1.143
				c-1.421,0-2.27,1.128-2.27,2.695c0,1.553,0.849,2.695,2.27,2.695C208.478,474.41,209.328,473.868,209.709,473.253z"/>
			<path style="fill:#A5B7C6;" d="M217.413,475.289v-4.629c0-1.245-0.63-1.641-1.582-1.641c-0.865,0-1.685,0.527-2.095,1.099v5.17
				h-1.099v-7.075h1.099v1.025c0.498-0.586,1.465-1.201,2.519-1.201c1.48,0,2.256,0.747,2.256,2.285v4.966H217.413z"/>
			<path style="fill:#A5B7C6;" d="M219.932,471.744c0-2.051,1.465-3.706,3.486-3.706c2.139,0,3.398,1.67,3.398,3.794v0.279h-5.727
				c0.088,1.333,1.025,2.446,2.549,2.446c0.806,0,1.626-0.322,2.183-0.894l0.527,0.718c-0.703,0.703-1.655,1.084-2.812,1.084
				C221.441,475.465,219.932,473.956,219.932,471.744z M223.404,468.947c-1.509,0-2.256,1.274-2.314,2.358h4.643
				C225.718,470.25,225.015,468.947,223.404,468.947z"/>
			<path style="fill:#A5B7C6;" d="M233.35,475.289v-1.055c-0.527,0.718-1.392,1.23-2.388,1.23c-1.846,0-3.149-1.406-3.149-3.706
				c0-2.256,1.289-3.721,3.149-3.721c0.952,0,1.817,0.469,2.388,1.245v-3.765h1.098v9.77H233.35z M233.35,473.37v-3.208
				c-0.396-0.615-1.245-1.143-2.124-1.143c-1.421,0-2.27,1.172-2.27,2.739c0,1.567,0.849,2.724,2.27,2.724
				C232.105,474.483,232.954,473.986,233.35,473.37z"/>
			<path style="fill:#A5B7C6;" d="M239.692,475.289v-9.77h1.098v3.765c0.572-0.776,1.421-1.245,2.388-1.245
				c1.845,0,3.149,1.465,3.149,3.721c0,2.299-1.304,3.706-3.149,3.706c-0.996,0-1.86-0.513-2.388-1.23v1.055H239.692z
				 M242.9,474.483c1.436,0,2.285-1.157,2.285-2.724c0-1.568-0.85-2.739-2.285-2.739c-0.864,0-1.728,0.527-2.109,1.143v3.208
				C241.171,473.986,242.036,474.483,242.9,474.483z"/>
			<path style="fill:#A5B7C6;" d="M247.528,477.061c0.161,0.073,0.425,0.117,0.601,0.117c0.483,0,0.805-0.161,1.055-0.747
				l0.469-1.069l-2.959-7.148h1.187l2.358,5.8l2.344-5.8h1.201l-3.545,8.51c-0.425,1.025-1.143,1.421-2.08,1.435
				c-0.234,0-0.601-0.044-0.806-0.103L247.528,477.061z"/>
		</g>
	</g>
</g>
</svg>
