<?xml version="1.0" encoding="utf-8"?>
<!-- Generator: Adobe Illustrator 27.5.0, SVG Export Plug-In . SVG Version: 6.00 Build 0)  -->
<svg version="1.1" xmlns="http://www.w3.org/2000/svg" xmlns:xlink="http://www.w3.org/1999/xlink" x="0px" y="0px"
	 viewBox="0 0 500 500" style="enable-background:new 0 0 500 500;" xml:space="preserve">
<g id="Background_Complete">
	<g>
		<rect y="382.398" style="fill:#EBEBEB;" width="500" height="0.25"/>
		<rect x="416.779" y="398.494" style="fill:#EBEBEB;" width="33.122" height="0.25"/>
		<rect x="322.527" y="401.208" style="fill:#EBEBEB;" width="8.693" height="0.25"/>
		<rect x="396.586" y="389.208" style="fill:#EBEBEB;" width="19.192" height="0.25"/>
		<rect x="52.459" y="390.888" style="fill:#EBEBEB;" width="43.193" height="0.25"/>
		<rect x="104.556" y="390.888" style="fill:#EBEBEB;" width="6.333" height="0.25"/>
		<rect x="131.471" y="395.111" style="fill:#EBEBEB;" width="93.676" height="0.25"/>
		<path style="fill:#EBEBEB;" d="M237.014,337.8H43.915c-3.147,0-5.708-2.561-5.708-5.708V60.66c0-3.147,2.561-5.708,5.708-5.708
			h193.099c3.146,0,5.707,2.561,5.707,5.708v271.432C242.721,335.239,240.16,337.8,237.014,337.8z M43.915,55.203
			c-3.01,0-5.458,2.448-5.458,5.458v271.432c0,3.01,2.448,5.458,5.458,5.458h193.099c3.009,0,5.457-2.448,5.457-5.458V60.66
			c0-3.009-2.448-5.458-5.457-5.458H43.915z"/>
		<path style="fill:#EBEBEB;" d="M453.31,337.8H260.212c-3.147,0-5.707-2.561-5.707-5.708V60.66c0-3.147,2.561-5.708,5.707-5.708
			H453.31c3.148,0,5.708,2.561,5.708,5.708v271.432C459.019,335.239,456.458,337.8,453.31,337.8z M260.212,55.203
			c-3.009,0-5.457,2.448-5.457,5.458v271.432c0,3.01,2.448,5.458,5.457,5.458H453.31c3.01,0,5.458-2.448,5.458-5.458V60.66
			c0-3.009-2.448-5.458-5.458-5.458H260.212z"/>
	</g>
	<g>
		<g>
			<rect x="72.623" y="128.508" style="fill:#E0E0E0;" width="354.754" height="253.89"/>
			<path style="fill:#F5F5F5;" d="M250,381.259V122.53c0,0,45.207-15.839,166.075-15.839v274.568H250z"/>
			<path style="fill:#F0F0F0;" d="M250,381.259V122.53c0,0-45.207-15.839-166.075-15.839v274.568H250z"/>
			<g>
				<g>
					<path style="fill:#F0F0F0;" d="M262.929,149.236c-1.127,0-2.116-0.888-2.292-2.128c-0.194-1.369,0.676-2.648,1.943-2.859
						c0.62-0.103,62.875-10.274,136.731-10.274c1.283,0,2.322,1.123,2.322,2.507c0,1.385-1.039,2.507-2.322,2.507
						c-73.485,0-135.41,10.114-136.027,10.216C263.164,149.226,263.046,149.236,262.929,149.236z"/>
				</g>
				<g>
					<path style="fill:#F0F0F0;" d="M262.929,167.822c-1.154,0-2.154-0.927-2.301-2.195c-0.16-1.374,0.742-2.627,2.014-2.8
						c0.688-0.094,69.542-9.333,136.668-9.333c1.283,0,2.322,1.122,2.322,2.508c0,1.385-1.039,2.507-2.322,2.507
						c-66.827,0-135.404,9.201-136.089,9.294C263.123,167.816,263.025,167.822,262.929,167.822z"/>
				</g>
				<g>
					<path style="fill:#F0F0F0;" d="M262.929,186.409c-1.175,0-2.184-0.96-2.307-2.251c-0.132-1.377,0.797-2.609,2.072-2.751
						c0.755-0.084,76.214-8.395,136.616-8.395c1.283,0,2.322,1.122,2.322,2.507c0,1.385-1.039,2.507-2.322,2.507
						c-60.167,0-135.388,8.285-136.141,8.369C263.089,186.405,263.008,186.409,262.929,186.409z"/>
				</g>
				<g>
					<path style="fill:#F0F0F0;" d="M262.929,204.997c-1.195,0-2.21-0.989-2.311-2.298c-0.107-1.38,0.842-2.592,2.12-2.708
						c0.823-0.075,82.891-7.46,136.573-7.46c1.283,0,2.322,1.122,2.322,2.507c0,1.385-1.039,2.507-2.322,2.507
						c-53.486,0-135.364,7.368-136.185,7.442C263.06,204.994,262.994,204.997,262.929,204.997z"/>
				</g>
				<g>
					<path style="fill:#F0F0F0;" d="M262.93,223.584c-1.211,0-2.231-1.014-2.314-2.337c-0.087-1.382,0.88-2.578,2.159-2.671
						c0.89-0.065,89.57-6.525,136.536-6.525c1.283,0,2.322,1.122,2.322,2.507c0,1.385-1.039,2.507-2.322,2.507
						c-46.808,0-135.333,6.448-136.221,6.513C263.036,223.582,262.982,223.584,262.93,223.584z"/>
				</g>
				<g>
					<path style="fill:#F0F0F0;" d="M262.93,242.171c-1.225,0-2.25-1.035-2.317-2.372c-0.069-1.383,0.913-2.564,2.194-2.639
						c0.958-0.056,96.252-5.592,136.504-5.592c1.283,0,2.322,1.122,2.322,2.507c0,1.385-1.039,2.507-2.322,2.507
						c-40.127,0-135.297,5.528-136.254,5.584C263.014,242.17,262.972,242.171,262.93,242.171z"/>
				</g>
				<g>
					<path style="fill:#F0F0F0;" d="M262.93,260.759c-1.237,0-2.266-1.054-2.318-2.402c-0.054-1.384,0.941-2.552,2.222-2.611
						c1.025-0.046,102.937-4.658,136.476-4.658c1.283,0,2.322,1.122,2.322,2.507c0,1.385-1.039,2.507-2.322,2.507
						c-33.443,0-135.257,4.607-136.281,4.654C262.996,260.758,262.963,260.759,262.93,260.759z"/>
				</g>
				<g>
					<path style="fill:#F0F0F0;" d="M262.93,279.346c-1.249,0-2.28-1.072-2.319-2.428c-0.041-1.384,0.966-2.542,2.247-2.586
						c1.094-0.037,109.623-3.727,136.452-3.727c1.283,0,2.322,1.123,2.322,2.508c0,1.385-1.039,2.507-2.322,2.507
						c-26.757,0-135.213,3.688-136.305,3.725C262.98,279.346,262.955,279.346,262.93,279.346z"/>
				</g>
				<g>
					<path style="fill:#F0F0F0;" d="M262.931,297.933c-1.259,0-2.293-1.086-2.321-2.452c-0.029-1.384,0.988-2.532,2.27-2.562
						c1.161-0.028,116.31-2.795,136.43-2.795c1.283,0,2.322,1.122,2.322,2.507s-1.039,2.508-2.322,2.508
						c-20.069,0-135.167,2.766-136.327,2.793C262.966,297.933,262.948,297.933,262.931,297.933z"/>
				</g>
				<g>
					<path style="fill:#F0F0F0;" d="M262.931,316.521c-1.268,0-2.303-1.099-2.322-2.472c-0.018-1.385,1.007-2.523,2.289-2.543
						c1.228-0.018,122.999-1.863,136.411-1.863c1.283,0,2.322,1.122,2.322,2.507s-1.039,2.508-2.322,2.508
						c-13.38,0-135.118,1.844-136.346,1.863C262.953,316.521,262.942,316.521,262.931,316.521z"/>
				</g>
				<g>
					<path style="fill:#F0F0F0;" d="M262.931,335.108c-1.275,0-2.313-1.112-2.322-2.491c-0.009-1.385,1.024-2.515,2.307-2.524
						c1.296-0.009,129.688-0.931,136.394-0.931c1.283,0,2.322,1.122,2.322,2.507c0,1.385-1.039,2.507-2.322,2.507
						c-6.69,0-135.067,0.922-136.363,0.932C262.942,335.108,262.937,335.108,262.931,335.108z"/>
				</g>
				<g>
					<path style="fill:#F0F0F0;" d="M399.31,353.695H262.932c-1.283,0-2.322-1.122-2.322-2.507c0-1.385,1.039-2.507,2.322-2.507
						H399.31c1.283,0,2.322,1.122,2.322,2.507C401.633,352.573,400.593,353.695,399.31,353.695z"/>
				</g>
			</g>
			<g>
				<g>
					<path style="fill:#EBEBEB;" d="M237.071,149.236c1.127,0,2.116-0.888,2.292-2.128c0.194-1.369-0.676-2.648-1.943-2.859
						c-0.62-0.103-62.874-10.274-136.731-10.274c-1.283,0-2.322,1.123-2.322,2.507c0,1.385,1.039,2.507,2.322,2.507
						c73.485,0,135.41,10.114,136.027,10.216C236.836,149.226,236.954,149.236,237.071,149.236z"/>
				</g>
				<g>
					<path style="fill:#EBEBEB;" d="M237.071,167.822c1.154,0,2.154-0.927,2.301-2.195c0.16-1.374-0.742-2.627-2.014-2.8
						c-0.688-0.094-69.542-9.333-136.668-9.333c-1.283,0-2.322,1.122-2.322,2.508c0,1.385,1.039,2.507,2.322,2.507
						c66.827,0,135.404,9.201,136.089,9.294C236.877,167.816,236.975,167.822,237.071,167.822z"/>
				</g>
				<g>
					<path style="fill:#EBEBEB;" d="M237.071,186.409c1.176,0,2.184-0.96,2.307-2.251c0.132-1.377-0.796-2.609-2.072-2.751
						c-0.755-0.084-76.214-8.395-136.616-8.395c-1.283,0-2.322,1.122-2.322,2.507c0,1.385,1.039,2.507,2.322,2.507
						c60.167,0,135.388,8.285,136.141,8.369C236.911,186.405,236.992,186.409,237.071,186.409z"/>
				</g>
				<g>
					<path style="fill:#EBEBEB;" d="M237.071,204.997c1.195,0,2.21-0.989,2.311-2.298c0.107-1.38-0.842-2.592-2.12-2.708
						c-0.823-0.075-82.891-7.46-136.573-7.46c-1.283,0-2.322,1.122-2.322,2.507c0,1.385,1.039,2.507,2.322,2.507
						c53.486,0,135.364,7.368,136.185,7.442C236.94,204.994,237.006,204.997,237.071,204.997z"/>
				</g>
				<g>
					<path style="fill:#EBEBEB;" d="M237.07,223.584c1.211,0,2.231-1.014,2.314-2.337c0.087-1.382-0.88-2.578-2.159-2.671
						c-0.89-0.065-89.57-6.525-136.536-6.525c-1.283,0-2.322,1.122-2.322,2.507c0,1.385,1.039,2.507,2.322,2.507
						c46.808,0,135.333,6.448,136.221,6.513C236.964,223.582,237.018,223.584,237.07,223.584z"/>
				</g>
				<g>
					<path style="fill:#EBEBEB;" d="M237.07,242.171c1.225,0,2.25-1.035,2.317-2.372c0.069-1.383-0.913-2.564-2.194-2.639
						c-0.958-0.056-96.252-5.592-136.504-5.592c-1.283,0-2.322,1.122-2.322,2.507c0,1.385,1.039,2.507,2.322,2.507
						c40.127,0,135.297,5.528,136.254,5.584C236.986,242.17,237.028,242.171,237.07,242.171z"/>
				</g>
				<g>
					<path style="fill:#EBEBEB;" d="M237.07,260.759c1.237,0,2.266-1.054,2.318-2.402c0.054-1.384-0.941-2.552-2.222-2.611
						c-1.025-0.046-102.937-4.658-136.476-4.658c-1.283,0-2.322,1.122-2.322,2.507c0,1.385,1.039,2.507,2.322,2.507
						c33.443,0,135.257,4.607,136.281,4.654C237.004,260.758,237.037,260.759,237.07,260.759z"/>
				</g>
				<g>
					<path style="fill:#EBEBEB;" d="M237.07,279.346c1.249,0,2.28-1.072,2.319-2.428c0.041-1.384-0.966-2.542-2.247-2.586
						c-1.093-0.037-109.623-3.727-136.452-3.727c-1.283,0-2.322,1.123-2.322,2.508c0,1.385,1.039,2.507,2.322,2.507
						c26.757,0,135.213,3.688,136.305,3.725C237.02,279.346,237.045,279.346,237.07,279.346z"/>
				</g>
				<g>
					<path style="fill:#EBEBEB;" d="M237.069,297.933c1.259,0,2.293-1.086,2.321-2.452c0.029-1.384-0.988-2.532-2.27-2.562
						c-1.161-0.028-116.31-2.795-136.43-2.795c-1.283,0-2.322,1.122-2.322,2.507s1.039,2.508,2.322,2.508
						c20.069,0,135.167,2.766,136.327,2.793C237.034,297.933,237.052,297.933,237.069,297.933z"/>
				</g>
				<g>
					<path style="fill:#EBEBEB;" d="M237.069,316.521c1.268,0,2.303-1.099,2.322-2.472c0.018-1.385-1.007-2.523-2.289-2.543
						c-1.229-0.018-122.999-1.863-136.411-1.863c-1.283,0-2.322,1.122-2.322,2.507s1.039,2.508,2.322,2.508
						c13.38,0,135.118,1.844,136.346,1.863C237.046,316.521,237.058,316.521,237.069,316.521z"/>
				</g>
				<g>
					<path style="fill:#EBEBEB;" d="M237.069,335.108c1.275,0,2.313-1.112,2.322-2.491c0.009-1.385-1.024-2.515-2.307-2.524
						c-1.296-0.009-129.688-0.931-136.394-0.931c-1.283,0-2.322,1.122-2.322,2.507c0,1.385,1.039,2.507,2.322,2.507
						c6.69,0,135.067,0.922,136.363,0.932C237.058,335.108,237.063,335.108,237.069,335.108z"/>
				</g>
				<g>
					<path style="fill:#EBEBEB;" d="M100.689,353.695h136.379c1.283,0,2.322-1.122,2.322-2.507c0-1.385-1.04-2.507-2.322-2.507
						H100.689c-1.283,0-2.322,1.122-2.322,2.507C98.368,352.573,99.407,353.695,100.689,353.695z"/>
				</g>
			</g>
			<polygon style="fill:#E0E0E0;" points="264.958,211.421 257.324,203.397 249.689,211.421 249.689,120.001 264.958,116.992 			"/>
		</g>
		<g>
			<g>
				<g>
					<path style="fill:#E0E0E0;" d="M287.179,251.918c-0.532,0-0.746-0.611-1.064-1.872c-0.067-0.267,0.095-0.539,0.362-0.606
						c0.271-0.07,0.54,0.095,0.607,0.362c0.003,0.014,0.007,0.026,0.01,0.04c0.083-0.666,0.168-1.523,0.257-2.405
						c0.339-3.393,0.852-8.52,2.095-14.174c1.107-5.038,2.713-7.877,4.771-8.438c1.821-0.497,3.21,0.978,3.269,1.04
						c0.187,0.201,0.175,0.517-0.026,0.704c-0.202,0.188-0.517,0.178-0.706-0.023c-0.01-0.012-1.048-1.095-2.282-0.755
						c-1.146,0.316-2.78,1.907-4.05,7.686c-1.23,5.597-1.739,10.689-2.076,14.058c-0.367,3.669-0.433,4.33-1.113,4.38
						C287.215,251.917,287.196,251.918,287.179,251.918z"/>
				</g>
				<g>
					<path style="fill:#E0E0E0;" d="M285.768,238.109c-0.197,0-0.383-0.117-0.462-0.311c-0.105-0.255,0.017-0.547,0.273-0.652
						l8.305-3.405c0.254-0.104,0.547,0.018,0.652,0.273c0.105,0.255-0.017,0.547-0.273,0.652l-8.305,3.405
						C285.895,238.097,285.831,238.109,285.768,238.109z"/>
				</g>
				<g>
					<path style="fill:#E0E0E0;" d="M303.459,245.251c-0.086,0-0.172-0.021-0.252-0.068c-7.793-4.544-2.769-15.172-2.717-15.278
						c0.121-0.25,0.42-0.353,0.668-0.232c0.248,0.12,0.353,0.419,0.233,0.668c-0.194,0.402-4.673,9.901,2.321,13.98
						c0.238,0.139,0.319,0.445,0.18,0.684C303.798,245.162,303.631,245.251,303.459,245.251z"/>
				</g>
				<g>
					<path style="fill:#E0E0E0;" d="M311.043,242.141c-0.078,0-0.157-0.019-0.23-0.057c-0.245-0.128-0.34-0.43-0.212-0.675
						c4.84-9.29-2.544-13.561-2.861-13.739c-0.241-0.135-0.327-0.438-0.193-0.68c0.135-0.241,0.439-0.327,0.679-0.194
						c0.086,0.048,8.559,4.907,3.262,15.076C311.397,242.044,311.223,242.141,311.043,242.141z"/>
				</g>
				<g>
					<path style="fill:#E0E0E0;" d="M308.237,238.385c-0.102,0-0.206-0.031-0.294-0.097l-5.871-4.287
						c-0.223-0.162-0.272-0.476-0.109-0.698c0.163-0.222,0.476-0.272,0.699-0.108l5.871,4.287c0.223,0.162,0.272,0.476,0.109,0.698
						C308.543,238.314,308.391,238.385,308.237,238.385z"/>
				</g>
				<g>
					<path style="fill:#E0E0E0;" d="M302.376,239.524c-0.091,0-0.183-0.024-0.266-0.076c-0.234-0.147-0.304-0.456-0.157-0.689
						l4.594-7.313c0.146-0.233,0.455-0.304,0.689-0.158c0.234,0.147,0.304,0.456,0.157,0.689l-4.594,7.313
						C302.706,239.441,302.543,239.524,302.376,239.524z"/>
				</g>
			</g>
			<g>
				<g>
					<path style="fill:#E0E0E0;" d="M98.142,324.268C98.141,324.268,98.141,324.268,98.142,324.268c-0.277,0-0.501-0.225-0.5-0.501
						c0.005-3.385,1.081-6.157,3.197-8.238c4.205-4.138,10.969-4.08,11.258-4.081c0.276,0.004,0.496,0.231,0.493,0.507
						c-0.004,0.277-0.21,0.531-0.507,0.493c-0.055,0.009-6.646-0.043-10.546,3.798c-1.916,1.887-2.89,4.418-2.895,7.523
						C98.641,324.045,98.418,324.268,98.142,324.268z"/>
				</g>
				<g>
					<path style="fill:#E0E0E0;" d="M109.384,325.712c-0.117,0-0.234-0.041-0.329-0.123c-0.273-0.239-0.424-0.571-0.435-0.962
						c-0.02-0.748,0.514-1.722,1.165-2.623c-2.067,0.952-4.53,1.548-5.878,0.768c-0.6-0.347-1.235-1.104-0.861-2.741
						c0.466-2.045,1.954-3.191,4.05-3.115c2.062,0.064,4.128,1.265,4.335,2.521c0.045,0.272-0.14,0.529-0.412,0.574
						c-0.272,0.052-0.53-0.14-0.574-0.412c-0.104-0.627-1.658-1.63-3.379-1.683c-1.138-0.052-2.589,0.342-3.045,2.338
						c-0.288,1.263,0.22,1.557,0.387,1.653c1.512,0.875,5.965-0.938,7.597-2.447c0.2-0.187,0.513-0.175,0.702,0.023
						c0.188,0.198,0.182,0.511-0.014,0.702c-1.203,1.171-3.1,3.406-3.072,4.415c0.003,0.14,0.048,0.197,0.092,0.235
						c0.208,0.182,0.229,0.498,0.048,0.706C109.662,325.654,109.523,325.712,109.384,325.712z"/>
				</g>
				<g>
					<path style="fill:#E0E0E0;" d="M109.087,328.538c-0.436,0-0.887-0.103-1.338-0.351c-0.242-0.134-0.33-0.438-0.197-0.68
						c0.133-0.241,0.438-0.33,0.679-0.197c1.586,0.874,3.12-1.002,3.185-1.081c0.173-0.215,0.488-0.251,0.703-0.077
						c0.215,0.173,0.25,0.486,0.078,0.702C111.646,327.541,110.445,328.538,109.087,328.538z"/>
				</g>
				<g>
					<path style="fill:#E0E0E0;" d="M119.733,331.145c-1.202,0-2.405-0.545-3.442-1.589c-0.194-0.196-0.193-0.513,0.002-0.707
						c0.196-0.195,0.512-0.195,0.708,0.002c1.58,1.592,3.05,1.374,3.786,1.103c1.05-0.389,1.832-1.317,1.903-2.259
						c0.054-0.722-0.326-1.328-1.098-1.752c-2.258-1.243-6.327,2.142-7.706,3.548c-0.192,0.199-0.509,0.201-0.707,0.008
						c-0.1-0.098-0.15-0.228-0.15-0.357c0-0.127,0.047-0.254,0.143-0.351l10.445-10.66c0.193-0.199,0.509-0.199,0.707-0.008
						c0.197,0.193,0.2,0.51,0.007,0.707l-6.331,6.462c1.39-0.627,2.856-0.895,4.073-0.227c1.108,0.609,1.696,1.595,1.614,2.703
						c-0.098,1.319-1.148,2.604-2.553,3.122C120.674,331.061,120.204,331.145,119.733,331.145z"/>
				</g>
				<g>
					<path style="fill:#E0E0E0;" d="M117.728,335.035c-0.268,0-0.491-0.214-0.499-0.484c-0.009-0.275,0.208-0.507,0.483-0.516
						c4.293-0.137,7.414-1.414,9.275-3.797c2.84-3.636,1.791-8.697,1.779-8.748c-0.058-0.27,0.113-0.535,0.383-0.594
						c0.268-0.06,0.536,0.112,0.595,0.382c0.049,0.225,1.164,5.558-1.963,9.568c-2.053,2.633-5.43,4.042-10.037,4.189
						C117.739,335.035,117.733,335.035,117.728,335.035z"/>
				</g>
			</g>
			<g>
				<g>
					<path style="fill:#E0E0E0;" d="M346.91,156.328c-0.041,0-0.082-0.005-0.123-0.015c-0.221-0.056-0.376-0.254-0.377-0.481
						l-0.071-11.03l-4.621-0.761c-0.272-0.044-0.457-0.302-0.412-0.574c0.044-0.273,0.299-0.462,0.574-0.412l5.037,0.829
						c0.241,0.04,0.418,0.246,0.419,0.49l0.062,9.525l10.11-18.447c0.102-0.186,0.311-0.291,0.52-0.253l17.416,2.866
						c0.272,0.044,0.457,0.302,0.412,0.574c-0.045,0.272-0.302,0.459-0.574,0.412l-17.067-2.808l-10.866,19.826
						C347.259,156.231,347.089,156.328,346.91,156.328z"/>
				</g>
				<g>
					<path style="fill:#E0E0E0;" d="M367.52,158.533c-0.174,0-0.343-0.091-0.435-0.253l-7.663-13.522
						c-0.136-0.24-0.052-0.545,0.189-0.682c0.241-0.136,0.545-0.051,0.682,0.188l7.663,13.523c0.136,0.24,0.052,0.545-0.188,0.682
						C367.688,158.512,367.603,158.533,367.52,158.533z"/>
				</g>
				<g>
					<path style="fill:#E0E0E0;" d="M355.774,156.6c-0.154,0-0.307-0.071-0.404-0.205c-0.163-0.223-0.114-0.536,0.109-0.699
						l13.71-10.006c0.223-0.164,0.537-0.113,0.699,0.109c0.163,0.223,0.114,0.536-0.109,0.699l-13.71,10.006
						C355.98,156.569,355.876,156.6,355.774,156.6z"/>
				</g>
			</g>
			<g>
				<g>
					<path style="fill:#E0E0E0;" d="M299.942,141.888c-0.018,0-0.035,0-0.053,0c-0.779-0.017-1.817-0.422-2.341-2.257
						c-0.659-2.308,0.196-4.261,2.346-5.359c2.072-1.057,4.862-1.001,5.741,0.118c0.171,0.217,0.133,0.532-0.084,0.702
						c-0.218,0.172-0.532,0.133-0.702-0.084c-0.475-0.604-2.679-0.775-4.5,0.155c-1.209,0.617-2.509,1.845-1.839,4.193
						c0.431,1.51,1.161,1.526,1.401,1.532c2.067,0.07,5.62-4.283,6.466-6.822c0.085-0.26,0.365-0.405,0.626-0.318
						c0.261,0.083,0.406,0.36,0.326,0.622c-0.575,1.885-1.26,5.263-0.651,6.301c0.099,0.169,0.202,0.211,0.28,0.228
						c0.27,0.059,0.441,0.325,0.382,0.595c-0.059,0.27-0.326,0.446-0.595,0.382c-0.39-0.085-0.712-0.327-0.93-0.699
						c-0.467-0.797-0.428-2.226-0.231-3.596C304.026,139.769,301.796,141.888,299.942,141.888z"/>
				</g>
				<g>
					<path style="fill:#E0E0E0;" d="M309.272,135.733c-0.044,0-0.09-0.006-0.135-0.019c-0.266-0.075-0.421-0.35-0.347-0.616l0,0
						c0.001-0.001,0.001-0.003,0.001-0.004l1.66-5.937c0.074-0.266,0.354-0.419,0.616-0.347c0.266,0.074,0.421,0.35,0.347,0.616
						l-0.723,2.587c0.26-0.157,0.548-0.251,0.864-0.251c0.642,0,1.149,0.302,1.39,0.829c0.277,0.608,0.137,1.393-0.349,1.953
						c-0.55,0.635-1.399,0.84-2.324,0.569c-0.16-0.047-0.278-0.167-0.33-0.312c-0.08,0.208-0.144,0.403-0.189,0.564l0,0.001l0,0
						C309.692,135.588,309.491,135.733,309.272,135.733z M310.415,134.135c0.046,0,0.094,0.006,0.141,0.02
						c0.542,0.159,0.999,0.064,1.286-0.266c0.223-0.257,0.306-0.637,0.194-0.883c-0.027-0.06-0.111-0.244-0.479-0.244
						c-0.507,0-0.993,0.69-1.344,1.415C310.275,134.149,310.344,134.135,310.415,134.135z"/>
				</g>
			</g>
			<g>
				<g>
					<path style="fill:#E0E0E0;" d="M222.54,350.125c-0.035,0-0.071-0.004-0.107-0.012c-0.39-0.085-0.711-0.327-0.93-0.699
						c-0.467-0.797-0.428-2.226-0.231-3.597c-1.573,2.209-3.794,4.384-5.694,4.307c-0.779-0.017-1.817-0.422-2.341-2.256
						c-0.659-2.309,0.196-4.261,2.345-5.358c2.072-1.058,4.862-1.002,5.741,0.117c0.171,0.217,0.133,0.531-0.084,0.702
						c-0.218,0.169-0.532,0.133-0.702-0.085c-0.475-0.603-2.681-0.774-4.499,0.156c-1.209,0.617-2.509,1.846-1.838,4.192
						c0.431,1.511,1.161,1.526,1.401,1.532c0.011,0,0.022,0,0.034,0c2.108,0,5.59-4.296,6.432-6.821
						c0.086-0.26,0.366-0.401,0.626-0.318c0.261,0.083,0.406,0.36,0.326,0.622c-0.574,1.886-1.259,5.264-0.651,6.302
						c0.099,0.169,0.201,0.21,0.279,0.228c0.27,0.059,0.441,0.325,0.382,0.595C222.977,349.966,222.77,350.125,222.54,350.125z"/>
				</g>
				<g>
					<path style="fill:#E0E0E0;" d="M224.961,343.97c-0.045,0-0.09-0.006-0.135-0.019c-0.266-0.074-0.421-0.351-0.347-0.616
						l1.661-5.94c0.074-0.266,0.352-0.418,0.616-0.347c0.266,0.074,0.421,0.351,0.347,0.616l-0.723,2.588
						c0.26-0.157,0.548-0.252,0.865-0.252c0.643,0,1.149,0.302,1.389,0.829c0.278,0.607,0.138,1.393-0.348,1.953
						c-0.551,0.634-1.398,0.842-2.324,0.569c-0.16-0.047-0.278-0.167-0.33-0.313c-0.079,0.207-0.143,0.399-0.188,0.561l-0.002,0.005
						l0,0C225.38,343.825,225.179,343.97,224.961,343.97z M226.102,342.372c0.046,0,0.094,0.007,0.141,0.021
						c0.542,0.16,1,0.064,1.287-0.266c0.223-0.257,0.306-0.637,0.194-0.883c-0.027-0.061-0.111-0.244-0.48-0.244
						c-0.509,0-0.995,0.69-1.346,1.415C225.962,342.387,226.031,342.372,226.102,342.372z"/>
				</g>
			</g>
			<g>
				<g>
					<path style="fill:#E0E0E0;" d="M100.248,244.594c-0.135,0-0.271-0.055-0.369-0.162l-7.657-8.372
						c-0.116-0.128-0.159-0.306-0.113-0.472l3.503-12.65c0.074-0.266,0.352-0.423,0.615-0.348c0.266,0.073,0.422,0.349,0.349,0.615
						l-3.43,12.384l7.471,8.167c0.186,0.204,0.172,0.52-0.032,0.707C100.49,244.551,100.369,244.594,100.248,244.594z"/>
				</g>
				<g>
					<path style="fill:#E0E0E0;" d="M109.24,236.041c-0.113,0-0.226-0.038-0.32-0.116l-8.767-7.329
						c-0.212-0.178-0.24-0.492-0.063-0.704c0.177-0.213,0.492-0.24,0.705-0.064l8.767,7.329c0.212,0.178,0.24,0.492,0.063,0.704
						C109.525,235.98,109.383,236.041,109.24,236.041z"/>
				</g>
				<g>
					<path style="fill:#E0E0E0;" d="M102.718,236.215c-0.063,0-0.127-0.012-0.188-0.037c-0.256-0.105-0.379-0.396-0.274-0.651
						l3.792-9.308c0.104-0.257,0.397-0.379,0.651-0.274c0.256,0.104,0.379,0.395,0.274,0.651l-3.791,9.308
						C103.102,236.097,102.915,236.215,102.718,236.215z"/>
				</g>
				<g>
					<path style="fill:#E0E0E0;" d="M111.604,238c-0.215,0-0.414-0.14-0.479-0.357c-0.079-0.265,0.071-0.543,0.336-0.622
						c0.503-0.149,0.733-1.541,0.706-2.488c-0.008-0.276,0.21-0.506,0.485-0.515c0.249,0.007,0.506,0.209,0.515,0.485
						c0.015,0.505,0.018,3.047-1.42,3.477C111.699,237.993,111.651,238,111.604,238z"/>
				</g>
				<g>
					<path style="fill:#E0E0E0;" d="M119.063,229.727c-0.104,0-0.208-0.032-0.298-0.099l-5.283-3.929
						c-0.222-0.165-0.268-0.479-0.103-0.7c0.165-0.221,0.477-0.267,0.7-0.103l5.283,3.929c0.222,0.165,0.268,0.479,0.103,0.7
						C119.367,229.658,119.216,229.727,119.063,229.727z"/>
				</g>
				<g>
					<path style="fill:#E0E0E0;" d="M115.809,241.363c-0.044,0-0.089-0.006-0.134-0.019c-0.266-0.073-0.422-0.35-0.348-0.615
						l5.222-18.799c0.074-0.267,0.35-0.422,0.616-0.348c0.266,0.073,0.422,0.35,0.348,0.615l-5.222,18.799
						C116.229,241.219,116.027,241.363,115.809,241.363z"/>
				</g>
				<g>
					<path style="fill:#E0E0E0;" d="M126.151,236.137c-0.054,0-0.109-0.009-0.163-0.027c-0.261-0.09-0.4-0.374-0.31-0.636
						l3.519-10.223l-8.288-9.381c-0.183-0.207-0.164-0.522,0.043-0.706c0.208-0.183,0.523-0.163,0.706,0.044l8.481,9.6
						c0.12,0.135,0.157,0.323,0.098,0.494l-3.613,10.498C126.553,236.008,126.359,236.137,126.151,236.137z"/>
				</g>
			</g>
			<g>
				<g>
					<path style="fill:#E0E0E0;" d="M358.795,257.079c-0.104,0-0.207-0.032-0.295-0.097c-0.176-0.128-0.248-0.355-0.179-0.563
						l12.265-36.517c0.057-0.169,0.199-0.295,0.373-0.33c0.174-0.042,0.354,0.023,0.474,0.155l14.881,16.606
						c0.094,0.105,0.139,0.245,0.125,0.386c-0.015,0.141-0.088,0.268-0.202,0.352l-27.146,19.91
						C359.003,257.047,358.899,257.079,358.795,257.079z M371.261,221.035l-11.49,34.208l25.43-18.651L371.261,221.035z"/>
				</g>
				<g>
					<path style="fill:#E0E0E0;" d="M382.298,239.841c-0.139,0-0.277-0.058-0.376-0.171l-3.142-3.594
						c-0.087-0.101-0.131-0.231-0.123-0.363c0.009-0.133,0.071-0.257,0.171-0.344l3.346-2.9c0.208-0.181,0.524-0.158,0.706,0.051
						c0.181,0.208,0.158,0.524-0.05,0.705l-2.966,2.571l2.811,3.216c0.182,0.208,0.161,0.523-0.047,0.705
						C382.533,239.8,382.415,239.841,382.298,239.841z"/>
				</g>
			</g>
			<g>
				<g>
					<path style="fill:#E0E0E0;" d="M165.563,166.712c-7.165,0-12.994-5.829-12.994-12.994c0-7.165,5.829-12.994,12.994-12.994
						s12.994,5.829,12.994,12.994C178.557,160.883,172.727,166.712,165.563,166.712z M165.563,141.723
						c-6.614,0-11.994,5.38-11.994,11.994c0,6.614,5.38,11.994,11.994,11.994s11.994-5.38,11.994-11.994
						C177.557,147.104,172.176,141.723,165.563,141.723z"/>
				</g>
				<g>
					<path style="fill:#E0E0E0;" d="M179.426,157.146c-7.92,0-14.364-6.443-14.364-14.364s6.443-14.364,14.364-14.364
						s14.364,6.444,14.364,14.364S187.347,157.146,179.426,157.146z M179.426,129.418c-7.369,0-13.364,5.995-13.364,13.364
						c0,7.369,5.995,13.364,13.364,13.364c7.369,0,13.364-5.995,13.364-13.364C192.79,135.413,186.795,129.418,179.426,129.418z"/>
				</g>
				<g>
					<path style="fill:#E0E0E0;" d="M166.332,147.844c-0.045,0-0.092-0.006-0.138-0.02c-0.266-0.076-0.418-0.354-0.342-0.619
						l1.69-5.877c0.076-0.265,0.352-0.417,0.619-0.342c0.266,0.076,0.419,0.354,0.342,0.619l-1.69,5.877
						C166.749,147.701,166.549,147.844,166.332,147.844z"/>
				</g>
				<g>
					<path style="fill:#E0E0E0;" d="M168.023,151.163c-0.045,0-0.091-0.006-0.137-0.019c-0.266-0.075-0.42-0.352-0.345-0.617
						l2.395-8.461c0.075-0.266,0.354-0.423,0.617-0.345c0.266,0.075,0.42,0.352,0.345,0.617l-2.395,8.461
						C168.441,151.019,168.241,151.163,168.023,151.163z"/>
				</g>
				<g>
					<path style="fill:#E0E0E0;" d="M170.418,153.687c-0.042,0-0.085-0.005-0.127-0.016c-0.267-0.07-0.427-0.343-0.357-0.61
						l2.501-9.567c0.07-0.267,0.343-0.425,0.61-0.357c0.267,0.07,0.427,0.343,0.357,0.61l-2.501,9.567
						C170.842,153.538,170.64,153.687,170.418,153.687z"/>
				</g>
				<g>
					<path style="fill:#E0E0E0;" d="M173.925,156.008c-0.032,0-0.064-0.003-0.097-0.009c-0.271-0.053-0.447-0.316-0.394-0.587
						l1.785-9.076c0.053-0.27,0.312-0.448,0.587-0.394c0.271,0.053,0.447,0.316,0.394,0.587l-1.785,9.076
						C174.369,155.844,174.16,156.008,173.925,156.008z"/>
				</g>
				<g>
					<path style="fill:#E0E0E0;" d="M175.71,156.638c-0.038,0-0.076-0.004-0.114-0.013c-0.269-0.063-0.436-0.332-0.373-0.601
						l1.577-6.748c0.063-0.268,0.332-0.437,0.601-0.373c0.269,0.063,0.436,0.331,0.373,0.601l-1.577,6.748
						C176.143,156.482,175.938,156.638,175.71,156.638z"/>
				</g>
				<g>
					<path style="fill:#E0E0E0;" d="M152.814,143.046c-0.347,0-0.775-0.13-1.267-0.534c-1.107-0.911-1.35-2.162-0.666-3.43
						c0.593-1.099,1.943-2.111,2.869-1.852c-0.008-0.031-0.016-0.061-0.024-0.091c-0.077-0.263,0.073-0.538,0.334-0.618
						c0.263-0.08,0.539,0.066,0.622,0.327c0.509,1.599,1.266,2.882,1.577,2.92c0.256-0.104,0.542,0.018,0.647,0.273
						c0.104,0.255-0.024,0.548-0.279,0.653c-0.263,0.108-0.546,0.097-0.819-0.03c-0.342-0.16-0.662-0.524-0.943-0.962
						c-0.124,1.314-0.518,2.605-1.29,3.113C153.407,142.926,153.148,143.046,152.814,143.046z M153.419,138.185
						c-0.318,0-1.185,0.497-1.657,1.372c-0.456,0.844-0.314,1.579,0.421,2.183c0.537,0.442,0.767,0.29,0.841,0.241
						c0.641-0.422,0.968-2.355,0.863-3.839c-0.118,0.072-0.266,0.095-0.409,0.051C153.462,138.187,153.442,138.185,153.419,138.185z
						"/>
				</g>
				<g>
					<path style="fill:#E0E0E0;" d="M173.718,129.46c-0.177,0-0.349-0.094-0.44-0.261l0,0c-0.001-0.002-0.001-0.003-0.002-0.004
						l-3.972-7.279c-0.132-0.242-0.043-0.546,0.2-0.678c0.241-0.132,0.546-0.043,0.678,0.2l1.964,3.6
						c0.053-0.55,0.24-1.056,0.636-1.441c0.567-0.553,1.273-0.725,1.934-0.467c0.776,0.301,1.334,1.128,1.387,2.058
						c0.061,1.058-0.527,1.993-1.613,2.567c-0.244,0.129-0.547,0.036-0.675-0.209c-0.129-0.244-0.036-0.546,0.209-0.675
						c0.993-0.524,1.104-1.244,1.082-1.626c-0.031-0.529-0.347-1.026-0.751-1.184c-0.293-0.115-0.586-0.028-0.874,0.252
						c-0.92,0.896,0.206,3.545,0.675,4.405l0.001,0.003l0,0c0.132,0.242,0.043,0.546-0.2,0.678
						C173.881,129.44,173.799,129.46,173.718,129.46z"/>
				</g>
			</g>
			<g>
				<g>
					<path style="fill:#E0E0E0;" d="M202.208,237.107c-0.123,0-0.247-0.045-0.344-0.137l-5.65-5.346
						c-0.201-0.189-0.209-0.506-0.02-0.707c0.191-0.2,0.507-0.21,0.707-0.02l5.65,5.346c0.201,0.189,0.21,0.506,0.02,0.707
						C202.473,237.054,202.341,237.107,202.208,237.107z"/>
				</g>
				<g>
					<path style="fill:#E0E0E0;" d="M197.477,237.431c-0.096,0-0.192-0.027-0.278-0.085c-0.23-0.153-0.291-0.464-0.137-0.693
						l4.731-7.067c0.154-0.229,0.465-0.291,0.694-0.137c0.229,0.153,0.291,0.464,0.137,0.693l-4.731,7.067
						C197.796,237.353,197.638,237.431,197.477,237.431z"/>
				</g>
				<g>
					<path style="fill:#E0E0E0;" d="M207.765,232.393c-0.203,0-0.394-0.124-0.469-0.326c-0.096-0.259,0.036-0.546,0.294-0.642
						l5.652-2.102c0.26-0.095,0.546,0.035,0.643,0.295c0.096,0.259-0.036,0.546-0.294,0.643l-5.652,2.102
						C207.882,232.383,207.823,232.393,207.765,232.393z"/>
				</g>
				<g>
					<path style="fill:#E0E0E0;" d="M219.564,227.441c-0.118,0-0.236-0.041-0.332-0.126l-3.436-3.041
						c-0.207-0.183-0.226-0.499-0.043-0.705c0.184-0.208,0.5-0.228,0.706-0.043l3.436,3.041c0.207,0.183,0.226,0.499,0.043,0.705
						C219.839,227.385,219.702,227.441,219.564,227.441z"/>
				</g>
				<g>
					<path style="fill:#E0E0E0;" d="M217.846,235.681c-0.046,0-0.093-0.007-0.14-0.02c-0.265-0.078-0.417-0.355-0.34-0.62
						l4.353-14.938c0.077-0.266,0.354-0.414,0.62-0.341c0.265,0.078,0.417,0.355,0.34,0.62l-4.353,14.938
						C218.262,235.54,218.063,235.681,217.846,235.681z"/>
				</g>
			</g>
			<g>
				<g>
					<path style="fill:#E0E0E0;" d="M277.91,330.131c-0.124,0-0.247-0.045-0.344-0.137l-5.65-5.346
						c-0.201-0.189-0.21-0.506-0.02-0.707c0.19-0.2,0.507-0.209,0.707-0.02l5.65,5.346c0.201,0.189,0.21,0.506,0.02,0.707
						C278.175,330.078,278.043,330.131,277.91,330.131z"/>
				</g>
				<g>
					<path style="fill:#E0E0E0;" d="M273.179,330.456c-0.096,0-0.192-0.027-0.278-0.085c-0.23-0.153-0.291-0.464-0.137-0.693
						l4.731-7.067c0.154-0.229,0.464-0.291,0.694-0.137c0.229,0.153,0.291,0.464,0.137,0.693l-4.731,7.067
						C273.498,330.378,273.34,330.456,273.179,330.456z"/>
				</g>
				<g>
					<path style="fill:#E0E0E0;" d="M283.467,325.418c-0.203,0-0.394-0.124-0.469-0.326c-0.096-0.259,0.036-0.546,0.295-0.642
						l5.652-2.102c0.26-0.095,0.546,0.035,0.643,0.295c0.096,0.259-0.036,0.546-0.294,0.643l-5.652,2.102
						C283.583,325.408,283.525,325.418,283.467,325.418z"/>
				</g>
				<g>
					<path style="fill:#E0E0E0;" d="M295.266,320.466c-0.118,0-0.236-0.041-0.331-0.126l-3.437-3.042
						c-0.207-0.183-0.226-0.499-0.043-0.705c0.184-0.208,0.5-0.227,0.706-0.043l3.437,3.042c0.207,0.183,0.226,0.499,0.043,0.705
						C295.541,320.409,295.404,320.466,295.266,320.466z"/>
				</g>
				<g>
					<path style="fill:#E0E0E0;" d="M293.547,328.705c-0.046,0-0.093-0.007-0.14-0.02c-0.265-0.078-0.418-0.355-0.34-0.62
						l4.352-14.938c0.077-0.266,0.353-0.415,0.62-0.341c0.265,0.078,0.417,0.355,0.34,0.62l-4.353,14.939
						C293.964,328.563,293.764,328.705,293.547,328.705z"/>
				</g>
			</g>
			<g>
				<path style="fill:#E0E0E0;" d="M320.445,296.601c-0.206,0-0.42-0.021-0.638-0.071c-1.375-0.313-2.484-1.623-3.295-3.895
					c-1.568-4.391,0.264-7.132,1.62-8.449h-6.681l0.222,10.906c0.005,0.275-0.214,0.504-0.49,0.51
					c-0.26,0.007-0.504-0.213-0.51-0.49l-0.233-11.416c-0.002-0.134,0.049-0.264,0.143-0.359c0.094-0.097,0.223-0.15,0.357-0.15
					h8.628c0.228,0,0.426,0.154,0.483,0.374c0.057,0.221-0.042,0.452-0.241,0.564c-0.18,0.1-4.377,2.521-2.357,8.176
					c0.678,1.897,1.566,3.022,2.57,3.255c1.223,0.282,2.344-0.797,2.355-0.809c0.197-0.193,0.514-0.189,0.707,0.007
					c0.193,0.196,0.191,0.512-0.004,0.705C323.027,295.51,321.905,296.601,320.445,296.601z"/>
			</g>
			<g>
				<g>
					<path style="fill:#E0E0E0;" d="M241.663,276.403c-0.012,0-0.024,0-0.036-0.001l-11.777-0.858
						c-0.235-0.018-0.427-0.196-0.459-0.43l-2.312-16.604c-0.026-0.188,0.056-0.374,0.212-0.482l9.818-6.755
						c0.094-0.064,0.205-0.093,0.318-0.087l13.003,0.911c0.252,0.018,0.452,0.222,0.464,0.475l0.813,16.481
						c0.008,0.17-0.07,0.332-0.208,0.431l-9.544,6.824C241.868,276.371,241.767,276.403,241.663,276.403z M230.325,274.575
						l11.194,0.816l9.176-6.561l-0.777-15.766l-12.386-0.868l-9.42,6.481L230.325,274.575z"/>
				</g>
				<g>
					<path style="fill:#E0E0E0;" d="M229.886,275.545c-0.155,0-0.309-0.072-0.406-0.208c-0.161-0.224-0.11-0.536,0.114-0.698
						l9.505-6.844c0.095-0.067,0.212-0.104,0.329-0.093l11.817,0.878c0.275,0.021,0.482,0.261,0.462,0.536
						c-0.02,0.275-0.251,0.478-0.536,0.462l-11.635-0.865l-9.357,6.738C230.089,275.514,229.987,275.545,229.886,275.545z"/>
				</g>
				<g>
					<path style="fill:#E0E0E0;" d="M239.39,268.701c-0.249,0-0.465-0.186-0.496-0.439l-1.999-16.515
						c-0.033-0.274,0.163-0.523,0.436-0.557c0.277-0.04,0.524,0.163,0.557,0.436l1.999,16.515c0.033,0.274-0.163,0.523-0.437,0.557
						C239.43,268.7,239.41,268.701,239.39,268.701z"/>
				</g>
				<g>
					<path style="fill:#E0E0E0;" d="M240.548,260.443c-0.019,0-0.038-0.001-0.058-0.003l-12.975-1.502
						c-0.274-0.032-0.471-0.28-0.439-0.555c0.032-0.274,0.281-0.462,0.554-0.439l12.777,1.48l9.688-7.227
						c0.22-0.166,0.535-0.12,0.7,0.102c0.165,0.221,0.12,0.534-0.102,0.699l-9.847,7.346
						C240.76,260.409,240.655,260.443,240.548,260.443z"/>
				</g>
				<g>
					<path style="fill:#E0E0E0;" d="M241.662,276.403c-0.26,0-0.48-0.201-0.498-0.465l-1.115-15.96
						c-0.019-0.275,0.189-0.515,0.464-0.534c0.27-0.021,0.515,0.189,0.534,0.464l1.115,15.96c0.019,0.275-0.189,0.515-0.464,0.534
						C241.686,276.403,241.674,276.403,241.662,276.403z"/>
				</g>
			</g>
			<g>
				<g>
					<path style="fill:#E0E0E0;" d="M175.085,313.012c-0.096,0-0.192-0.027-0.275-0.082c-0.143-0.095-0.229-0.256-0.225-0.428
						l0.419-21.977c0.003-0.185,0.109-0.352,0.274-0.436c0.165-0.084,0.362-0.069,0.514,0.037l18.835,13.231
						c0.146,0.104,0.227,0.277,0.21,0.456c-0.017,0.178-0.128,0.334-0.292,0.408l-19.254,8.745
						C175.226,312.998,175.156,313.012,175.085,313.012z M175.986,291.485l-0.385,20.244l17.736-8.056L175.986,291.485z"/>
				</g>
				<g>
					<path style="fill:#E0E0E0;" d="M184.678,308.523c-0.18,0-0.354-0.098-0.443-0.268l-9.174-17.487
						c-0.128-0.245-0.034-0.547,0.21-0.675c0.246-0.129,0.547-0.033,0.675,0.21l9.174,17.487c0.128,0.245,0.034,0.547-0.21,0.675
						C184.836,308.505,184.756,308.523,184.678,308.523z"/>
				</g>
				<g>
					<path style="fill:#E0E0E0;" d="M186.938,307.63c-0.184,0-0.36-0.102-0.448-0.276l-1.275-2.547l-1.79,0.864
						c-0.247,0.123-0.547,0.016-0.667-0.232c-0.12-0.249-0.016-0.548,0.233-0.668l2.234-1.078c0.247-0.12,0.542-0.018,0.665,0.227
						l1.496,2.987c0.124,0.247,0.023,0.547-0.224,0.671C187.089,307.613,187.013,307.63,186.938,307.63z"/>
				</g>
			</g>
			<g>
				<g>
					<path style="fill:#E0E0E0;" d="M371.456,311.959c-0.134,0-0.267-0.054-0.366-0.159l-7.959-8.53
						c-0.188-0.201-0.177-0.518,0.024-0.706c0.203-0.188,0.518-0.178,0.707,0.024l7.96,8.53c0.189,0.201,0.177,0.518-0.024,0.706
						C371.701,311.914,371.578,311.959,371.456,311.959z"/>
				</g>
				<g>
					<path style="fill:#E0E0E0;" d="M364.83,311.438c-0.102,0-0.206-0.031-0.294-0.097c-0.223-0.162-0.271-0.475-0.109-0.698
						l6.689-9.157c0.163-0.223,0.476-0.274,0.699-0.108c0.223,0.162,0.271,0.476,0.109,0.698l-6.689,9.157
						C365.136,311.367,364.984,311.438,364.83,311.438z"/>
				</g>
				<g>
					<path style="fill:#E0E0E0;" d="M378.751,303.428h-4.494c-0.213,0-0.402-0.135-0.472-0.335c-0.07-0.201-0.005-0.425,0.162-0.557
						c0.809-0.643,2.851-2.601,2.582-3.925c-0.083-0.407-0.248-0.682-0.491-0.816c-0.372-0.205-0.909-0.081-1.085-0.015
						c-0.258,0.099-0.546-0.032-0.645-0.289c-0.098-0.257,0.028-0.544,0.285-0.644c0.107-0.042,1.072-0.396,1.92,0.068
						c0.516,0.281,0.85,0.784,0.995,1.496c0.295,1.45-0.978,3.043-1.949,4.016h3.193c0.276,0,0.5,0.224,0.5,0.5
						C379.251,303.205,379.027,303.428,378.751,303.428z"/>
				</g>
			</g>
			<g>
				<g>
					<path style="fill:#E0E0E0;" d="M116.141,147.582c-0.134,0-0.267-0.053-0.366-0.159l-7.96-8.531
						c-0.188-0.202-0.177-0.519,0.024-0.707c0.203-0.188,0.518-0.178,0.707,0.024l7.96,8.531c0.188,0.202,0.177,0.519-0.024,0.707
						C116.385,147.538,116.263,147.582,116.141,147.582z"/>
				</g>
				<g>
					<path style="fill:#E0E0E0;" d="M109.514,147.061c-0.102,0-0.206-0.031-0.294-0.096c-0.223-0.163-0.272-0.476-0.109-0.699
						l6.689-9.157c0.163-0.223,0.475-0.271,0.699-0.109c0.223,0.163,0.271,0.476,0.109,0.699l-6.689,9.157
						C109.82,146.99,109.669,147.061,109.514,147.061z"/>
				</g>
				<g>
					<path style="fill:#E0E0E0;" d="M123.436,139.051h-4.494c-0.213,0-0.402-0.135-0.472-0.335c-0.07-0.201-0.005-0.424,0.162-0.556
						c0.809-0.643,2.851-2.601,2.581-3.925c-0.083-0.407-0.248-0.682-0.491-0.816c-0.373-0.206-0.909-0.081-1.085-0.015
						c-0.254,0.094-0.546-0.032-0.644-0.29c-0.098-0.257,0.028-0.544,0.285-0.644c0.108-0.042,1.074-0.393,1.92,0.069
						c0.515,0.281,0.85,0.785,0.995,1.497c0.295,1.45-0.977,3.043-1.949,4.016h3.193c0.276,0,0.5,0.224,0.5,0.5
						S123.712,139.051,123.436,139.051z"/>
				</g>
			</g>
		</g>
	</g>
</g>
<g id="Background_Simple" style="display:none;">
	<g style="display:inline;">
		<path style="fill:#407BFF;" d="M84.543,120.637c27.919-59.449,127.059-51.062,165.317-9.255
			c38.258,41.806,50.696,68.599,85.208,52.983c34.512-15.616,78.518-11.44,81.043,38.164s-37.913,108.263-102.09,125.615
			c-64.177,17.352-64.161,78.759-149.1,66.368c-46.31-6.756-47.365-56.86-40.825-98.301S52.165,189.581,84.543,120.637z"/>
		<path style="opacity:0.9;fill:#FFFFFF;" d="M84.543,120.637c27.919-59.449,127.059-51.062,165.317-9.255
			c38.258,41.806,50.696,68.599,85.208,52.983c34.512-15.616,78.518-11.44,81.043,38.164s-37.913,108.263-102.09,125.615
			c-64.177,17.352-64.161,78.759-149.1,66.368c-46.31-6.756-47.365-56.86-40.825-98.301S52.165,189.581,84.543,120.637z"/>
	</g>
</g>
<g id="Shadow_1_">
	<ellipse id="_x3C_Path_x3E__359_" style="fill:#F5F5F5;" cx="250" cy="416.238" rx="193.889" ry="11.323"/>
</g>
<g id="Text">
	<g>
		<g>
			<path style="fill:#263238;" d="M291.809,148.617c0.288,0.066,0.288,0.476,0,0.541l-26.819,6.149l-1.28,0.3l-13.71,3.14
				l-41.81-9.589c-0.288-0.066-0.288-0.476,0-0.541l41.232-9.457c0.38-0.087,0.775-0.087,1.155,0l13.132,3.008l1.28,0.3
				L291.809,148.617z"/>
			<path style="fill:#263238;" d="M273.405,148.887c-0.461-1.554-10.76-2.797-23.405-2.797s-22.945,1.243-23.406,2.797h-0.022
				v19.624c0,0.367,0.298,0.664,0.664,0.664h45.526c0.367,0,0.664-0.298,0.664-0.664v-19.624H273.405z"/>
			<path style="opacity:0.2;fill:#FFFFFF;" d="M273.405,148.887c-0.461-1.554-10.76-2.797-23.405-2.797s-22.945,1.243-23.406,2.797
				h-0.022v19.624c0,0.367,0.298,0.664,0.664,0.664h45.526c0.367,0,0.664-0.298,0.664-0.664v-19.624H273.405z"/>
			<path style="opacity:0.2;fill:#FFFFFF;" d="M292.99,148.888l-2.18,0.5l-25.82-5.92l-1.28-0.3l-13.71-3.14l-40.81,9.36l-2.18-0.5
				l42.413-9.727c0.38-0.087,0.775-0.087,1.155,0l13.132,3.008l1.28,0.3L292.99,148.888z"/>
			<path style="fill:#407BFF;" d="M265.96,162.398v4.14h-0.33l-0.24-2.55l-0.25,2.55h-0.54l-0.25-2.55l-0.25,2.55h-0.54l-0.25-2.55
				l-0.24,2.55h-0.33v-4.14c0-0.66,0.4-1.22,0.97-1.47v-18.76l1.28,0.3v18.46C265.56,161.178,265.96,161.738,265.96,162.398z"/>
		</g>
		<g>
			<g>
				<path style="fill:#407BFF;" d="M139.889,200.994v4.757h-22.911v-30.548h22.3v4.757h-16.627v7.943h14.75v4.669h-14.75v8.422
					H139.889z"/>
				<path style="fill:#407BFF;" d="M146.218,175.203h13.354c9.906,0,16.67,6.11,16.67,15.274c0,9.164-6.764,15.274-16.67,15.274
					h-13.354V175.203z M159.311,200.951c6.808,0,11.215-4.146,11.215-10.474c0-6.328-4.408-10.474-11.215-10.474h-7.419v20.947
					H159.311z"/>
				<path style="fill:#407BFF;" d="M182.005,192.441v-17.238h5.673v17.02c0,6.284,2.836,8.99,7.768,8.99
					c4.932,0,7.725-2.706,7.725-8.99v-17.02h5.586v17.238c0,8.902-5.019,13.747-13.354,13.747
					C187.023,206.188,182.005,201.344,182.005,192.441z"/>
				<path style="fill:#407BFF;" d="M214.518,190.477c0-9.121,6.982-15.71,16.365-15.71c4.975,0,9.252,1.789,12.088,5.106
					l-3.665,3.447c-2.226-2.4-4.975-3.578-8.161-3.578c-6.328,0-10.91,4.451-10.91,10.735c0,6.284,4.582,10.735,10.91,10.735
					c3.186,0,5.935-1.178,8.161-3.622l3.665,3.491c-2.836,3.316-7.113,5.106-12.132,5.106
					C221.501,206.188,214.518,199.598,214.518,190.477z"/>
				<path style="fill:#407BFF;" d="M267.586,198.681h-15.274l-3.011,7.07h-5.848l13.747-30.548h5.586l13.791,30.548h-5.935
					L267.586,198.681z M265.71,194.23l-5.76-13.354l-5.717,13.354H265.71z"/>
				<path style="fill:#407BFF;" d="M285.132,180.004h-10.125v-4.801h25.922v4.801h-10.124v25.748h-5.673V180.004z"/>
				<path style="fill:#407BFF;" d="M305.207,175.203h5.673v30.548h-5.673V175.203z"/>
				<path style="fill:#407BFF;" d="M316.947,190.477c0-9.034,6.982-15.71,16.453-15.71c9.47,0,16.452,6.633,16.452,15.71
					c0,9.077-6.982,15.71-16.452,15.71C323.929,206.188,316.947,199.51,316.947,190.477z M344.135,190.477
					c0-6.241-4.582-10.735-10.735-10.735c-6.153,0-10.735,4.495-10.735,10.735c0,6.24,4.582,10.735,10.735,10.735
					C339.553,201.213,344.135,196.717,344.135,190.477z"/>
				<path style="fill:#407BFF;" d="M383.02,175.203v30.548h-4.669l-16.845-20.686v20.686h-5.63v-30.548h4.669l16.845,20.686v-20.686
					H383.02z"/>
			</g>
			<g style="opacity:0.3;">
				<path style="fill:#FFFFFF;" d="M139.889,200.994v4.757h-22.911v-30.548h22.3v4.757h-16.627v7.943h14.75v4.669h-14.75v8.422
					H139.889z"/>
				<path style="fill:#FFFFFF;" d="M146.218,175.203h13.354c9.906,0,16.67,6.11,16.67,15.274c0,9.164-6.764,15.274-16.67,15.274
					h-13.354V175.203z M159.311,200.951c6.808,0,11.215-4.146,11.215-10.474c0-6.328-4.408-10.474-11.215-10.474h-7.419v20.947
					H159.311z"/>
				<path style="fill:#FFFFFF;" d="M182.005,192.441v-17.238h5.673v17.02c0,6.284,2.836,8.99,7.768,8.99
					c4.932,0,7.725-2.706,7.725-8.99v-17.02h5.586v17.238c0,8.902-5.019,13.747-13.354,13.747
					C187.023,206.188,182.005,201.344,182.005,192.441z"/>
				<path style="fill:#FFFFFF;" d="M214.518,190.477c0-9.121,6.982-15.71,16.365-15.71c4.975,0,9.252,1.789,12.088,5.106
					l-3.665,3.447c-2.226-2.4-4.975-3.578-8.161-3.578c-6.328,0-10.91,4.451-10.91,10.735c0,6.284,4.582,10.735,10.91,10.735
					c3.186,0,5.935-1.178,8.161-3.622l3.665,3.491c-2.836,3.316-7.113,5.106-12.132,5.106
					C221.501,206.188,214.518,199.598,214.518,190.477z"/>
				<path style="fill:#FFFFFF;" d="M267.586,198.681h-15.274l-3.011,7.07h-5.848l13.747-30.548h5.586l13.791,30.548h-5.935
					L267.586,198.681z M265.71,194.23l-5.76-13.354l-5.717,13.354H265.71z"/>
				<path style="fill:#FFFFFF;" d="M285.132,180.004h-10.125v-4.801h25.922v4.801h-10.124v25.748h-5.673V180.004z"/>
				<path style="fill:#FFFFFF;" d="M305.207,175.203h5.673v30.548h-5.673V175.203z"/>
				<path style="fill:#FFFFFF;" d="M316.947,190.477c0-9.034,6.982-15.71,16.453-15.71c9.47,0,16.452,6.633,16.452,15.71
					c0,9.077-6.982,15.71-16.452,15.71C323.929,206.188,316.947,199.51,316.947,190.477z M344.135,190.477
					c0-6.241-4.582-10.735-10.735-10.735c-6.153,0-10.735,4.495-10.735,10.735c0,6.24,4.582,10.735,10.735,10.735
					C339.553,201.213,344.135,196.717,344.135,190.477z"/>
				<path style="fill:#FFFFFF;" d="M383.02,175.203v30.548h-4.669l-16.845-20.686v20.686h-5.63v-30.548h4.669l16.845,20.686v-20.686
					H383.02z"/>
			</g>
		</g>
	</g>
</g>
<g id="Globe">
	<g>
		<g>
			<rect x="377.082" y="385.363" style="fill:#263238;" width="6" height="19.739"/>
		</g>
		<g style="opacity:0.2;enable-background:new    ;">
			<rect x="377.082" y="385.363" style="fill:#FFFFFF;" width="6" height="19.739"/>
		</g>
		<g>
			<path style="fill:#263238;" d="M380.007,388.528c-9.104,0-18.293-2.185-26.753-6.72l2.835-5.288
				c21.47,11.508,48.192,6.093,63.538-12.88c10.771-13.307,14.125-30.982,8.971-47.281c-1.623-5.202-4.051-10.055-7.22-14.434
				c-2.624-3.659-5.753-6.969-9.305-9.847c-2.498-2.02-5.188-3.807-7.993-5.31l2.834-5.289c3.136,1.681,6.142,3.678,8.934,5.935
				c3.972,3.217,7.47,6.919,10.399,11.004c3.543,4.895,6.263,10.33,8.076,16.143c5.76,18.215,2.011,37.978-10.03,52.854
				C413.182,381.149,396.737,388.528,380.007,388.528z"/>
		</g>
		<g style="opacity:0.3;enable-background:new    ;">
			<path style="fill:#FFFFFF;" d="M380.007,388.528c-9.104,0-18.293-2.185-26.753-6.72l2.835-5.288
				c21.47,11.508,48.192,6.093,63.538-12.88c10.771-13.307,14.125-30.982,8.971-47.281c-1.623-5.202-4.051-10.055-7.22-14.434
				c-2.624-3.659-5.753-6.969-9.305-9.847c-2.498-2.02-5.188-3.807-7.993-5.31l2.834-5.289c3.136,1.681,6.142,3.678,8.934,5.935
				c3.972,3.217,7.47,6.919,10.399,11.004c3.543,4.895,6.263,10.33,8.076,16.143c5.76,18.215,2.011,37.978-10.03,52.854
				C413.182,381.149,396.737,388.528,380.007,388.528z"/>
		</g>
		<g>
			<path style="fill:#263238;" d="M351.307,386.812c-0.239,0-0.481-0.057-0.707-0.178c-0.73-0.392-1.005-1.301-0.613-2.031
				l57.547-107.347c0.391-0.729,1.3-1.005,2.03-0.613c0.73,0.392,1.005,1.301,0.613,2.031L352.63,386.021
				C352.36,386.525,351.842,386.812,351.307,386.812z"/>
		</g>
		<g style="opacity:0.4;enable-background:new    ;">
			<path style="fill:#FFFFFF;" d="M351.307,386.812c-0.239,0-0.481-0.057-0.707-0.178c-0.73-0.392-1.005-1.301-0.613-2.031
				l57.547-107.347c0.391-0.729,1.3-1.005,2.03-0.613c0.73,0.392,1.005,1.301,0.613,2.031L352.63,386.021
				C352.36,386.525,351.842,386.812,351.307,386.812z"/>
		</g>
		<g>
			<path style="fill:#263238;" d="M393.707,411.199h-27.25v-4.903c0-1.467,1.189-2.656,2.656-2.656h21.939
				c1.467,0,2.656,1.189,2.656,2.656V411.199z"/>
		</g>
		<g>
			<g>
				<path style="fill:#407BFF;" d="M382.33,287.822c24.201,1.243,42.813,21.869,41.57,46.07
					c-1.242,24.201-21.868,42.813-46.07,41.57c-24.201-1.243-42.813-21.869-41.57-46.07
					C337.503,305.191,358.129,286.579,382.33,287.822z"/>
				<path style="opacity:0.2;fill:#FFFFFF;" d="M423.898,333.892c-1.243,24.205-21.868,42.82-46.065,41.566
					c-9.341-0.471-17.86-3.842-24.704-9.199c-4.476-3.482-8.241-7.81-11.078-12.729c-4.082-7.07-6.243-15.372-5.794-24.136
					c1.244-24.195,21.868-42.82,46.074-41.577c3.995,0.207,7.841,0.94,11.458,2.138c4.502,1.47,8.657,3.644,12.357,6.396
					C417.583,304.791,424.687,318.642,423.898,333.892z"/>
				<path style="opacity:0.5;fill:#FFFFFF;" d="M405.641,295.973c-0.07-0.034-0.128-0.078-0.187-0.122
					c-0.147-0.119-0.285-0.208-0.403-0.275c-1.822-0.989-1.311,2.539-2.991,3.339c-1.794,0.844-4.67-0.647-4.311-1.688
					c0.349-1.051-3.056-3.923-3.959-4.387c-0.903-0.464-3.767-0.183-3.918,2.761c-0.141,2.955,1.505,4.78,1.051,5.694
					c-0.444,0.924-0.458,1.188-3.484,2.641c-3.027,1.453-5.222-0.4-7.048,1.247c-1.825,1.647,0.54,2.573-0.194,6.566
					c-0.755,3.993-1.809,1.129-4.01,1.566c-2.202,0.457-0.935-2.216-0.652-3.749c0.272-1.523-1.982-2.046-3.016-2.119
					c-1.055-0.075-3.501-0.424-3.179-3.523c0.311-3.089,0.156-6.008-4.092-5.758c-2.185,0.132-3.377-3.034-4.01-6.161
					c-11.061,5.275-19.637,15.066-23.207,27.119c0.226-0.049,0.434,0.266,0.749,1.067c0.981,2.503,1.932,4.995,3.198,6.526
					c1.265,1.531,1.561,3.297,1.028,4.552c-0.531,1.235-3.118,2.039-3.16,2.851c-0.04,0.792-2.472,1.96-2.85,2.785
					c-0.081,0.189-0.238,0.273-0.431,0.273c1.538,12.284,8.171,23.069,17.851,30.041c1.082-2.835,2.979-5.089,4.275-5.155
					c2.684-0.137,10.947-1.454,7.907-5.102c-3.04-3.648-6.289-6.97-6.289-6.97s1.661-2.409,2.145-2.71
					c0.494-0.31-1.098-1.217,1.687-1.522c2.786-0.325,3.04-0.322,1.836-1.657c-1.204-1.334-3.099-0.322-1.82-2.017
					c1.278-1.695,2.677-2.978,4.06-1.146c1.393,1.823,0.536,2.848,1.037,3.403c0.51,0.566,4.587-0.304,4.587-0.304
					s1.074,1.491,0.619,1.823c-0.466,0.343-2.078,2.805-2.078,2.805s-0.753,1.977-1.583,2.474c-0.839,0.487,2.295,3.681,3.237,4.167
					c0.953,0.476,1.329,0.893,2.144,0.68c0.816-0.233,2.377-1.894,2.943-2.404c0.566-0.511,3.994,0.734,3.994,0.734
					s2.077,1.186,3.613,2.608c1.546,1.413,3.566,1.12,4.271,0.484c0.705-0.636,0.662-2.379,1.975-1.782
					c1.312,0.617,1.78,1.222,2.703,4.455c0.922,3.254,6.283,7.906,5.648,9.951c4.054-2.225,7.713-5.102,10.849-8.473
					c-3.873-1.289-5.314-2.777-5.891-3.631c-0.747-1.107-0.309-1.116,0.112-2.967c0.41-1.842,3.951-3.004,4.517-3.514
					c0.566-0.511,3.327-3.932,4.669-4.291c1.342-0.359,1.251-2.155,1.251-2.155s0.25,0.471,0.801-0.722
					c0.559-1.183-0.049-2.415,1.776-4.062c1.067-0.963,2.774-1.497,4.031-1.778c0.24-1.495,0.388-3.003,0.467-4.547
					c0.14-2.721,0.033-5.394-0.322-7.998l-4.755,1.813c0,0-2.809-0.022-3.323-0.313c-0.524-0.302-2.997-1.905-4.92-0.925
					c-1.933,0.97-2.115-0.648-5.708-1.24c-3.604-0.582,1.768-5.681,2.611-6.442c0.843-0.761,0.955-0.359,3.429-1.565
					c2.485-1.216,2.011-3.093,2.011-3.093s-2.595-3.777-5.158-5.802c-2.358-1.862,1.041-2.044,6.85-3.741
					C412.066,301.311,409.039,298.406,405.641,295.973z M389.662,351.47c-0.837,1.266-1.99-0.247-1.99-0.247
					c-3.416-1.003-3.744-3.772-2.583-4.82c1.161-1.048,1.734-4.629,3.547-3.2c1.813,1.428,4.59,3.009,4.59,3.009
					s2.038-5.159,2.094-0.357c0.056,4.802,2.816,3.333,0.056,4.802C392.615,352.125,390.499,350.204,389.662,351.47z
					 M402.986,352.766c0.132,1.374-0.401,3.642-0.401,3.642l-2.623,1.345c-1.915-1.591-1.175-4.047-0.13-4.223
					C400.875,353.354,402.854,351.392,402.986,352.766z M398.304,315.694c0.664,1.302-1.378,2.152-3.634,5.465
					c-2.257,3.313-3.65,0.612-3.65,0.612s-4.578-3.658-3.089-5.256c1.488-1.599,0.37-3.716,2.572-4.939
					c1.366-0.759,2.724-0.095,3.994,1.313C395.766,314.296,397.64,314.392,398.304,315.694z"/>
			</g>
			<path style="opacity:0.2;fill:#FFFFFF;" d="M393.79,289.955c0.634,13.197-3.603,27.447-12.882,39.686
				c-10.27,13.546-24.586,21.814-38.857,23.888c-4.082-7.07-6.243-15.372-5.794-24.136c1.244-24.195,21.868-42.82,46.074-41.577
				C386.327,288.024,390.173,288.757,393.79,289.955z"/>
		</g>
		<g style="opacity:0.3;enable-background:new    ;">
			<path style="fill:#FFFFFF;" d="M393.707,411.199h-27.25v-4.903c0-1.467,1.189-2.656,2.656-2.656h21.939
				c1.467,0,2.656,1.189,2.656,2.656V411.199z"/>
		</g>
		<g>
			<path style="fill:#263238;" d="M402.891,409.76h-45.617c-1.713,0-3.101,1.388-3.101,3.101v5.088h51.819v-5.088
				C405.991,411.148,404.603,409.76,402.891,409.76z"/>
		</g>
		<g style="opacity:0.4;enable-background:new    ;">
			<path style="fill:#FFFFFF;" d="M402.891,409.76h-45.617c-1.713,0-3.101,1.388-3.101,3.101v5.088h51.819v-5.088
				C405.991,411.148,404.603,409.76,402.891,409.76z"/>
		</g>
	</g>
</g>
<g id="Books">
	<g>
		<g>
			
				<rect x="113.806" y="356.2" transform="matrix(-1 -1.224647e-16 1.224647e-16 -1 271.3275 731.3601)" style="fill:#407BFF;" width="43.715" height="18.961"/>
			
				<rect x="113.806" y="356.2" transform="matrix(-1 -1.224647e-16 1.224647e-16 -1 271.3275 731.3601)" style="opacity:0.8;fill:#FFFFFF;" width="43.715" height="18.961"/>
			<polygon style="opacity:0.2;enable-background:new    ;" points="154.014,358.055 113.806,358.055 113.806,356.2 153.972,356.2 
							"/>
			<g>
				<polygon style="opacity:0.2;enable-background:new    ;" points="154.016,359.672 117.741,360.445 154.016,361.219 				"/>
				<polygon style="opacity:0.2;enable-background:new    ;" points="154.016,366.682 115.603,367.331 154.016,367.876 				"/>
				<polygon style="opacity:0.2;enable-background:new    ;" points="154.016,370.784 115.945,371.554 154.016,372.324 				"/>
				<polygon style="opacity:0.2;enable-background:new    ;" points="113.806,362.373 150.636,363.485 113.806,364.255 				"/>
			</g>
			<path style="fill:#263238;" d="M211.37,365.582c-0.003,2.37-0.962,4.512-2.517,6.067c-1.557,1.557-3.704,2.517-6.078,2.517
				h-90.986c-0.35,0-0.633,0.284-0.633,0.633v0.68c0,0.35,0.284,0.633,0.633,0.633h91.46c2.906,0,5.546-1.181,7.453-3.088
				c1.924-1.924,3.109-4.588,3.087-7.532c-0.043-5.835-4.976-10.461-10.811-10.461l-91.189,0c-0.35,0-0.633,0.283-0.633,0.633v0.68
				c0,0.35,0.284,0.633,0.633,0.633h90.733C207.257,356.977,211.375,360.848,211.37,365.582z"/>
			<path style="opacity:0.4;fill:#FFFFFF;" d="M211.37,365.582c-0.003,2.37-0.962,4.512-2.517,6.067
				c-1.557,1.557-3.704,2.517-6.078,2.517h-90.986c-0.35,0-0.633,0.284-0.633,0.633v0.68c0,0.35,0.284,0.633,0.633,0.633h91.46
				c2.906,0,5.546-1.181,7.453-3.088c1.924-1.924,3.109-4.588,3.087-7.532c-0.043-5.835-4.976-10.461-10.811-10.461l-91.189,0
				c-0.35,0-0.633,0.283-0.633,0.633v0.68c0,0.35,0.284,0.633,0.633,0.633h90.733C207.257,356.977,211.375,360.848,211.37,365.582z"
				/>
			<g>
				<path style="fill:#407BFF;" d="M244.552,365.695L244.552,365.695c0,5.244-4.251,9.494-9.494,9.494h-81.042v-18.989h81.042
					C240.301,356.201,244.552,360.451,244.552,365.695z"/>
				<path style="opacity:0.7;fill:#FFFFFF;" d="M154.014,356.2v18.992h81.047c2.004,0,3.859-0.623,5.39-1.68
					c2.478-1.712,4.099-4.579,4.099-7.816c0-5.247-4.248-9.496-9.489-9.496H154.014z"/>
			</g>
			<g>
				<polygon style="opacity:0.2;enable-background:new    ;" points="154.016,361.219 154.016,359.672 234.797,360.32 				"/>
				<polygon style="opacity:0.2;enable-background:new    ;" points="154.016,367.876 154.016,366.682 190.28,367.98 				"/>
				<polygon style="opacity:0.2;enable-background:new    ;" points="154.016,372.324 154.016,370.784 212.486,371.675 				"/>
				<path style="opacity:0.2;enable-background:new    ;" d="M235.191,358.055c1.589,0,3.081,0.603,4.223,1.622
					c-0.46,0.908-0.895,1.952-1.193,3.081l-81.04,0.636l80.852,0.201c-0.117,0.642-0.195,1.304-0.195,1.978
					c0,0.798,0.104,1.583,0.272,2.342l-54.583,1.193l55.095,0.636c0.525,1.492,1.232,2.809,1.829,3.768
					c2.478-1.712,4.099-4.579,4.099-7.816c0-5.247-4.248-9.496-9.489-9.496h-81.047v1.855H235.191z"/>
			</g>
			<path style="fill:#263238;" d="M243.801,365.582c-0.003,2.37-0.962,4.512-2.517,6.067c-1.557,1.557-3.704,2.517-6.078,2.517
				h-82.554c-0.35,0-0.633,0.284-0.633,0.633v0.68c0,0.35,0.283,0.633,0.633,0.633h83.028c2.906,0,5.546-1.181,7.453-3.088
				c1.924-1.924,3.109-4.588,3.087-7.532c-0.043-5.835-4.976-10.461-10.811-10.461l-82.757,0c-0.35,0-0.633,0.283-0.633,0.633v0.68
				c0,0.35,0.283,0.633,0.633,0.633h82.301C239.688,356.977,243.807,360.848,243.801,365.582z"/>
			<polygon style="fill:#407BFF;" points="234.797,363.172 234.797,370.784 232.041,368.028 229.371,370.699 229.371,363.172 			"/>
		</g>
		<g>
			<g>
				
					<rect x="125.72" y="398.038" transform="matrix(-1 -1.224647e-16 1.224647e-16 -1 369.4249 815.0635)" style="fill:#407BFF;" width="117.984" height="18.989"/>
				
					<rect x="125.72" y="398.038" transform="matrix(-1 -1.224647e-16 1.224647e-16 -1 369.4249 815.0635)" style="opacity:0.7;fill:#FFFFFF;" width="117.984" height="18.989"/>
			</g>
			<g>
				<polygon style="opacity:0.2;enable-background:new    ;" points="125.72,403.056 125.72,401.509 206.502,402.157 				"/>
				<polygon style="opacity:0.2;enable-background:new    ;" points="125.72,409.713 125.72,408.519 161.985,409.817 				"/>
				<polygon style="opacity:0.2;enable-background:new    ;" points="125.72,414.161 125.72,412.621 184.191,413.512 				"/>
				<path style="opacity:0.2;enable-background:new    ;" d="M217.327,398.038l1.711,14.156l-2.018-2.155
					c-0.933,3.989-3.713,6.987-3.713,6.987s-1.876-2.332-2.978-5.447l-55.1-0.633l54.582-1.192
					c-0.163-0.763-0.268-1.549-0.268-2.346c0-0.674,0.074-1.334,0.194-1.974l-80.853-0.204l81.04-0.635
					c0.295-1.13,0.73-2.174,1.191-3.078c-1.137-1.023-2.631-1.622-4.223-1.622H125.72v-1.857H217.327z"/>
			</g>
			<path style="fill:#407BFF;" d="M215.506,407.419c-0.003,2.37-0.962,4.512-2.517,6.066c-1.557,1.557-3.704,2.517-6.078,2.517
				h-82.554c-0.35,0-0.633,0.283-0.633,0.633v0.68c0,0.35,0.283,0.633,0.633,0.633h128.432c2.906,0,5.546-1.181,7.453-3.087
				c1.924-1.924,3.109-4.588,3.087-7.532c-0.043-5.835-4.975-10.461-10.811-10.461H124.357c-0.35,0-0.633,0.284-0.633,0.633v0.68
				c0,0.35,0.283,0.633,0.633,0.633h82.301C211.393,398.814,215.512,402.685,215.506,407.419z"/>
			<path style="opacity:0.2;enable-background:new    ;" d="M215.506,407.419c-0.003,2.37-0.962,4.512-2.517,6.066
				c-1.557,1.557-3.704,2.517-6.078,2.517h-82.554c-0.35,0-0.633,0.283-0.633,0.633v0.68c0,0.35,0.283,0.633,0.633,0.633h128.432
				c2.906,0,5.546-1.181,7.453-3.087c1.924-1.924,3.109-4.588,3.087-7.532c-0.043-5.835-4.975-10.461-10.811-10.461H124.357
				c-0.35,0-0.633,0.284-0.633,0.633v0.68c0,0.35,0.283,0.633,0.633,0.633h82.301C211.393,398.814,215.512,402.685,215.506,407.419z
				"/>
			<path style="fill:#407BFF;" d="M215.506,407.419c-0.003,2.37-0.962,4.512-2.517,6.066c-1.557,1.557-3.704,2.517-6.078,2.517
				h-82.554c-0.35,0-0.633,0.283-0.633,0.633v0.68c0,0.35,0.283,0.633,0.633,0.633h83.028c2.906,0,5.546-1.181,7.453-3.087
				c1.924-1.924,3.109-4.588,3.087-7.532c-0.043-5.835-4.975-10.461-10.81-10.461h-82.757c-0.35,0-0.633,0.284-0.633,0.633v0.68
				c0,0.35,0.283,0.633,0.633,0.633h82.301C211.393,398.814,215.512,402.685,215.506,407.419z"/>
			<polygon style="fill:#407BFF;" points="206.502,405.009 206.502,412.621 203.746,409.865 201.076,412.535 201.076,405.009 			"/>
			<path style="opacity:0.2;fill:#FFFFFF;" d="M215.506,407.419c-0.003,2.37-0.962,4.512-2.517,6.066
				c-1.557,1.557-3.704,2.517-6.078,2.517h-82.554c-0.35,0-0.633,0.283-0.633,0.633v0.68c0,0.35,0.283,0.633,0.633,0.633h83.028
				c2.906,0,5.546-1.181,7.453-3.087c1.924-1.924,3.109-4.588,3.087-7.532c-0.043-5.835-4.975-10.461-10.81-10.461h-82.757
				c-0.35,0-0.633,0.284-0.633,0.633v0.68c0,0.35,0.283,0.633,0.633,0.633h82.301C211.393,398.814,215.512,402.685,215.506,407.419z
				"/>
		</g>
		<g>
			<g>
				
					<rect x="122.243" y="377.119" transform="matrix(-1 -1.224647e-16 1.224647e-16 -1 362.4696 773.2267)" style="fill:#407BFF;" width="117.984" height="18.989"/>
				
					<rect x="122.243" y="377.119" transform="matrix(-1 -1.224647e-16 1.224647e-16 -1 362.4696 773.2267)" style="opacity:0.8;fill:#FFFFFF;" width="117.984" height="18.989"/>
			</g>
			<g>
				<polygon style="opacity:0.2;enable-background:new    ;" points="122.243,382.137 122.243,380.59 203.024,381.239 				"/>
				<polygon style="opacity:0.2;enable-background:new    ;" points="122.243,388.794 122.243,387.601 158.507,388.898 				"/>
				<polygon style="opacity:0.2;enable-background:new    ;" points="122.243,393.242 122.243,391.703 180.713,392.594 				"/>
				<path style="opacity:0.2;enable-background:new    ;" d="M213.85,377.119l1.711,14.156l-2.018-2.155
					c-0.933,3.989-3.713,6.987-3.713,6.987s-1.875-2.332-2.978-5.447l-55.099-0.633l54.582-1.192
					c-0.163-0.763-0.268-1.549-0.268-2.346c0-0.674,0.074-1.334,0.194-1.975l-80.853-0.204l81.04-0.635
					c0.295-1.13,0.73-2.174,1.19-3.078c-1.137-1.023-2.631-1.622-4.223-1.622h-81.172v-1.857H213.85z"/>
			</g>
			<path style="fill:#407BFF;" d="M212.028,386.501c-0.003,2.37-0.962,4.512-2.517,6.067c-1.557,1.557-3.704,2.517-6.078,2.517
				H120.88c-0.35,0-0.633,0.283-0.633,0.633v0.68c0,0.35,0.284,0.633,0.633,0.633h121.946c2.906,0,5.546-1.181,7.453-3.087
				c1.924-1.924,3.109-4.588,3.087-7.532c-0.043-5.835-4.975-10.461-10.811-10.461H120.88c-0.35,0-0.633,0.283-0.633,0.633v0.68
				c0,0.35,0.284,0.633,0.633,0.633h82.301C207.915,377.895,212.034,381.766,212.028,386.501z"/>
			<path style="opacity:0.4;fill:#FFFFFF;" d="M212.028,386.501c-0.003,2.37-0.962,4.512-2.517,6.067
				c-1.557,1.557-3.704,2.517-6.078,2.517H120.88c-0.35,0-0.633,0.283-0.633,0.633v0.68c0,0.35,0.284,0.633,0.633,0.633h121.946
				c2.906,0,5.546-1.181,7.453-3.087c1.924-1.924,3.109-4.588,3.087-7.532c-0.043-5.835-4.975-10.461-10.811-10.461H120.88
				c-0.35,0-0.633,0.283-0.633,0.633v0.68c0,0.35,0.284,0.633,0.633,0.633h82.301C207.915,377.895,212.034,381.766,212.028,386.501z
				"/>
			<path style="fill:#407BFF;" d="M212.028,386.501c-0.003,2.37-0.962,4.512-2.517,6.067c-1.557,1.557-3.704,2.517-6.078,2.517
				H120.88c-0.35,0-0.633,0.283-0.633,0.633v0.68c0,0.35,0.284,0.633,0.633,0.633h83.028c2.906,0,5.546-1.181,7.453-3.087
				c1.924-1.924,3.109-4.588,3.087-7.532c-0.043-5.835-4.976-10.461-10.811-10.461H120.88c-0.35,0-0.633,0.283-0.633,0.633v0.68
				c0,0.35,0.284,0.633,0.633,0.633h82.301C207.915,377.895,212.034,381.766,212.028,386.501z"/>
			<polygon style="fill:#263238;" points="196.481,381.386 196.481,388.999 193.725,386.243 191.055,388.913 191.055,381.386 			"/>
			<path style="opacity:0.6;fill:#FFFFFF;" d="M212.028,386.501c-0.003,2.37-0.962,4.512-2.517,6.067
				c-1.557,1.557-3.704,2.517-6.078,2.517H120.88c-0.35,0-0.633,0.283-0.633,0.633v0.68c0,0.35,0.284,0.633,0.633,0.633h83.028
				c2.906,0,5.546-1.181,7.453-3.087c1.924-1.924,3.109-4.588,3.087-7.532c-0.043-5.835-4.976-10.461-10.811-10.461H120.88
				c-0.35,0-0.633,0.283-0.633,0.633v0.68c0,0.35,0.284,0.633,0.633,0.633h82.301C207.915,377.895,212.034,381.766,212.028,386.501z
				"/>
		</g>
		<g>
			
				<rect x="122.216" y="314.363" transform="matrix(-1 -1.224647e-16 1.224647e-16 -1 288.1465 647.6863)" style="fill:#407BFF;" width="43.715" height="18.961"/>
			
				<rect x="122.216" y="314.363" transform="matrix(-1 -1.224647e-16 1.224647e-16 -1 288.1465 647.6863)" style="opacity:0.7;fill:#FFFFFF;" width="43.715" height="18.961"/>
			<polygon style="opacity:0.2;enable-background:new    ;" points="162.424,316.218 122.216,316.218 122.216,314.363 
				162.381,314.363 			"/>
			<g>
				<polygon style="opacity:0.2;enable-background:new    ;" points="162.425,317.835 126.15,318.608 162.425,319.382 				"/>
				<polygon style="opacity:0.2;enable-background:new    ;" points="162.425,324.846 124.012,325.494 162.425,326.039 				"/>
				<polygon style="opacity:0.2;enable-background:new    ;" points="162.425,328.947 124.354,329.717 162.425,330.487 				"/>
				<polygon style="opacity:0.2;enable-background:new    ;" points="122.216,320.536 159.045,321.648 122.216,322.418 				"/>
			</g>
			<path style="fill:#407BFF;" d="M219.779,323.745c-0.003,2.37-0.962,4.512-2.517,6.067c-1.557,1.557-3.704,2.517-6.078,2.517
				h-90.986c-0.35,0-0.633,0.284-0.633,0.633v0.68c0,0.35,0.284,0.633,0.633,0.633h91.46c2.906,0,5.546-1.181,7.453-3.087
				c1.924-1.924,3.109-4.588,3.087-7.532c-0.043-5.835-4.976-10.461-10.811-10.461h-91.189c-0.35,0-0.633,0.284-0.633,0.633v0.68
				c0,0.35,0.284,0.633,0.633,0.633h90.733C215.666,315.14,219.785,319.011,219.779,323.745z"/>
			<path style="opacity:0.4;fill:#FFFFFF;" d="M219.779,323.745c-0.003,2.37-0.962,4.512-2.517,6.067
				c-1.557,1.557-3.704,2.517-6.078,2.517h-90.986c-0.35,0-0.633,0.284-0.633,0.633v0.68c0,0.35,0.284,0.633,0.633,0.633h91.46
				c2.906,0,5.546-1.181,7.453-3.087c1.924-1.924,3.109-4.588,3.087-7.532c-0.043-5.835-4.976-10.461-10.811-10.461h-91.189
				c-0.35,0-0.633,0.284-0.633,0.633v0.68c0,0.35,0.284,0.633,0.633,0.633h90.733C215.666,315.14,219.785,319.011,219.779,323.745z"
				/>
			<g>
				<path style="fill:#407BFF;" d="M252.962,323.858L252.962,323.858c0,5.243-4.251,9.494-9.494,9.494h-81.042v-18.989h81.042
					C248.711,314.364,252.962,318.614,252.962,323.858z"/>
				<path style="opacity:0.5;fill:#FFFFFF;" d="M162.424,314.363v18.992h81.047c2.004,0,3.859-0.623,5.39-1.68
					c2.478-1.712,4.099-4.579,4.099-7.816c0-5.247-4.248-9.496-9.49-9.496H162.424z"/>
			</g>
			<g>
				<polygon style="opacity:0.2;enable-background:new    ;" points="162.425,319.382 162.425,317.835 243.207,318.484 				"/>
				<polygon style="opacity:0.2;enable-background:new    ;" points="162.425,326.039 162.425,324.846 198.689,326.143 				"/>
				<polygon style="opacity:0.2;enable-background:new    ;" points="162.425,330.487 162.425,328.947 220.895,329.838 				"/>
				<path style="opacity:0.2;enable-background:new    ;" d="M243.6,316.218c1.589,0,3.081,0.603,4.223,1.622
					c-0.46,0.908-0.895,1.952-1.193,3.081l-81.04,0.636l80.852,0.201c-0.117,0.642-0.195,1.304-0.195,1.978
					c0,0.798,0.104,1.583,0.272,2.342l-54.583,1.193l55.095,0.636c0.526,1.492,1.233,2.809,1.829,3.769
					c2.478-1.712,4.099-4.579,4.099-7.816c0-5.247-4.248-9.496-9.49-9.496h-81.047v1.855H243.6z"/>
			</g>
			<path style="fill:#407BFF;" d="M252.211,323.745c-0.003,2.37-0.962,4.512-2.517,6.067c-1.557,1.557-3.704,2.517-6.078,2.517
				h-82.554c-0.35,0-0.633,0.284-0.633,0.633v0.68c0,0.35,0.283,0.633,0.633,0.633h83.028c2.906,0,5.546-1.181,7.453-3.087
				c1.924-1.924,3.109-4.588,3.087-7.532c-0.043-5.835-4.976-10.461-10.811-10.461h-82.757c-0.35,0-0.633,0.284-0.633,0.633v0.68
				c0,0.35,0.283,0.633,0.633,0.633h82.301C248.098,315.14,252.217,319.011,252.211,323.745z"/>
			<polygon style="fill:#407BFF;" points="243.207,321.335 243.207,328.947 240.451,326.192 237.781,328.862 237.781,321.335 			"/>
		</g>
		<g>
			<g>
				
					<rect x="125.493" y="335.282" transform="matrix(-1 -1.224647e-16 1.224647e-16 -1 368.9698 689.5529)" style="fill:#407BFF;" width="117.984" height="18.989"/>
				
					<rect x="125.493" y="335.282" transform="matrix(-1 -1.224647e-16 1.224647e-16 -1 368.9698 689.5529)" style="opacity:0.7;fill:#FFFFFF;" width="117.984" height="18.989"/>
			</g>
			<g>
				<polygon style="opacity:0.2;enable-background:new    ;" points="125.493,340.3 125.493,338.753 206.274,339.402 				"/>
				<polygon style="opacity:0.2;enable-background:new    ;" points="125.493,346.957 125.493,345.764 161.757,347.061 				"/>
				<polygon style="opacity:0.2;enable-background:new    ;" points="125.493,351.405 125.493,349.866 183.963,350.757 				"/>
				<path style="opacity:0.2;enable-background:new    ;" d="M217.1,335.282l1.711,14.156l-2.018-2.155
					c-0.933,3.989-3.713,6.987-3.713,6.987s-1.875-2.332-2.978-5.447l-55.1-0.633l54.582-1.192
					c-0.163-0.763-0.268-1.549-0.268-2.346c0-0.674,0.074-1.334,0.194-1.975l-80.853-0.204l81.041-0.635
					c0.295-1.13,0.73-2.173,1.19-3.078c-1.137-1.023-2.631-1.622-4.223-1.622h-81.172v-1.857H217.1z"/>
			</g>
			<path style="fill:#263238;" d="M215.278,344.664c-0.003,2.37-0.962,4.512-2.517,6.067c-1.557,1.557-3.704,2.517-6.078,2.517
				H124.13c-0.35,0-0.633,0.284-0.633,0.633v0.68c0,0.35,0.284,0.633,0.633,0.633h128.432c2.906,0,5.546-1.18,7.453-3.087
				c1.924-1.924,3.109-4.588,3.087-7.532c-0.043-5.835-4.975-10.461-10.811-10.461H124.13c-0.35,0-0.633,0.284-0.633,0.633v0.68
				c0,0.35,0.284,0.633,0.633,0.633h82.301C211.165,336.058,215.284,339.929,215.278,344.664z"/>
			<path style="opacity:0.2;fill:#FFFFFF;" d="M215.278,344.664c-0.003,2.37-0.962,4.512-2.517,6.067
				c-1.557,1.557-3.704,2.517-6.078,2.517H124.13c-0.35,0-0.633,0.284-0.633,0.633v0.68c0,0.35,0.284,0.633,0.633,0.633h128.432
				c2.906,0,5.546-1.18,7.453-3.087c1.924-1.924,3.109-4.588,3.087-7.532c-0.043-5.835-4.975-10.461-10.811-10.461H124.13
				c-0.35,0-0.633,0.284-0.633,0.633v0.68c0,0.35,0.284,0.633,0.633,0.633h82.301C211.165,336.058,215.284,339.929,215.278,344.664z
				"/>
			<path style="fill:#263238;" d="M215.278,344.664c-0.003,2.37-0.962,4.512-2.517,6.067c-1.557,1.557-3.704,2.517-6.078,2.517
				H124.13c-0.35,0-0.633,0.284-0.633,0.633v0.68c0,0.35,0.284,0.633,0.633,0.633h83.028c2.906,0,5.546-1.18,7.453-3.087
				c1.924-1.924,3.109-4.588,3.087-7.532c-0.043-5.835-4.975-10.461-10.811-10.461H124.13c-0.35,0-0.633,0.284-0.633,0.633v0.68
				c0,0.35,0.284,0.633,0.633,0.633h82.301C211.165,336.058,215.284,339.929,215.278,344.664z"/>
			<polygon style="fill:#263238;" points="206.274,342.253 206.274,349.866 203.519,347.11 200.848,349.78 200.848,342.253 			"/>
			<path style="opacity:0.4;fill:#FFFFFF;" d="M215.278,344.664c-0.003,2.37-0.962,4.512-2.517,6.067
				c-1.557,1.557-3.704,2.517-6.078,2.517H124.13c-0.35,0-0.633,0.284-0.633,0.633v0.68c0,0.35,0.284,0.633,0.633,0.633h83.028
				c2.906,0,5.546-1.18,7.453-3.087c1.924-1.924,3.109-4.588,3.087-7.532c-0.043-5.835-4.975-10.461-10.811-10.461H124.13
				c-0.35,0-0.633,0.284-0.633,0.633v0.68c0,0.35,0.284,0.633,0.633,0.633h82.301C211.165,336.058,215.284,339.929,215.278,344.664z
				"/>
		</g>
	</g>
</g>
<g id="Character_2">
	<g id="_x3C_Group_x3E__1_">
		<polygon style="fill:#E4897B;" points="356.986,403.701 363.368,403.904 369.259,404.083 370.324,412.451 362.845,412.666 
			355.682,412.878 		"/>
		<polygon style="opacity:0.2;enable-background:new    ;" points="356.986,403.701 363.368,403.904 362.845,412.666 
			355.682,412.878 		"/>
		<g>
			<path style="fill:#407BFF;" d="M370.459,402.757c-0.255,0.639-0.58,1.248-0.969,1.816c-0.034,0.061-0.104,0.094-0.173,0.08
				c-0.068-0.014-0.124-0.063-0.148-0.129c-0.075-0.288-0.701-2.832-0.036-3.585c0.156-0.171,0.39-0.25,0.618-0.209
				c0.368,0.003,0.701,0.217,0.855,0.551C370.744,401.774,370.691,402.301,370.459,402.757z M369.431,401.187
				c-0.357,0.401-0.201,1.814,0.018,2.843c0.728-1.187,1.038-2.142,0.835-2.603c-0.111-0.202-0.319-0.332-0.55-0.341
				C369.623,401.064,369.508,401.102,369.431,401.187L369.431,401.187z"/>
			<path style="fill:#407BFF;" d="M369.507,404.538c0.004,0.026-0.001,0.052-0.016,0.074c-0.046,0.038-0.106,0.054-0.164,0.043
				c-0.063-0.023-2.208-0.634-2.643-1.611c-0.107-0.259-0.095-0.551,0.034-0.8c0.119-0.29,0.42-0.463,0.73-0.418
				c0.838,0.129,1.941,1.754,2.097,2.623C369.546,404.483,369.532,404.515,369.507,404.538z M367.025,402.494
				c-0.052,0.134-0.045,0.284,0.019,0.412c0.254,0.589,1.414,1.078,2.094,1.31c-0.294-0.811-1.169-1.911-1.718-2.027
				c-0.102-0.022-0.242-0.003-0.359,0.225L367.025,402.494z"/>
			<path style="opacity:0.6;fill:#FFFFFF;" d="M370.459,402.757c-0.255,0.639-0.58,1.248-0.969,1.816
				c-0.034,0.061-0.104,0.094-0.173,0.08c-0.068-0.014-0.124-0.063-0.148-0.129c-0.075-0.288-0.701-2.832-0.036-3.585
				c0.156-0.171,0.39-0.25,0.618-0.209c0.368,0.003,0.701,0.217,0.855,0.551C370.744,401.774,370.691,402.301,370.459,402.757z
				 M369.431,401.187c-0.357,0.401-0.201,1.814,0.018,2.843c0.728-1.187,1.038-2.142,0.835-2.603
				c-0.111-0.202-0.319-0.332-0.55-0.341C369.623,401.064,369.508,401.102,369.431,401.187L369.431,401.187z"/>
			<path style="opacity:0.6;fill:#FFFFFF;" d="M369.507,404.538c0.004,0.026-0.001,0.052-0.016,0.074
				c-0.046,0.038-0.106,0.054-0.164,0.043c-0.063-0.023-2.208-0.634-2.643-1.611c-0.107-0.259-0.095-0.551,0.034-0.8
				c0.119-0.29,0.42-0.463,0.73-0.418c0.838,0.129,1.941,1.754,2.097,2.623C369.546,404.483,369.532,404.515,369.507,404.538z
				 M367.025,402.494c-0.052,0.134-0.045,0.284,0.019,0.412c0.254,0.589,1.414,1.078,2.094,1.31
				c-0.294-0.811-1.169-1.911-1.718-2.027c-0.102-0.022-0.242-0.003-0.359,0.225L367.025,402.494z"/>
			<path style="fill:#263238;" d="M368.294,404.844l-2.991,8.037c-0.117,0.276,0.012,0.594,0.287,0.711
				c0.003,0.001,0.005,0.002,0.008,0.003l6.219,2.76c0.693,0.258,1.465-0.09,1.731-0.78c0.998-2.821,1.334-4.218,2.622-7.765
				c0.802-2.173,2.592-6.391,3.221-9.534c0.629-3.143-2.495-3.68-3.038-2.405c-1.302,3.019-4.854,6.465-7.189,7.894
				C368.763,404.018,368.457,404.398,368.294,404.844z"/>
		</g>
		<path style="fill:#263238;" d="M293.429,390.77l3.71,3.827c0,0,42.226,4.069,65.132,8.206l-2.91,14.376h-77.841L293.429,390.77z"
			/>
		<path style="opacity:0.2;fill:#FFFFFF;enable-background:new    ;" d="M293.429,390.77l3.71,3.827c0,0,42.226,4.069,65.132,8.206
			l-2.91,14.376h-77.841L293.429,390.77z"/>
		<polygon style="fill:#E4897B;" points="338.691,398.525 340.659,404.6 342.482,410.203 334.968,414.037 332.236,407.072 
			329.613,400.403 		"/>
		<g>
			<path style="fill:#407BFF;" d="M343.844,410.596c-0.686-0.059-1.363-0.194-2.019-0.401c-0.069-0.015-0.12-0.072-0.126-0.142
				c-0.006-0.069,0.024-0.137,0.08-0.179c0.254-0.155,2.508-1.492,3.421-1.073c0.209,0.1,0.352,0.301,0.379,0.531
				c0.104,0.353-0.005,0.733-0.28,0.978C344.867,410.584,344.348,410.686,343.844,410.596z M345.049,409.157
				c-0.487-0.226-1.795,0.334-2.716,0.841c1.347,0.353,2.351,0.373,2.733,0.045c0.161-0.165,0.225-0.402,0.167-0.625
				C345.222,409.305,345.152,409.206,345.049,409.157L345.049,409.157z"/>
			<path style="fill:#407BFF;" d="M341.864,410.201c-0.023,0.012-0.051,0.014-0.076,0.006c-0.05-0.033-0.082-0.086-0.089-0.145
				c0.004-0.067-0.033-2.297,0.777-2.996c0.216-0.177,0.5-0.25,0.775-0.199c0.312,0.03,0.565,0.268,0.612,0.578
				c0.119,0.84-1.116,2.366-1.903,2.767C341.928,410.223,341.893,410.218,341.864,410.201z M343.101,407.233
				c-0.143-0.011-0.284,0.039-0.389,0.138c-0.49,0.414-0.622,1.666-0.647,2.384c0.691-0.517,1.49-1.673,1.443-2.232
				c-0.009-0.104-0.067-0.233-0.319-0.278L343.101,407.233z"/>
			<path style="opacity:0.6;fill:#FFFFFF;" d="M343.844,410.596c-0.686-0.059-1.363-0.194-2.019-0.401
				c-0.069-0.015-0.12-0.072-0.126-0.142c-0.006-0.069,0.024-0.137,0.08-0.179c0.254-0.155,2.508-1.492,3.421-1.073
				c0.209,0.1,0.352,0.301,0.379,0.531c0.104,0.353-0.005,0.733-0.28,0.978C344.867,410.584,344.348,410.686,343.844,410.596z
				 M345.049,409.157c-0.487-0.226-1.795,0.334-2.716,0.841c1.347,0.353,2.351,0.373,2.733,0.045
				c0.161-0.165,0.225-0.402,0.167-0.625C345.222,409.305,345.152,409.206,345.049,409.157L345.049,409.157z"/>
			<path style="opacity:0.6;fill:#FFFFFF;" d="M341.864,410.201c-0.023,0.012-0.051,0.014-0.076,0.006
				c-0.05-0.033-0.082-0.086-0.089-0.145c0.004-0.067-0.033-2.297,0.777-2.996c0.216-0.177,0.5-0.25,0.775-0.199
				c0.312,0.03,0.565,0.268,0.612,0.578c0.119,0.84-1.116,2.366-1.903,2.767C341.928,410.223,341.893,410.218,341.864,410.201z
				 M343.101,407.233c-0.143-0.011-0.284,0.039-0.389,0.138c-0.49,0.414-0.622,1.666-0.647,2.384
				c0.691-0.517,1.49-1.673,1.443-2.232c-0.009-0.104-0.067-0.233-0.319-0.278L343.101,407.233z"/>
			<path style="fill:#263238;" d="M341.22,409.129l-8.559-0.534c-0.298-0.032-0.565,0.183-0.597,0.481
				c0,0.003-0.001,0.006-0.001,0.009l-0.84,6.752c-0.046,0.738,0.51,1.376,1.248,1.431c2.99,0.138,4.424,0.054,8.192,0.26
				c2.312,0.138,6.868,0.63,10.058,0.321c3.19-0.309,2.799-3.454,1.422-3.604c-3.267-0.372-7.594-2.773-9.638-4.594
				C342.146,409.339,341.694,409.155,341.22,409.129z"/>
		</g>
		<polygon style="opacity:0.2;enable-background:new    ;" points="338.691,398.525 340.659,404.6 332.236,407.072 329.613,400.403 
					"/>
		<path style="fill:#E4897B;" d="M315.587,356.248l-2.07-0.579c-0.779-0.218-1.614-0.046-2.244,0.461l-2.941,2.371
			c-1.176,0.948-1.82,2.406-1.728,3.914l0.057,0.933c3.367,1.196,7.888,0.007,7.888,0.007l1.326-0.196
			c1.181-0.175,1.973-1.191,1.819-2.335l-0.354-2.633C317.217,357.282,316.52,356.509,315.587,356.248z"/>
		<path style="opacity:0.1;enable-background:new    ;" d="M315.587,356.248l-2.07-0.579c-0.779-0.218-1.614-0.046-2.244,0.461
			l-2.941,2.371c-1.176,0.948-1.82,2.406-1.728,3.914l0.057,0.933c3.367,1.196,7.888,0.007,7.888,0.007l1.326-0.196
			c1.181-0.175,1.973-1.191,1.819-2.335l-0.354-2.633C317.217,357.282,316.52,356.509,315.587,356.248z"/>
		<path style="fill:#263238;" d="M251.75,396.442c0,0-2.722,20.737,22.35,20.737c25.823,0,23.471-17.697,18.335-28.216
			L251.75,396.442z"/>
		<path style="opacity:0.4;fill:#FFFFFF;enable-background:new    ;" d="M251.75,396.442c0,0-2.722,20.737,22.35,20.737
			c25.823,0,23.471-17.697,18.335-28.216L251.75,396.442z"/>
		<path style="fill:#E4897B;" d="M280.523,345.906l7.845,4.606c2.601,1.517,5.245,3.046,7.758,4.268
			c0.32,0.168,0.609,0.289,0.907,0.425l0.444,0.202l0.377,0.143c0.264,0.113,0.49,0.184,0.701,0.248
			c0.22,0.076,0.576,0.127,0.858,0.207c1.301,0.27,2.79,0.444,4.272,0.637c2.979,0.357,6.065,0.698,9.121,1.139l0.039,0.006
			c1.199,0.173,2.031,1.286,1.858,2.485c-0.134,0.927-0.835,1.636-1.698,1.829c-3.135,0.693-6.247,1.153-9.463,1.394
			c-1.615,0.127-3.226,0.18-5.005,0.108c-0.483-0.038-0.901-0.059-1.439-0.14l-0.81-0.135c-0.257-0.056-0.492-0.126-0.738-0.191
			l-0.732-0.203l-0.639-0.217c-0.424-0.145-0.863-0.29-1.247-0.447c-3.175-1.242-5.992-2.663-8.808-4.149
			c-2.801-1.507-5.495-3.074-8.192-4.791c-2.034-1.294-2.633-3.992-1.339-6.026c1.265-1.987,3.869-2.605,5.885-1.425
			L280.523,345.906z"/>
		<path style="opacity:0.1;enable-background:new    ;" d="M280.523,345.195l7.845,4.606c2.601,1.517,5.245,3.046,7.758,4.267
			c0.32,0.168,0.609,0.29,0.907,0.425l0.444,0.202l0.377,0.143c0.264,0.113,0.49,0.184,0.701,0.248
			c0.22,0.076,0.576,0.127,0.858,0.207c1.301,0.27,2.79,0.444,4.272,0.637c2.979,0.356,6.065,0.698,9.121,1.139l0.039,0.006
			c1.199,0.173,2.031,1.286,1.858,2.485c-0.134,0.927-0.835,1.636-1.698,1.829c-3.135,0.693-6.247,1.153-9.463,1.395
			c-1.615,0.127-3.226,0.18-5.005,0.108c-0.483-0.038-0.901-0.059-1.439-0.14l-0.81-0.135c-0.257-0.056-0.492-0.126-0.738-0.191
			l-0.732-0.203l-0.639-0.217c-0.424-0.145-0.863-0.29-1.247-0.447c-3.175-1.242-5.992-2.663-8.808-4.149
			c-2.801-1.507-5.495-3.074-8.192-4.791c-2.034-1.294-2.633-3.992-1.339-6.026c1.265-1.987,3.869-2.605,5.885-1.425
			L280.523,345.195z"/>
		<g>
			<path style="fill:#407BFF;" d="M293.87,352.546l-5.08,10.28c0,0-0.07-0.01-0.2-0.04c-0.06-0.01-0.15-0.03-0.25-0.04v-0.01h-0.04
				c0,0-0.01-0.01-0.02-0.01c-0.33-0.06-0.81-0.16-1.4-0.31c-0.18-0.03-0.38-0.08-0.58-0.13c-0.04-0.02-0.09-0.03-0.14-0.04
				c-0.2-0.05-0.41-0.1-0.62-0.16c-0.27-0.07-0.54-0.15-0.82-0.23c-1.53-0.43-3.26-1.01-4.73-1.72c-0.25-0.14-0.51-0.27-0.74-0.41
				c-0.52-0.28-0.98-0.59-1.36-0.91c-0.07-0.05-0.12-0.11-0.17-0.17c-0.04-0.03-0.08-0.07-0.12-0.11c-0.07-0.07-0.15-0.17-0.21-0.26
				c-0.05-0.06-0.1-0.13-0.15-0.2c-0.04-0.05-0.07-0.1-0.11-0.17c-0.07-0.11-0.15-0.22-0.22-0.35c-0.07-0.13-0.14-0.27-0.22-0.41
				c-0.07-0.14-0.14-0.29-0.21-0.44c-0.02-0.03-0.03-0.08-0.05-0.12v-0.01c-0.06-0.11-0.1-0.22-0.15-0.33
				c-0.06-0.16-0.13-0.32-0.19-0.5c-0.06-0.17-0.13-0.33-0.18-0.5c-0.06-0.19-0.13-0.37-0.18-0.55c-1.54-5.04-3.79-11.66-1.12-11.66
				c9.01,0,15.78,6.49,18.44,8.78C293.58,352.276,293.87,352.546,293.87,352.546z"/>
			<path style="opacity:0.2;enable-background:new    ;" d="M288.34,362.736h-0.04c0,0-0.01-0.01-0.02-0.01
				c-0.33-0.06-0.81-0.16-1.4-0.31c-0.18-0.03-0.38-0.08-0.58-0.13c-0.04-0.02-0.09-0.03-0.14-0.04c-0.2-0.05-0.41-0.1-0.62-0.16
				c-0.27-0.07-0.54-0.15-0.82-0.23c-1.53-0.43-3.26-1.01-4.73-1.72c-0.25-0.14-0.51-0.27-0.74-0.41c-0.52-0.28-0.98-0.59-1.36-0.91
				c-0.07-0.05-0.12-0.11-0.17-0.17c-0.04-0.03-0.08-0.07-0.12-0.11c-0.07-0.07-0.15-0.17-0.21-0.26c-0.05-0.06-0.1-0.13-0.15-0.2
				c-0.04-0.05-0.07-0.1-0.11-0.17c-0.07-0.11-0.15-0.22-0.22-0.35c-0.07-0.13-0.14-0.27-0.22-0.41c-0.07-0.14-0.14-0.29-0.21-0.44
				c-0.02-0.03-0.03-0.08-0.05-0.12v-0.01l2.06-9.47c0,0,7.86,6.08,9.83,15.54C288.33,362.676,288.34,362.706,288.34,362.736z"/>
		</g>
		<g>
			<path style="fill:#407BFF;" d="M248.734,398.81c0,0-4.321-33.192-2.88-40.362c1.441-7.171,4.228-17.099,28.761-15.414
				c0,0,9.385,0.943,10.701,11.243c1.316,10.3,8.113,36.497,8.113,36.497L248.734,398.81z"/>
			<path style="opacity:0.6;fill:#FFFFFF;" d="M293.43,390.766l-44.69,8.05c0,0-4.33-33.21-2.88-40.36
				c1.23-6.12,3.43-14.26,19.32-15.45c2.72-0.21,5.85-0.21,9.44,0.04c0,0,8.53,0.85,10.46,9.86c0.1,0.44,0.18,0.89,0.24,1.37
				c0.39,3.03,1.25,7.43,2.27,12.14c0.07,0.33,0.15,0.67,0.23,1.01c0.16,0.76,0.33,1.53,0.5,2.31c0.44,1.92,0.88,3.85,1.33,5.72
				c0.15,0.64,0.3,1.28,0.45,1.9c0.09,0.43,0.2,0.85,0.3,1.27C292.05,385.446,293.43,390.766,293.43,390.766z"/>
		</g>
		<path style="opacity:0.2;enable-background:new    ;" d="M289.65,375.456c-27.2,5.91-36.96-12.8-36.96-12.8s1.02-1.91,2.53-4.04
			c0.65,0.77,1.37,1.49,2.19,2.14c3.37,2.66,7.67,3.98,11.7,5.3c5.3,1.75,12.47,2.5,18.71,1.37c0.16,0.76,0.33,1.53,0.5,2.31
			C288.76,371.656,289.2,373.586,289.65,375.456z"/>
		<g>
			<path style="fill:#DC897C;" d="M260.617,358.108c1.43,0.846,3.088,1.816,4.686,2.641c1.614,0.853,3.237,1.687,4.887,2.434
				c1.652,0.746,3.315,1.411,4.978,2.032c1.671,0.59,3.337,1.085,4.998,1.471l-0.833-0.049c0.314-0.037,0.56-0.008,0.941-0.066
				c0.388-0.07,0.748-0.097,1.167-0.183l1.255-0.258l1.296-0.322c1.743-0.471,3.533-0.982,5.318-1.555
				c1.792-0.562,3.589-1.153,5.395-1.748l5.423-1.786l0.013-0.004c1.143-0.377,2.375,0.245,2.752,1.388
				c0.316,0.959-0.073,1.982-0.881,2.508c-1.663,1.082-3.343,2.043-5.045,3.019c-1.709,0.952-3.449,1.854-5.22,2.724
				c-1.781,0.849-3.592,1.677-5.496,2.408l-1.453,0.533l-1.525,0.492c-0.507,0.166-1.097,0.289-1.647,0.425
				c-0.559,0.134-1.277,0.209-1.914,0.298c-0.163,0.023-0.323,0.022-0.479,0.001l-0.355-0.05c-2.139-0.299-4.229-0.725-6.238-1.31
				c-2.006-0.581-3.968-1.256-5.858-2.05c-1.892-0.79-3.757-1.62-5.563-2.558c-0.9-0.475-1.793-0.961-2.679-1.47
				c-0.905-0.509-1.726-1.017-2.683-1.648c-2.011-1.328-2.566-4.034-1.238-6.045c1.286-1.948,3.865-2.529,5.853-1.358
				L260.617,358.108z"/>
		</g>
		<path style="fill:#407BFF;" d="M247.703,354.703c0.242-2.837,3.012-8.395,11.176-9.86l2.781,3.336c0,0-0.678,4.583,1.228,5.813
			c5.512,3.557,10.647,8.495,10.647,8.495l-4.944,11.388C268.591,373.875,246.488,368.927,247.703,354.703z"/>
		<path style="fill:#407BFF;" d="M261.026,343.514c-3.115,0.538-3.432,1.724-2.311,3.174c1.121,1.451,6.922,4.7,12.263,1.889
			C276.319,345.766,273.689,341.33,261.026,343.514z"/>
		<path style="fill:#407BFF;" d="M285.08,352.906c-5.14-5.44-12.8-7.17-12.8-7.17s-12.83,0.18-7.1-2.73
			c2.72-0.21,5.85-0.21,9.44,0.04C274.62,343.046,283.15,343.896,285.08,352.906z"/>
		<g>
			<path style="fill:#E4897B;" d="M257.106,331.456c0,0,1.617,3.579,2.352,7.273c0.37,1.778,0.527,3.565,0.238,5.095
				c0,0-1.22,3.224,4.326,4.184c3.294,0.57,8.257-0.209,8.257-3.462l-2.305-0.344c0,0-0.074-0.165-0.171-0.461
				c-0.443-1.28-1.477-5.398,1.788-7.96C276.084,332.241,257.106,331.456,257.106,331.456z"/>
			<path style="opacity:0.2;enable-background:new    ;" d="M257.106,331.456c0,0,1.617,3.579,2.352,7.273
				c2.986,2.557,6.535,4.806,10.345,5.012c-0.443-1.28-1.477-5.398,1.788-7.96C276.084,332.241,257.106,331.456,257.106,331.456z"/>
		</g>
		<g>
			<path style="fill:#263238;" d="M278.876,313.502c0,0,4.403,4.424,1.843,10.161c-2.56,5.737-9.494-7.169-9.494-7.169
				L278.876,313.502z"/>
			<path style="fill:#E4897B;" d="M254.45,323.61c1.676,8.173,2.188,13.04,7.433,16.624c7.898,5.414,18.836,0.108,19.944-8.421
				c1.036-7.679-1.901-19.737-11.42-21.799C260.888,307.952,252.775,315.447,254.45,323.61z"/>
			<path style="fill:#263238;" d="M269.002,326.663c0.046,0.831,0.529,1.489,1.076,1.449c0.547-0.039,0.941-0.737,0.895-1.568
				c-0.046-0.831-0.531-1.477-1.076-1.449C269.352,325.123,268.956,325.832,269.002,326.663z"/>
			<path style="fill:#263238;" d="M277.41,324.766c0.046,0.831,0.529,1.489,1.076,1.449c0.547-0.04,0.941-0.737,0.895-1.568
				c-0.046-0.831-0.531-1.477-1.076-1.449C277.76,323.226,277.365,323.935,277.41,324.766z"/>
			<path style="fill:#263238;" d="M270.475,320.57c0.062-0.082,0.101-0.179,0.111-0.282c-0.018-0.27-0.247-0.477-0.517-0.467
				c-1.58,0.03-3.045,0.834-3.919,2.15c-0.137,0.233-0.059,0.533,0.174,0.67l0,0c0.235,0.124,0.526,0.049,0.67-0.174l0,0
				c0.718-1.035,1.898-1.651,3.157-1.649C270.289,320.783,270.405,320.694,270.475,320.57z"/>
			<path style="fill:#263238;" d="M280.746,319.545c0.099-0.03,0.187-0.086,0.256-0.163c0.144-0.229,0.081-0.531-0.143-0.682
				c-1.294-0.906-2.952-1.12-4.434-0.57c-0.248,0.108-0.362,0.396-0.254,0.644l0,0c0.117,0.239,0.396,0.349,0.644,0.254l0,0
				c1.19-0.413,2.506-0.216,3.523,0.527C280.47,319.607,280.617,319.603,280.746,319.545z"/>
			<path style="fill:#DE5753;" d="M275.562,327.155l2.534,1.737c0,0-0.569,1.021-2.865,1.414L275.562,327.155z"/>
			<path style="fill:#263238;" d="M251.921,319.82c-0.602,1.394-1.047,3.672-0.496,7.289c1.133,7.44,6.988,9.682,6.988,9.682
				l2.083-6.479c0,0,4.272-1.31,4.273-8.345c0-2.376-1.063-3.257-1.063-3.257L251.921,319.82z"/>
			<path style="fill:#E4897B;" d="M262,328.373c0,0-2.159-4.561-4.495-3.016c-2.336,1.544-1.586,9.253,1.965,9.124
				C263.021,334.352,263.695,330.803,262,328.373z"/>
			
				<path style="fill:none;stroke:#263238;stroke-width:0.5359;stroke-linecap:round;stroke-linejoin:round;stroke-miterlimit:10;" d="
				M275.734,333.165c0,0-5.624,0.322-8.418-2.816"/>
			<path style="fill:#263238;" d="M263.707,318.711c0,0,2.326,1.129,3.909,0.377c1.582-0.751-0.299-2.597-0.299-2.597
				s3.135,1.385,5.376,0.725c2.242-0.659,0.679-3.424,0.679-3.424s2.157,1.973,4.036,2.237c1.879,0.264,1.469-2.528,1.469-2.528
				s2.259,1.494,3.147,0c0.889-1.494-3.418-3.34-3.418-3.34s1.867,0.451,2.131-1.027c0.264-1.478-3.82-3.193-7.811-2.467
				c0,0,0.36-0.923-0.365-1.78c-0.725-0.857-6.791-0.857-9.231,0.989c0,0,0.066-1.108-2.11-1.543
				c-2.176-0.435-4.747,4.312-4.747,4.312s-3.286-0.071-4.662,1.371c-1.377,1.442,1.234,1.81,1.234,1.81s-3.787,1.48-4.418,5.127
				c-0.631,3.647,2.088,2.136,2.088,2.136s-1.495,2.772-0.44,5.051c1.055,2.278,8.637-3.291,8.637-3.291s-0.026,2.622,1.683,2.35
				C263.707,322.702,263.707,318.711,263.707,318.711z"/>
		</g>
		
			<line style="fill:none;stroke:#263238;stroke-width:2.1435;stroke-miterlimit:10;" x1="297.139" y1="348.577" x2="307.584" y2="362.589"/>
		<path style="fill:#E4897B;" d="M306.662,357.09l-2.132-0.273c-0.802-0.103-1.604,0.188-2.153,0.781l-2.567,2.772
			c-1.026,1.108-1.452,2.645-1.143,4.123l0.191,0.915c3.505,0.695,7.806-1.136,7.806-1.136l1.284-0.386
			c1.143-0.344,1.78-1.464,1.462-2.573l-0.732-2.554C308.425,357.877,307.623,357.213,306.662,357.09z"/>
		<g>
			<path style="fill:#263238;" d="M290.109,375.876c0,0,4.52-6.122,8.75-10.468c4.23-4.346,10.065-6.878,14.021-4.227
				c0,0,2.868-2.24,5.835-1.822c2.967,0.418,8.159,7.85,8.159,7.85l-4.979,2.656l-17.865,6.53l-11.152,6.647L290.109,375.876z"/>
			<path style="opacity:0.9;fill:#FFFFFF;" d="M326.87,367.206l-4.98,2.66l-17.86,6.53l-11.15,6.65l-2.77-7.17
				c0,0,4.52-6.12,8.75-10.47c1.66-1.7,3.57-3.13,5.51-4.07c3.01-1.46,6.1-1.77,8.51-0.16c0,0,2.87-2.24,5.83-1.82
				c1.59,0.22,3.81,2.45,5.53,4.48C325.74,365.596,326.87,367.206,326.87,367.206z"/>
			<path style="opacity:0.1;enable-background:new    ;" d="M324.24,363.836l-1.27,4.33l-9.6,1.4h-14.8l-0.92-1.57
				c0,0,3.49-4.25,6.72-6.66c3.01-1.46,6.1-1.77,8.51-0.16c0,0,2.87-2.24,5.83-1.82C320.3,359.576,322.52,361.806,324.24,363.836z"
				/>
			<path style="fill:#407BFF;" d="M328.7,367.206l-7.51,6.02l-28.6,11.19l-0.27,0.11l-2.8-5.64l8.38-9.87c0,0,7.55-9.29,15.67-6.43
				c0,0,5.35-2.38,8.96-1.41c0.03,0.01,0.06,0.02,0.09,0.03C326.17,362.236,328.7,367.206,328.7,367.206z"/>
			<path style="opacity:0.2;enable-background:new    ;" d="M328.7,367.206l-7.51,6.02l-28.6,11.19l21.67-21.08
				c3.07-1.69,5.88-2.25,8.36-2.13C326.17,362.236,328.7,367.206,328.7,367.206z"/>
		</g>
		<path style="fill:#263238;" d="M268.126,395.454c0,0,32.918-32.217,46.599-31.228c13.681,0.99,26.756,37.973,26.756,37.973
			l-11.888,4.678c0,0-14.835-19.112-16.615-19.112c-1.78,0-13.581,18.343-19.549,23.512c-5.968,5.169-11.3,5.998-13.777,5.998
			c-2.477,0-4.564,0-4.564,0L268.126,395.454z"/>
		<path style="opacity:0.4;fill:#FFFFFF;enable-background:new    ;" d="M268.126,395.454c0,0,32.918-32.217,46.599-31.228
			c13.681,0.99,26.756,37.973,26.756,37.973l-11.888,4.678c0,0-14.835-19.112-16.615-19.112c-1.78,0-13.581,18.343-19.549,23.512
			c-5.968,5.169-11.3,5.998-13.777,5.998c-2.477,0-4.564,0-4.564,0L268.126,395.454z"/>
	</g>
</g>
<g id="Character_1">
	<g id="_x3C_Group_x3E__5_">
		<g>
			<path style="fill:#EBC0BB;" d="M157.774,257.725c-0.231,2.926-0.558,5.807-0.978,8.712c-0.211,1.451-0.435,2.902-0.709,4.369
				c-0.131,0.731-0.272,1.473-0.428,2.224c-0.173,0.772-0.325,1.482-0.604,2.433c-0.599,1.896-1.376,3.253-2.171,4.624
				c-0.785,1.357-1.665,2.59-2.536,3.816c-1.778,2.432-3.682,4.673-5.777,6.832c-0.787,0.811-2.082,0.83-2.893,0.043
				c-0.651-0.632-0.792-1.59-0.416-2.364l0.025-0.05c1.249-2.557,2.55-5.134,3.753-7.655c0.613-1.254,1.185-2.525,1.702-3.748
				c0.498-1.209,0.961-2.483,1.128-3.378c0.078-0.45,0.17-1.167,0.242-1.819l0.226-2.062l0.405-4.231
				c0.266-2.836,0.555-5.704,0.892-8.532l0.002-0.019c0.267-2.242,2.301-3.844,4.543-3.577
				C156.367,253.603,157.942,255.551,157.774,257.725z"/>
		</g>
		<path style="fill:#263238;" d="M152.452,252.23c-5.302,3.718-6.046,13.445-6.046,13.445l9.659,2.24L152.452,252.23z"/>
		<g>
			<path style="fill:#263238;" d="M192.517,291.453c0,0-4.322-30.007-7.955-35.815c-3.633-5.809-9.307-13.66-28.648-6.26
				c0,0-7.296,3.087-4.827,12.253c2.47,9.165,5.95,33.314,5.95,33.314L192.517,291.453z"/>
			<path style="opacity:0.6;fill:#FFFFFF;" d="M151.079,261.629c0.731,2.7,1.543,6.687,2.329,10.976
				c0.18,0.993,0.363,2.012,0.546,3.032c0.416,2.359,0.816,4.739,1.18,6.978c0.068,0.39,0.126,0.782,0.192,1.164
				c0.999,6.257,1.709,11.163,1.709,11.163l35.482-3.483c0,0-4.323-30.019-7.957-35.817c-3.635-5.806-9.306-13.668-28.644-6.257
				C155.916,249.385,148.616,252.465,151.079,261.629z"/>
		</g>
		<polygon style="fill:#EEC1BB;" points="130.361,334.45 136.855,351.71 141.398,348.854 137.943,331.308 		"/>
		<path style="fill:#407BFF;" d="M190.516,287.787l-34.487,0.466v3.618c0,0-25.099,1.461-32.22,8.582
			c-7.121,7.121,7.901,41.594,7.901,41.594l8.964-1.441l-2.157-27.664c0,0,21.982,2.182,29.336,2.182
			C183.678,315.123,190.516,287.787,190.516,287.787z"/>
		<path style="fill:#263238;" d="M133.892,348.266l7.546-2.107c0.26-0.085,0.54,0.056,0.625,0.316
			c0.001,0.003,0.002,0.005,0.002,0.008l2.036,5.873c0.182,0.651-0.194,1.327-0.842,1.516c-2.645,0.693-3.942,0.891-7.27,1.792
			c-2.039,0.564-6.017,1.871-8.926,2.203c-2.91,0.332-3.159-2.553-1.957-2.95c2.848-0.955,6.257-3.924,7.737-5.941
			C133.104,348.63,133.473,348.38,133.892,348.266z"/>
		<path style="fill:#407BFF;" d="M130.471,350.099c-0.292-0.166-0.462-0.486-0.436-0.821c-0.02-0.211,0.07-0.417,0.238-0.547
			c0.737-0.548,3.005,0.217,3.261,0.307c0.058,0.026,0.098,0.081,0.106,0.144c0.007,0.064-0.028,0.125-0.086,0.151
			c-0.547,0.31-1.126,0.56-1.728,0.743C131.393,350.253,130.909,350.261,130.471,350.099z M130.475,349.021
			c-0.083,0.063-0.127,0.165-0.115,0.268c-0.01,0.21,0.092,0.41,0.268,0.527c0.404,0.221,1.298,0.012,2.434-0.561
			C132.142,348.977,130.867,348.726,130.475,349.021L130.475,349.021z"/>
		<path style="fill:#407BFF;" d="M133.436,349.375c-0.779-0.208-2.174-1.337-2.228-2.11c-0.017-0.286,0.163-0.547,0.437-0.633
			c0.236-0.098,0.504-0.087,0.731,0.031c0.856,0.47,1.249,2.47,1.265,2.529c0.005,0.054-0.013,0.108-0.052,0.146
			c-0.021,0.012-0.046,0.015-0.069,0.009C133.497,349.368,133.467,349.378,133.436,349.375z M131.774,346.957
			c-0.217,0.089-0.244,0.215-0.232,0.309c0.064,0.509,0.998,1.389,1.714,1.719c-0.159-0.637-0.516-1.73-1.033-2.007
			c-0.112-0.068-0.248-0.086-0.374-0.049L131.774,346.957z"/>
		<path style="opacity:0.2;enable-background:new    ;" d="M190.516,287.787l-34.487,0.466v3.618c0,0-25.099,1.461-32.22,8.582
			c-7.121,7.121,7.901,41.594,7.901,41.594l8.964-1.441l-2.157-27.664c0,0,21.982,2.182,29.336,2.182
			C183.678,315.123,190.516,287.787,190.516,287.787z"/>
		<polygon style="fill:#EEC1BB;" points="139.63,334.351 142.667,352.541 147.676,350.616 147.676,332.733 		"/>
		<g>
			<path style="fill:#263238;" d="M141.096,351.182l6.986-3.546c0.238-0.135,0.54-0.051,0.675,0.187
				c0.001,0.002,0.003,0.005,0.004,0.007l3.149,5.36c0.306,0.602,0.07,1.339-0.529,1.652c-2.458,1.198-3.691,1.647-6.778,3.183
				c-1.889,0.953-5.533,3.014-8.321,3.91c-2.788,0.896-3.598-1.884-2.497-2.509c2.606-1.495,5.366-5.075,6.422-7.343
				C140.395,351.693,140.708,351.376,141.096,351.182z"/>
			<path style="fill:#407BFF;" d="M138.101,353.65c-0.319-0.106-0.548-0.386-0.589-0.719c-0.061-0.203-0.014-0.423,0.126-0.583
				c0.615-0.682,2.989-0.377,3.258-0.339c0.062,0.014,0.112,0.06,0.132,0.121c0.019,0.061-0.003,0.128-0.055,0.165
				c-0.476,0.412-0.995,0.77-1.549,1.068C139.035,353.621,138.563,353.723,138.101,353.65z M137.894,352.592
				c-0.069,0.078-0.092,0.186-0.06,0.286c0.032,0.208,0.171,0.384,0.366,0.464c0.44,0.137,1.275-0.243,2.277-1.027
				C139.52,352.223,138.221,352.227,137.894,352.592L137.894,352.592z"/>
			<path style="fill:#407BFF;" d="M140.866,352.359c-0.805-0.052-2.394-0.885-2.598-1.632c-0.072-0.277,0.053-0.569,0.304-0.707
				c0.213-0.142,0.477-0.184,0.723-0.113c0.932,0.293,1.708,2.177,1.736,2.232c0.016,0.052,0.008,0.108-0.022,0.154
				c-0.018,0.016-0.042,0.023-0.066,0.022C140.926,352.34,140.897,352.356,140.866,352.359z M138.762,350.314
				c-0.195,0.129-0.198,0.258-0.167,0.349c0.163,0.486,1.251,1.166,2.018,1.35c-0.281-0.593-0.845-1.595-1.406-1.765
				c-0.123-0.045-0.26-0.036-0.376,0.025L138.762,350.314z"/>
		</g>
		<path style="fill:#407BFF;" d="M191.96,287.787c0,0,6.49,21.697-8.019,25.884c-14.509,4.188-34.031-0.73-34.031-0.73l-1.16,27.534
			l-9.168,0.147c0,0-8.074-28.678-6.017-37.496c2.057-8.818,32.255-11.454,32.255-11.454l0.141-3.887H191.96z"/>
		<path style="fill:#EEC1BB;" d="M152.882,287.819l1.855-0.783c0.698-0.294,1.494-0.234,2.139,0.163l3.013,1.855
			c1.205,0.741,1.976,2.02,2.069,3.432l0.058,0.874c-2.987,1.51-7.328,0.94-7.328,0.94l-1.255-0.025
			c-1.118-0.023-1.974-0.873-1.967-1.954l0.018-2.488C151.49,288.973,152.046,288.172,152.882,287.819z"/>
		<g>
			<path style="fill:#EBC0BB;" d="M182.208,258.528c0.188,0.615,0.299,1.039,0.431,1.549c0.124,0.489,0.223,0.976,0.325,1.464
				c0.196,0.975,0.361,1.951,0.495,2.935c0.259,1.968,0.381,3.97,0.326,6c-0.054,2.031-0.283,4.095-0.777,6.16
				c-0.483,2.065-1.264,4.129-2.393,6.062l-0.142,0.243c-0.085,0.145-0.192,0.284-0.303,0.401c-1.606,1.676-3.083,2.599-4.588,3.559
				c-1.496,0.932-3.009,1.745-4.523,2.51c-1.522,0.753-3.049,1.465-4.597,2.12c-1.562,0.639-3.097,1.268-4.716,1.816
				c-1.07,0.362-2.23-0.212-2.591-1.282c-0.298-0.881,0.039-1.823,0.764-2.33l0.017-0.011l3.998-2.79
				c1.331-0.928,2.653-1.854,3.948-2.792c1.305-0.922,2.556-1.89,3.754-2.839c1.174-0.93,2.344-2.001,2.936-2.775l-0.444,0.644
				c0.587-1.26,0.985-2.656,1.242-4.134c0.241-1.483,0.334-3.041,0.315-4.629c-0.037-1.591-0.163-3.209-0.395-4.829
				c-0.108-0.81-0.243-1.619-0.402-2.42l-0.255-1.189c-0.079-0.371-0.188-0.825-0.253-1.079l-0.037-0.142
				c-0.568-2.185,0.743-4.416,2.928-4.983C179.397,255.217,181.569,256.451,182.208,258.528z"/>
		</g>
		<g>
			<path style="fill:#407BFF;" d="M119.098,294.445v2.358c0,0.605,0.713,0.853,1.31,0.853h47.121c0.605,0,1.333-0.248,1.333-0.853
				v-2.358H119.098z"/>
			<path style="opacity:0.4;fill:#FFFFFF;enable-background:new    ;" d="M119.098,294.445v2.358c0,0.605,0.713,0.853,1.31,0.853
				h47.121c0.605,0,1.333-0.248,1.333-0.853v-2.358H119.098z"/>
			<path style="opacity:0.2;enable-background:new    ;" d="M119.098,294.445v2.358c0,0.605,0.713,0.853,1.31,0.853h31.079
				c0.604,0,1.322-0.248,1.322-0.853v-2.358H119.098z"/>
			<path style="fill:#407BFF;" d="M111.215,269.964l5.609,25.443c0.183,0.838,0.998,1.446,1.822,1.446h30.642
				c0.816,0,1.34-0.761,1.151-1.599l-5.602-25.249c-0.189-0.831-0.998-1.245-1.821-1.245h-30.642
				C111.549,268.76,111.032,269.133,111.215,269.964z"/>
			<path style="opacity:0.4;fill:#FFFFFF;enable-background:new    ;" d="M111.215,269.964l5.609,25.443
				c0.183,0.838,0.998,1.446,1.822,1.446h29.6c0.823,0,1.34-0.761,1.158-1.599l-5.61-25.249c-0.182-0.831-0.998-1.245-1.821-1.245
				h-29.6C111.549,268.76,111.032,269.133,111.215,269.964z"/>
			<path style="opacity:0.2;enable-background:new    ;" d="M126.322,282.895v0.008c0,2.178,2.336,3.948,4.048,3.948
				c1.712,0,2.727-1.77,2.239-3.948c-0.488-2.135-2.192-3.876-3.867-3.942c0.488,2.178-0.558,3.942-2.262,3.942
				C126.443,282.903,126.322,282.903,126.322,282.895z"/>
		</g>
		<path style="fill:#263238;" d="M159.71,255.651c0,0-6.255-4.747-2.505-10.714c2.133-3.394,18.692-6.311,21.329-2.76
			c2.637,3.551,0.727,7.176,0.727,7.176s-3.305-0.068-5.642,0C171.282,249.42,166.713,256.531,159.71,255.651z"/>
		<g>
			<path style="fill:#EEC1BB;" d="M166.294,234.87c0,0-0.094,3.531,0.583,6.852c0.313,1.603,1.216,4.646,3.413,5.877
				c0,0-0.482,2.581-4.151,4.887c-2.815,1.769-5.296,2.422-6.33,1.776c-0.921-0.576,0.253-4.337,0.253-4.337
				s0.004-0.163-0.019-0.442c-0.078-1.216-0.656-4.991-4.256-5.979C150.828,242.133,166.294,234.87,166.294,234.87z"/>
			<path style="opacity:0.2;enable-background:new    ;" d="M166.294,234.87c0,0-0.094,3.531,0.583,6.852
				c-1.586,3.161-3.745,6.263-6.833,7.76c-0.078-1.216-0.656-4.991-4.256-5.979C150.828,242.133,166.294,234.87,166.294,234.87z"/>
		</g>
		<g>
			<path style="fill:#263238;" d="M143.056,224.604c0,0-2.572,5.125,1.31,9.396c3.881,4.271,6.226-8.983,6.226-8.983
				L143.056,224.604z"/>
			<path style="fill:#EEC1BB;" d="M167.275,226.411c0.885,7.614,1.835,12.008-1.712,16.642c-5.337,6.992-16.406,5.504-19.822-1.621
				c-3.109-6.404-4.009-17.769,3.705-22.302C157.159,214.596,166.391,218.807,167.275,226.411z"/>
			<path style="fill:#263238;" d="M151.889,228.605c-0.069-0.047-0.123-0.113-0.157-0.189c-0.054-0.212,0.069-0.429,0.28-0.491
				c1.223-0.377,2.553-0.129,3.559,0.662c0.165,0.145,0.181,0.395,0.036,0.559v0c-0.149,0.155-0.392,0.171-0.56,0.036l0,0
				c-0.814-0.614-1.878-0.79-2.846-0.469C152.087,228.722,151.974,228.682,151.889,228.605z"/>
			<path style="fill:#263238;" d="M143.315,231.484c-0.083,0.002-0.166-0.019-0.238-0.06c-0.169-0.139-0.197-0.388-0.063-0.561
				c0.766-1.025,1.987-1.609,3.266-1.561c0.218,0.02,0.378,0.213,0.358,0.431v0c-0.029,0.213-0.216,0.369-0.431,0.359l0,0
				c-1.02-0.017-1.983,0.468-2.577,1.297C143.543,231.462,143.429,231.496,143.315,231.484z"/>
			<path style="fill:#D4827D;" d="M149.23,236.026l-1.51,1.977c0,0,0.696,0.642,2.562,0.362L149.23,236.026z"/>
			<g>
				<path style="fill:#263238;" d="M150.162,240.993c0.877,0.865,2.093,2.647,2.093,2.647c0.181-0.081,0.363-0.162,0.539-0.253
					c2.431-1.162,3.175-2.505,3.263-3.64c0.046-0.621-0.114-1.185-0.3-1.617c-0.21-0.502-0.475-0.813-0.475-0.813
					c-0.921,1.386-3.104,2.644-4.298,3.267C150.487,240.85,150.162,240.993,150.162,240.993z"/>
				<path style="fill:#FFFFFF;" d="M150.985,240.584l0.638,0.764c2.287-1.1,3.75-2.182,4.135-3.219
					c-0.21-0.502-0.475-0.813-0.475-0.813C154.362,238.703,152.179,239.961,150.985,240.584z"/>
				<path style="fill:#DE5753;" d="M152.795,243.388c2.431-1.162,3.175-2.505,3.263-3.64c-0.813,0.428-1.746,1.035-2.444,1.826
					C153.077,242.176,152.864,242.813,152.795,243.388z"/>
			</g>
			<path style="fill:#263238;" d="M156.638,215.317c-0.172,0.042-0.346,0.033-0.521,0.046l0.624,9.241c0,3.034,2.568,5.1,2.568,5.1
				c1.321,3.469,4.004,4.975,4.004,4.975c3.583-0.076,3.979,5.314,3.979,5.314C173.72,236.479,172.864,211.376,156.638,215.317z"/>
			<path style="fill:#EEC1BB;" d="M162.054,232.735c0,0,0.574-4.6,3.057-3.923c2.482,0.677,4.042,7.619,0.906,8.526
				C162.88,238.245,161.272,235.342,162.054,232.735z"/>
			<g>
				<path style="fill:#263238;" d="M152.566,233.635c0.256,0.738,0.862,1.197,1.354,1.027c0.492-0.171,0.683-0.907,0.427-1.644
					c-0.256-0.738-0.862-1.197-1.354-1.027C152.501,232.161,152.31,232.898,152.566,233.635z"/>
				<path style="fill:#263238;" d="M153.21,231.955l-1.823-0.073C151.387,231.883,152.655,232.955,153.21,231.955z"/>
			</g>
			<g>
				<path style="fill:#263238;" d="M145.405,235.281c0.256,0.738,0.862,1.197,1.354,1.027c0.492-0.171,0.683-0.907,0.427-1.644
					c-0.256-0.738-0.862-1.197-1.354-1.027C145.34,233.808,145.149,234.544,145.405,235.281z"/>
				<path style="fill:#263238;" d="M146.049,233.602l-1.822-0.073C144.227,233.529,145.494,234.602,146.049,233.602z"/>
			</g>
			<path style="fill:#263238;" d="M146.886,225.764c-0.691,1.045-0.829,3.226-0.825,4.87c1.283-0.187,2.726-0.411,4.215-0.666
				c-0.551-3.55,0.096-4.877,0.096-4.877c-0.023,1.758,0.671,3.658,1.102,4.666c1.149-0.208,2.305-0.433,3.414-0.673
				c-0.537-1.97-0.43-4.339-0.43-4.339c0.309,1.518,1.548,3.07,2.306,3.905c0.181-0.045,0.362-0.09,0.538-0.136
				c0,0-1.714-3.226,0-5.863c1.714-2.637-1.187-7.288-1.187-7.288s-17.011,0.276-14.901,15.914c0,0,1.479-0.17,3.655-0.473
				C145.245,227.345,146.886,225.764,146.886,225.764z"/>
			<path style="fill:#263238;" d="M173.788,228.514c0.263,0.854,0.51,2.632,0.692,4.198c2.004-0.241,3.691-0.919,4.803-1.482
				c0.052-2.959-0.285-6.484-0.285-6.484c0.55,1.718,0.934,4.241,1.157,6.007c0.36-0.216,0.558-0.359,0.558-0.359
				s-1.648-18.291-8.329-17.962c-6.681,0.33-8.022,5.67-8.022,5.67l1.912,2.835c0,0,2.506-2.505,4.019-0.412
				c1.513,2.094,2.904,12.28,2.904,12.28c0.194-0.003,0.384-0.016,0.574-0.027C173.845,230.831,173.788,228.514,173.788,228.514z"/>
		</g>
		<path style="fill:#263238;" d="M178.622,252.23c4.265-0.033,7.264,5.312,7.831,12.532l-12.983,2.891
			C173.469,267.653,168.858,252.304,178.622,252.23z"/>
	</g>
</g>
<g id="Plant">
	<g>
		<path style="fill:#407BFF;" d="M98.202,392.282c0,0-0.464-25.797,11.677-37.381c12.141-11.584-8.603-1.82-13.118,10.345
			c0,0,1.2-23.076,13.514-37.099c12.315-14.023-7.525-4.385-12.139,11.621c0,0,1.028-20.595,7.458-31.04
			c6.43-10.445-2.373-4.629-6.583,1.884c-4.209,6.513-3.846,24.72-3.846,24.72s-1.193-33.768-8.723-32.551
			c-7.53,1.217,5.932,25.787,6.241,37.277c0,0-5.433-16.431-12.32-14.557s8.853,6.503,11.93,30.034l0.579,10.867
			c0,0-4.808-16.109-10.689-12.454c-5.881,3.655,12.367,15.441,12.686,38.512L98.202,392.282z"/>
		<path style="opacity:0.2;enable-background:new    ;" d="M98.202,392.282c0,0-0.464-25.797,11.677-37.381
			c12.141-11.584-8.603-1.82-13.118,10.345c0,0,1.2-23.076,13.514-37.099c12.315-14.023-7.525-4.385-12.139,11.621
			c0,0,1.028-20.595,7.458-31.04c6.43-10.445-2.373-4.629-6.583,1.884c-4.209,6.513-3.846,24.72-3.846,24.72
			s-1.193-33.768-8.723-32.551c-7.53,1.217,5.932,25.787,6.241,37.277c0,0-5.433-16.431-12.32-14.557s8.853,6.503,11.93,30.034
			l0.579,10.867c0,0-4.808-16.109-10.689-12.454c-5.881,3.655,12.367,15.441,12.686,38.512L98.202,392.282z"/>
		<polygon style="fill:#263238;" points="83.104,417.948 114.018,417.948 118.128,387.886 78.994,387.886 		"/>
		<polygon style="opacity:0.2;fill:#FFFFFF;enable-background:new    ;" points="83.104,417.948 114.018,417.948 118.128,387.886 
			78.994,387.886 		"/>
		<path style="fill:#407BFF;" d="M97.293,391.151c0,0,3.232-20.653-5.228-31.296c-8.46-10.643,7.106-0.507,9.382,9.757
			c0,0,1.595-18.653-6.734-31.273c-8.329-12.62,6.525-2.685,8.455,10.672c0,0,1.458-16.643-2.545-25.739
			c-4.003-9.096,2.418-3.452,5.074,2.242c2.657,5.694,0.346,20.267,0.346,20.267s4.701-26.97,10.61-25.159
			c5.908,1.811-7.62,20.039-9.141,29.227c0,0,6.182-12.585,11.502-10.318c5.32,2.267-7.826,4.238-12.905,22.782l-1.67,8.657
			c0,0,5.645-12.396,9.959-8.81c4.315,3.586-11.637,11.022-14.451,29.503L97.293,391.151z"/>
		<path style="fill:#263238;" d="M122.003,385.449v2.856c0,1.911-1.549,3.461-3.461,3.461H78.193c-1.911,0-3.461-1.549-3.461-3.461
			v-2.856H122.003z"/>
	</g>
</g>
</svg>
