<?xml version="1.0" encoding="utf-8"?>
<!-- Generator: Adobe Illustrator 27.5.0, SVG Export Plug-In . SVG Version: 6.00 Build 0)  -->
<svg version="1.1" id="Слой_1" xmlns="http://www.w3.org/2000/svg" xmlns:xlink="http://www.w3.org/1999/xlink" x="0px" y="0px"
	 viewBox="0 0 3249.414 2000" style="enable-background:new 0 0 3249.414 2000;" xml:space="preserve">
<g>
	<rect y="0" style="fill:#FFFFFF;" width="3249.414" height="2000"/>
	<g>
		<path style="fill:#E3EAFF;" d="M492.875,1929.254C271.887,1719.08-30.141,1502.064,88.292,1174.242
			c77.897-215.62,268.895-275.722,427.656-408.68c78.352-65.617,29.072-161.127,27.617-255.922
			c-3.32-242.758,306.841-431.131,591.992-427.201c308.864,4.257,442.565,275.486,701.656,290.034
			c101.738,1.363,192.838-50.791,282.851-92.218c266.717-122.752,689.937-44.473,711.324,252.387
			c5.521,160.317-203.375,418.242,5.923,502.561c166.806,67.201,335.319,91.955,365.381,332.313
			c39.346,314.599-168.664,487.261-439.714,568.224L492.875,1929.254z"/>
		<g>
			<path style="fill:#FFFFFF;" d="M698.106,467.349h251.545c31.137,0,56.378,25.242,56.378,56.378v117.262
				c0,31.136-25.241,56.377-56.378,56.377h-1.866l20.188,67.636c0.889,2.976-2.548,5.35-5.017,3.466l-93.201-71.102H698.106
				c-31.137,0-56.378-25.241-56.378-56.377V523.727C641.729,492.591,666.97,467.349,698.106,467.349z"/>
			<path style="fill:#E3EAFF;" d="M949.534,565.815H708.029c-15.412,0-27.906-12.494-27.906-27.906l0,0
				c0-15.412,12.494-27.906,27.906-27.906h241.505c15.412,0,27.905,12.494,27.905,27.906l0,0
				C977.439,553.321,964.946,565.815,949.534,565.815z"/>
			<path style="fill:#E3EAFF;" d="M949.534,651.038H708.029c-15.412,0-27.906-12.493-27.906-27.905l0,0
				c0-15.413,12.494-27.906,27.906-27.906h241.505c15.412,0,27.905,12.493,27.905,27.906l0,0
				C977.439,638.544,964.946,651.038,949.534,651.038z"/>
		</g>
		<g>
			<path style="fill:#FFFFFF;" d="M2533.421,321.79h-254.705c-31.529,0-57.088,25.558-57.088,57.087v118.736
				c0,31.527,25.559,57.086,57.088,57.086h1.89l-20.443,68.486c-0.898,3.013,2.58,5.418,5.08,3.51l94.373-71.996h173.806
				c31.527,0,57.088-25.559,57.088-57.086V378.876C2590.509,347.348,2564.948,321.79,2533.421,321.79z"/>
			<path style="fill:#E3EAFF;" d="M2533.013,422.144h-259.936c-11.759,0-21.29-9.532-21.29-21.29v-9.241
				c0-11.758,9.531-21.29,21.29-21.29h259.936c11.759,0,21.29,9.531,21.29,21.29v9.241
				C2554.303,412.612,2544.771,422.144,2533.013,422.144z"/>
			<path style="fill:#E3EAFF;" d="M2410.707,500.492h-129.329c-11.759,0-21.29-9.532-21.29-21.29v-9.24
				c0-11.758,9.531-21.29,21.29-21.29h129.329c11.758,0,21.29,9.532,21.29,21.29v9.24
				C2431.997,490.961,2422.465,500.492,2410.707,500.492z"/>
		</g>
		<g>
			<path style="fill:#FFFFFF;" d="M281.333,1330.021c12.712-9.605,27.967-14.407,45.765-14.407
				c38.419,0,58.758,20.903,58.758,50.284c0,16.949-8.191,34.182-24.858,51.414c-21.188,22.316-36.442,33.334-46.047,33.334
				c-9.322,0-16.103-7.346-16.103-16.102c0-7.91,7.345-15.82,20.057-27.402c0.849-0.848,1.695-1.695,2.261-1.977
				c14.407-13.279,18.927-20.623,18.927-29.663c0-11.3-7.627-17.515-18.645-17.515c-5.085,0-11.017,1.131-18.08,3.391
				c-7.062,2.258-12.147,3.39-15.254,3.39c-7.91,0-16.95-6.78-16.95-18.081C271.163,1340.757,274.554,1335.105,281.333,1330.021z
				 M320.035,1518.445c-17.232,0-28.815-12.996-28.815-28.814c0-13.561,11.583-26.555,28.815-26.555
				c14.972,0,26.554,12.994,26.554,26.555C346.589,1505.168,335.572,1518.445,320.035,1518.445z"/>
		</g>
		<g>
			<path style="fill:#FFFFFF;" d="M2589.205,696.116c8.36-6.317,18.394-9.475,30.098-9.475c25.265,0,38.641,13.749,38.641,33.069
				c0,11.146-5.387,22.479-16.347,33.811c-13.935,14.677-23.968,21.921-30.283,21.921c-6.13,0-10.589-4.83-10.589-10.589
				c0-5.202,4.829-10.404,13.189-18.021c0.559-0.558,1.115-1.114,1.486-1.3c9.475-8.731,12.447-13.562,12.447-19.506
				c0-7.431-5.016-11.519-12.262-11.519c-3.343,0-7.245,0.744-11.89,2.23c-4.645,1.486-7.987,2.229-10.032,2.229
				c-5.201,0-11.146-4.459-11.146-11.89C2582.518,703.176,2584.747,699.46,2589.205,696.116z M2614.658,820.031
				c-11.334,0-18.949-8.546-18.949-18.951c0-8.917,7.615-17.463,18.949-17.463c9.845,0,17.463,8.546,17.463,17.463
				C2632.121,811.298,2624.875,820.031,2614.658,820.031z"/>
		</g>
		<g>
			<g>
				<path style="fill:#FFFFFF;" d="M3144.89,1382.698h-352.717c-6.236,0-11.291-5.056-11.291-11.291V1067.79
					c0-6.235,5.055-11.291,11.291-11.291c6.235,0,11.29,5.056,11.29,11.291v292.325h341.427c6.236,0,11.292,5.055,11.292,11.292
					C3156.182,1377.643,3151.126,1382.698,3144.89,1382.698z"/>
			</g>
			<g>
				<g>
					<path style="fill:#FFFFFF;" d="M2818.873,1308.48c-2.826,0-5.655-1.054-7.847-3.172c-4.483-4.334-4.605-11.483-0.271-15.966
						l113.997-117.925c3.754-3.883,9.732-4.563,14.264-1.625l53.908,34.968l56.845-66.052c4.068-4.727,11.198-5.26,15.925-1.193
						c4.727,4.068,5.261,11.198,1.191,15.924l-63.276,73.524c-3.684,4.28-9.964,5.182-14.702,2.108l-54.38-35.274l-107.534,111.239
						C2824.777,1307.329,2821.826,1308.48,2818.873,1308.48z"/>
				</g>
				<g>
					<g>
						<polygon style="fill:#FFFFFF;" points="3067.134,1187.123 3051.049,1154.533 3016.426,1143.484 3093.504,1105.201 						"/>
					</g>
				</g>
			</g>
		</g>
		<g>
			<path style="fill:#FFFFFF;" d="M994.284,350.003c-37.674,0-68.325-30.651-68.325-68.326c0-37.676,30.651-68.327,68.325-68.327
				c37.676,0,68.326,30.65,68.326,68.327C1062.61,319.351,1031.96,350.003,994.284,350.003z M994.284,232.169
				c-27.297,0-49.506,22.208-49.506,49.507c0,27.297,22.209,49.505,49.506,49.505c27.299,0,49.508-22.208,49.508-49.505
				C1043.792,254.378,1021.583,232.169,994.284,232.169z"/>
		</g>
		<g>
			<path style="fill:#E3EAFF;" d="M2859.738,825.49c-27.597,0-50.048-22.45-50.048-50.047c0-27.595,22.451-50.045,50.048-50.045
				c27.595,0,50.046,22.45,50.046,50.045C2909.784,803.04,2887.333,825.49,2859.738,825.49z M2859.738,739.181
				c-19.995,0-36.264,16.268-36.264,36.262c0,19.996,16.269,36.262,36.264,36.262c19.994,0,36.26-16.266,36.26-36.262
				C2895.998,755.448,2879.732,739.181,2859.738,739.181z"/>
		</g>
		<g>
			<path style="fill:#FFFFFF;" d="M232.416,1099.836c-24.778,0-44.936-20.158-44.936-44.936c0-24.778,20.158-44.935,44.936-44.935
				c24.777,0,44.936,20.157,44.936,44.935C277.352,1079.678,257.193,1099.836,232.416,1099.836z M232.416,1022.34
				c-17.954,0-32.56,14.606-32.56,32.56c0,17.952,14.605,32.559,32.56,32.559c17.953,0,32.559-14.606,32.559-32.559
				C264.975,1036.946,250.369,1022.34,232.416,1022.34z"/>
		</g>
		<path style="fill:#FFFFFF;" d="M1931.816,448.672c0,13.501-10.946,24.448-24.449,24.448c-13.501,0-24.447-10.946-24.447-24.448
			c0-13.502,10.946-24.448,24.447-24.448C1920.87,424.224,1931.816,435.17,1931.816,448.672z"/>
		<path style="fill:#E3EAFF;" d="M498.381,535.014c0,26.548-21.521,48.07-48.069,48.07c-26.549,0-48.07-21.522-48.07-48.07
			c0-26.549,21.521-48.07,48.07-48.07C476.859,486.944,498.381,508.465,498.381,535.014z"/>
		<path style="fill:#E3EAFF;" d="M1874.899,281.677c0,19.958-16.18,36.137-36.137,36.137c-19.958,0-36.137-16.179-36.137-36.137
			c0-19.958,16.179-36.138,36.137-36.138C1858.72,245.539,1874.899,261.718,1874.899,281.677z"/>
		<path style="fill:#E3EAFF;" d="M2964.153,855.332c0,17.036-13.809,30.845-30.844,30.845s-30.846-13.809-30.846-30.845
			c0-17.036,13.811-30.846,30.846-30.846S2964.153,838.296,2964.153,855.332z"/>
		<path style="fill:#FFFFFF;" d="M2063.477,422.143c0,21.241-17.218,38.459-38.457,38.459c-21.24,0-38.458-17.218-38.458-38.459
			c0-21.239,17.218-38.457,38.458-38.457C2046.259,383.686,2063.477,400.904,2063.477,422.143z"/>
		<circle style="fill:#FFFFFF;" cx="1113.416" cy="174.46" r="39.009"/>
	</g>
	<g id="c_40_">
		<g>
			<polygon id="v-2_5_" style="fill:#F37A50;" points="1938.015,745.153 1937.974,745.153 1902.774,745.282 1894.803,828.42 
				1935.892,850.115 1979.709,828.664 1972.627,745.282 			"/>
			<g>
				<g>
					<path style="fill:#F37A50;" d="M2010.334,680.858c-5.358,58.062-46.669,101.719-92.271,97.511
						c-45.602-4.208-78.226-54.688-72.867-112.75c5.357-58.062,46.669-101.719,92.271-97.511
						C1983.067,572.316,2015.692,622.797,2010.334,680.858z"/>
					<path style="fill:#DE623C;" d="M1905.559,686.381c-7.907,11.203-17.897,24.852-17.897,24.852s3.563,12.482,19.705,13.561
						c-6.679-3.211-13.182-8.19-9.884-17.148C1900.781,698.688,1905.559,686.381,1905.559,686.381z"/>
					<path d="M2027.184,633.677c2.717-55.225-48.607-71.268-48.607-71.268s11.173-4.44,7.758-20.966
						c-7.796,5.233-17.486,7.899-26.86,7.348c-63.165-3.712-102.353,8.221-95.107,32.627c2.579,8.685-38.052,14.817-17.543,72.31
						c3.614-7.031,6.077-32.976,18.084-39.149c12.05-6.194,5.57,14.234,33.233,9.992c27.911-4.28,45.698-16.646,66.569-6.389
						c16.734,9.383,39.845,75.564,39.096,80.182C2005.524,687.773,2025.991,657.947,2027.184,633.677z"/>
					<path d="M1846.015,697.167c0,0,6.615,31.171,13.803,39.283c0.944-13.57,30.923-6.256,43.848-5.643
						c23.404,1.112,46.25-20.534,55.335,9.783c29.767,0.532,37.961-65.284,37.961-65.284c20.885,64.607-15.761,115.7-87.502,125.222
						C1862.193,806.803,1839.338,745.184,1846.015,697.167z"/>
					<g>
						<path style="fill:#DE623C;" d="M1924.736,746.014c4.09-2.357,8.145-5.517,12.146-9.47c1.041-1.028,1.051-2.706,0.022-3.747
							c-1.029-1.041-2.705-1.051-3.747-0.022c-8.868,8.764-17.843,13.174-26.672,13.108c-10.917-0.083-17.991-7.158-18.061-7.229
							c-1.024-1.042-2.699-1.063-3.744-0.043c-1.044,1.02-1.071,2.689-0.055,3.737c0.344,0.355,8.574,8.69,21.718,8.832
							C1912.513,751.246,1918.664,749.515,1924.736,746.014z"/>
					</g>
					<path d="M1941.402,684.249c4.576,0.125,8.387-3.485,8.51-8.06c0.125-4.576-3.485-8.386-8.061-8.511
						c-4.576-0.123-8.387,3.486-8.51,8.062C1933.217,680.316,1936.826,684.125,1941.402,684.249z"/>
					<path d="M1875.368,682.462c4.575,0.124,8.385-3.485,8.51-8.061c0.123-4.576-3.485-8.386-8.063-8.51
						c-4.575-0.123-8.386,3.485-8.509,8.061C1867.183,678.529,1870.791,682.338,1875.368,682.462z"/>
					<g>
						<path d="M1861.195,666.317c1.358,0.037,2.702-0.624,3.479-1.857c2.139-3.396,4.674-5.397,7.533-5.949
							c4.94-0.954,9.717,2.456,9.765,2.491c1.773,1.284,4.262,0.903,5.556-0.865c1.295-1.766,0.929-4.241-0.83-5.544
							c-0.305-0.225-7.526-5.489-15.909-3.918c-5.146,0.964-9.47,4.175-12.851,9.54c-1.172,1.86-0.615,4.318,1.246,5.49
							C1859.811,666.1,1860.506,666.298,1861.195,666.317z"/>
					</g>
					<g>
						<path d="M1957.535,669.327c0.874,0.024,1.76-0.238,2.511-0.806c1.753-1.328,2.097-3.825,0.769-5.577
							c-5.054-6.67-10.746-10.38-16.92-11.027c-7.967-0.835-13.587,3.94-13.822,4.144c-1.662,1.439-1.843,3.953-0.403,5.615
							c1.432,1.654,3.928,1.84,5.589,0.426c0.12-0.098,3.457-2.767,7.907-2.255c3.861,0.443,7.664,3.103,11.304,7.906
							C1955.228,668.754,1956.37,669.296,1957.535,669.327z"/>
					</g>
					<g>
						<path style="fill:#F37A50;" d="M1997.731,675.544c-9.549,9.84-10.763,24.151-2.709,31.965
							c8.052,7.815,22.32,6.173,31.869-3.667c9.548-9.84,10.763-24.152,2.709-31.966
							C2021.549,664.062,2007.279,665.704,1997.731,675.544z"/>
						<g>
							<path style="fill:#DE623C;" d="M2007.816,703.121c-0.429-0.143-0.83-0.386-1.17-0.727
								c-4.883-4.898-6.132-10.996-3.341-16.311c2.858-5.442,9.132-8.629,14.92-7.576c1.629,0.298,2.709,1.858,2.413,3.486
								c-0.296,1.629-1.857,2.709-3.486,2.413c-3.17-0.577-6.921,1.384-8.537,4.464c-1.554,2.958-0.745,6.258,2.278,9.291
								c1.168,1.173,1.166,3.071-0.007,4.24C2010.055,703.229,2008.857,703.469,2007.816,703.121z"/>
						</g>
					</g>
				</g>
			</g>
		</g>
		<path style="fill:#201D40;" d="M1873.782,1832.814c-31.123,42.94-107.554,16.591-105.024,74.672
			c116.229-0.745,164.533,0,164.533,0c-0.153-13.339-2.45-45.004-5.132-57.397L1873.782,1832.814z"/>
		<path style="fill:#201D40;" d="M2044.936,1832.814c-31.123,42.94-107.555,16.591-105.024,74.672
			c116.229-0.745,164.533,0,164.533,0c-0.152-13.339-2.451-45.004-5.131-57.397L2044.936,1832.814z"/>
		<path style="fill:#748DDB;" d="M1798.3,1177.543c0,0-11.141,283.924-3.475,345.113c7.666,61.189,49.646,129.715,46.568,332.105
			c37.89,9.486,92.783,0,92.783,0s8.139-228.85-31.914-331.066c16.286-99.29,68.55-326.703,68.55-326.703L1798.3,1177.543z"/>
		<path style="fill:#89A2F0;" d="M1879.561,1184.759c0,0,38.104,308.987,56.757,367.593
			c18.653,58.607,46.678,102.005,80.447,301.385c38.937,1.948,74.518,6.363,74.518,6.363s17.762-255.355-42.881-312.869
			c-2.052-100.687-4.183-360.486-4.183-360.486L1879.561,1184.759z"/>
		<g id="v_4_">
			<path id="h-5_5_" style="fill:#E62552;" d="M2067.353,834.081c0,0-66.181-23.17-88.249-12.544c-68.573,33.019-84.301,0-84.301,0
				c-24.054-5.337-80.868-5.337-80.868-5.337c-7.191,95.982-28.706,402.483-28.706,402.483s82.56,19.582,151.584,20.081
				c69.024-0.448,139.275-18.851,139.275-18.851s-3.687-134.178-6.751-184.051C2070.332,979.963,2067.353,907.753,2067.353,834.081z
				"/>
		</g>
		<path style="fill:#C4204A;" d="M2067.353,834.081c60.462,26.011,134.653,85.961,180.311,180.921
			c15.657,32.562-58.778,39.137-73.617,26.301c-14.839-12.836-106.693-108.705-106.693-108.705V834.081z"/>
		<polygon style="fill:#C4204A;" points="1813.934,816.2 1527.623,933.662 1541.915,1005.881 1807.198,930.51 		"/>
	</g>
	<g>
		<path style="fill:#201D40;" d="M1324.336,805.604c-36.088-0.339-162.404,196.372-162.404,196.372l-22.997,230.775l58.858,2.314
			l54.742-201.641l57.112-30.115L1324.336,805.604z"/>
		<g id="c_39_">
			<path style="fill:#F37A50;" d="M1608.534,1182.975l0.711,30.891c0,0-22.044-0.658-22.813,14.4l20.701,0.642
				c0,0,12.596,16.272-5.461,48.021c-7.2,31.103,15.595,17.945,17.158,28.279c2.308,15.249,32.414-10.895,37.196-41.967
				c6.188-40.205-2.019-45.034-2.019-45.034l-9.106-30.529L1608.534,1182.975z"/>
		</g>
		<path style="fill:#201D40;" d="M1578.772,831.146c35.243,7.772,100.091,216.94,100.091,216.94l-19.453,159.957l-58.539-6.55
			l3.517-124.719l-43.863-118.219L1578.772,831.146z"/>
		<path d="M1501.955,1841.402c31.817,42.439,109.95,16.398,107.364,73.799c-118.818-0.737-168.199,0-168.199,0
			c0.156-13.184,2.506-44.477,5.245-56.727L1501.955,1841.402z"/>
		<path d="M1324.182,1842.516c31.816,42.438,109.951,16.396,107.364,73.797c-118.818-0.736-168.199,0-168.199,0
			c0.156-13.184,2.506-44.475,5.246-56.725L1324.182,1842.516z"/>
		<path style="fill:#201D40;" d="M1570.287,1191.727c0,0,19.073,273.406,11.235,333.879
			c-7.837,60.473-48.697,138.371-45.553,338.393c-38.732,9.374-94.85,0-94.85,0s-8.32-226.17,32.626-327.189
			c-16.65-98.127-70.078-322.875-70.078-322.875L1570.287,1191.727z"/>
		<path style="fill:#2C2858;" d="M1452.448,1201.303c0,0-7.758,305.004-26.826,362.924c-19.067,57.92-50.141,96.084-84.662,293.127
			c-39.805,1.926-97.123,2.746-97.123,2.746s28.131-248.38,90.124-305.219c2.099-99.507-18.645-351.981-18.645-351.981
			L1452.448,1201.303z"/>
		<polygon style="fill:#95A6DB;" points="1505.716,797.829 1452.7,786.733 1399.215,795.294 1450.79,862.046 		"/>
		<path style="fill:#F37A50;" d="M1491.174,833.271c-23.875,15.445-55.974,15.747-80.584-2.125l1.152-81.869l76.198,2.634
			L1491.174,833.271z"/>
		<path style="fill:#95A6DB;" d="M1382.193,822.442L1382.193,822.442l16.595-4.477l0.427-22.671l40.024,40.387l12.215,3.393
			l12.362-2.809l41.899-38.437l-0.653,22.666l13.693,4.403l0,0l49.599,13.93l-25.879,281.146l9.086,97.687
			c-69.587,14.677-145.201,11.716-217.757-6.825l13.369-95.51l-21.191-280.052L1382.193,822.442z"/>
		<polygon style="fill:#2C2858;" points="1464.109,868.188 1480.107,1085.461 1460.72,1108.613 1439.076,1089.309 1447.414,868.757 
					"/>
		<polygon style="fill:#2C2858;" points="1477.203,841.58 1457.291,837.315 1435.199,842.001 1447.398,869.185 1464.163,868.913 		
			"/>
		<g>
			<path style="fill:#2C2858;" d="M1510.113,807.905l-1.788,245.456l-5.223,172.791c0,0,49.417,17.634,86.282-10.238l-9.95-384.768
				L1510.113,807.905z"/>
			<polygon style="fill:#494C7F;" points="1508.903,805.315 1507.811,1070.396 1546.774,864.709 			"/>
		</g>
		<g>
			<path style="fill:#2C2858;" d="M1397.747,797.721l12.843,435.155c0,0-89.452,15.675-125.963-8.458l19.791-137.51l17.596-281.276
				L1397.747,797.721z"/>
			<polygon style="fill:#494C7F;" points="1398.609,796.872 1405.579,1063.091 1359.258,853.524 			"/>
		</g>
		<g id="c_38_">
			<path style="fill:#F37A50;" d="M1204.575,1212.283l-0.711,30.889c0,0,22.044-0.658,22.813,14.4l-20.7,0.643
				c0,0-12.597,16.271,5.459,48.02c7.201,31.104-15.595,17.945-17.158,28.279c-2.307,15.25-32.413-10.895-37.195-41.966
				c-6.188-40.204,2.02-45.034,2.02-45.034l9.105-30.53L1204.575,1212.283z"/>
		</g>
		<g>
			<g>
				<g>
					
						<ellipse transform="matrix(0.9771 -0.2126 0.2126 0.9771 -109.7555 326.7176)" style="fill:#F37A50;" cx="1464.54" cy="673.783" rx="80.816" ry="102.897"/>
					<path d="M1517.129,677.821c4.428,1.325,9.091-1.19,10.417-5.617c1.325-4.428-1.191-9.091-5.617-10.417
						c-4.428-1.325-9.092,1.19-10.416,5.617C1510.186,671.832,1512.701,676.496,1517.129,677.821z"/>
					<path d="M1448.805,675.465c2.203,4.084,7.3,5.61,11.384,3.407c4.085-2.203,5.61-7.299,3.408-11.383
						c-2.202-4.086-7.3-5.611-11.384-3.409C1448.128,666.284,1446.603,671.38,1448.805,675.465z"/>
					<path style="fill:#DE623C;" d="M1502.657,671.429c5.994,13.646,13.678,30.35,13.678,30.35s-6.499,12.523-23.928,10.173
						c7.81-1.972,15.815-5.866,14.244-16.123C1505.08,685.573,1502.657,671.429,1502.657,671.429z"/>
					<g>
						<path style="fill:#2C2858;" d="M1439.681,662.744c1.603,0.708,3.539,0.255,4.646-1.2c0.261-0.338,6.718-8.518,14.648-5.062
							c1.961,0.855,4.243-0.041,5.098-2.002c0.855-1.961-0.055-4.251-2.002-5.098c-10.828-4.721-20.374,2.824-23.909,7.473
							c-1.295,1.703-0.964,4.132,0.738,5.428C1439.146,662.47,1439.408,662.624,1439.681,662.744z"/>
					</g>
					<g>
						<path style="fill:#2C2858;" d="M1534.28,662.744c-1.602,0.708-3.538,0.255-4.644-1.2c-0.262-0.338-6.718-8.518-14.648-5.062
							c-1.961,0.855-4.243-0.041-5.098-2.002c-0.856-1.961,0.055-4.251,2.003-5.098c10.827-4.721,20.374,2.824,23.909,7.473
							c1.294,1.703,0.964,4.132-0.739,5.428C1534.815,662.47,1534.553,662.624,1534.28,662.744z"/>
					</g>
					<path style="fill:#2C2858;" d="M1394.138,693.229c2.319-20.5,19.684-14.128,24.646-40.95
						c4.962-26.821,9.855-47.036,35.002-39.675c25.147,7.362,31.973,2.002,43.018-2.9c33.21-14.737,45.5,41.839,45.5,41.839
						s24.023-45.452-0.811-70.297c-27.528-27.542-35.652-8.631-61.284-28.651c-25.632-20.02-66.547-13.087-76.497,2.82
						c-10.489,16.769-13.432,29.289-38.843,39.002c-25.412,9.714-39.749,29.042-20.262,57.24
						c19.486,28.198-19.507,42.649,15.404,70.571c13.542,10.831,38.493,15.838,43.102,11.044
						C1409.284,726.853,1392.642,706.444,1394.138,693.229z"/>
					<path style="fill:#2C2858;" d="M1546.467,687.039c0,0-4.222,27.594-10.396,36.002c-2.102-12.924-14.304-2.104-23.617-2.715
						c-22.505-1.474-60.604-16.676-71.086,15.431c-28.487,3.135-43.408-58.096-43.408-58.096
						c-14.321,63.77,26.573,108.379,96.18,111.18C1539.998,790.687,1557.1,732.475,1546.467,687.039z"/>
					<path style="fill:#FFFFFF;" d="M1520.366,738.394c1.34-1.72-0.004-4.201-2.175-3.995c-5.519,0.524-14.64,1.2-23.324,0.989
						c-8.685-0.211-17.762-1.327-23.25-2.116c-2.157-0.311-3.62,2.102-2.364,3.884c3.862,5.483,11.916,13.856,25.227,14.179
						C1507.793,751.657,1516.243,743.684,1520.366,738.394z"/>
					<g>
						<path style="fill:#F37A50;" d="M1402.855,679.301c9.415,10.115,10.337,24.562,2.059,32.266
							c-8.278,7.705-22.621,5.75-32.036-4.366c-9.414-10.115-10.336-24.561-2.058-32.266
							C1379.098,667.231,1393.441,669.185,1402.855,679.301z"/>
						<g>
							<path style="fill:#DE623C;" d="M1392.114,706.875c0.435-0.135,0.844-0.371,1.194-0.708c5.022-4.832,6.408-10.95,3.708-16.364
								c-2.765-5.544-9.02-8.886-14.874-7.947c-1.648,0.266-2.769,1.814-2.505,3.461c0.265,1.648,1.814,2.769,3.462,2.505
								c3.208-0.515,6.945,1.54,8.51,4.677c1.503,3.014,0.618,6.322-2.491,9.313c-1.202,1.158-1.239,3.07-0.082,4.273
								C1389.856,706.938,1391.057,707.205,1392.114,706.875z"/>
						</g>
					</g>
				</g>
			</g>
		</g>
		<polygon style="fill:#FFFFFF;" points="1457.291,837.315 1418.823,871.526 1389.062,810.618 1399.215,795.294 		"/>
		<polygon style="fill:#FFFFFF;" points="1457.291,837.315 1486.86,868.715 1514.699,814.407 1505.716,797.829 		"/>
	</g>
	<g>
		<g>
			<path style="fill:#F37A50;" d="M1219.342,1799.244c-3.087-30.789,12.798-265.097,12.798-265.097
				c44.924-205.988,27.278-353.441,27.278-353.441l-77.214,5.425l-30.432,116.4l14.434,194.397c0,0-5.418,14.963-8.277,26.93
				c-15.503,64.89-0.062,142.439,9.485,194.129c4.424,23.952,11.306,74.293,11.485,85.734l-19.399,25.077
				c0,0,70.204,77.697,81.005,78.185c20.992,0.947,14.807-19.842,14.807-19.842
				C1226.457,1857.508,1220.226,1808.061,1219.342,1799.244z"/>
			<path style="fill:#E62552;" d="M1158.301,1856.328l3.862,49.92l8.972,0.405l4.539-46.358
				c23.882,6.096,40.993,49.436,40.993,49.436c16.449,5.9,58.264,9.945,73.146,2.279c3.593-14.585-34.564-24.811-34.564-24.811
				c-3.447,4.082-23.816,7.21-31.049,2.837c-26.635-22.678-39.623-55.651-45.301-86.316
				C1178.899,1803.721,1136.813,1806.654,1158.301,1856.328z"/>
		</g>
		<g>
			<path style="fill:#F37A50;" d="M1193.23,1195.688l-108.773-14.982c-41.61,94.142-55.176,258.054-66.471,316.444
				c-45.341,76.025-59.738,306.57-59.738,306.57l-19.399,25.077c0,0,70.205,77.697,81.005,78.185
				c20.991,0.947,14.807-19.842,14.807-19.842c-28.855-29.633-34.48-69-36.349-77.662c-2.808-13.017,88.043-268.777,88.043-268.777
				l9.698-24.268c110.968-183.279,129.176-321.836,129.176-321.836L1193.23,1195.688z"/>
			<path style="fill:#E62552;" d="M937.648,1856.328l3.862,49.92l8.972,0.405l4.539-46.358
				c23.883,6.096,40.992,49.436,40.992,49.436c16.45,5.9,58.266,9.945,73.148,2.279c3.593-14.585-34.565-24.811-34.565-24.811
				c-3.447,4.082-23.815,7.21-31.049,2.837c-26.635-22.678-39.623-55.651-45.3-86.316
				C958.248,1803.721,916.161,1806.654,937.648,1856.328z"/>
		</g>
		<path d="M1233.111,928.624c35.416-12.337,110.672-50.337,75.02-101.577c-35.653-51.238-50.8-29.77-37.089-91.383
			c13.71-61.613-29.666-110.675-71.663-98.84c-41.996,11.834-53.052,45.592-104.271,36.455
			c-51.219-9.139-94.398,38.387-75.539,80.215c18.857,41.828,26.888,61.957,8.573,84.796c-18.313,22.84-99.965,46.759-66.63,102.32
			c33.336,55.56,48.93,52.346,36.829,80.505c-12.101,28.16,14.738,60.668,61.966,56.787c47.228-3.881,90.131-21.25,108.012-73.737
			C1186.201,951.677,1233.111,928.624,1233.111,928.624z"/>
		<path style="fill:#C4204A;" d="M1223.716,912.493c16.024,1.658,34.991,9.803,41.887,28.863c6.896,19.06,2.505,68.884,2.505,68.884
			L1223.716,912.493z"/>
		<path style="fill:#F37A50;" d="M1135.016,861.063l0.527,69.772c0,0,33.856,20.6,60.586,4.15
			c-4.112-20.562-10.092-67.458-10.092-67.458L1135.016,861.063z"/>
		<g>
			<path style="fill:#F37A50;" d="M1232.103,780.068c0,51.84-31.263,93.866-69.826,93.866c-38.563,0-69.826-42.025-69.826-93.866
				c0-51.84,31.263-93.864,69.826-93.864C1200.84,686.204,1232.103,728.228,1232.103,780.068z"/>
			<path d="M1087.807,780.068c38.547-4.928,74.386-26.408,94.628-54.163c13.077,32.441,49.668,54.163,49.668,54.163
				s27.422-62.056-22.451-95.532C1162.074,652.601,1048.559,674.421,1087.807,780.068z"/>
			<path d="M1132.902,800.097c-4.099,0-7.421-3.322-7.421-7.421c0-4.098,3.322-7.42,7.421-7.42c4.098,0,7.421,3.323,7.421,7.42
				C1140.323,796.774,1137,800.097,1132.902,800.097z"/>
			<path d="M1192.046,800.097c-4.099,0-7.421-3.322-7.421-7.421c0-4.098,3.322-7.42,7.421-7.42c4.099,0,7.421,3.323,7.421,7.42
				C1199.467,796.774,1196.145,800.097,1192.046,800.097z"/>
			<g>
				<path d="M1205.121,785.99c-1.218,0-2.403-0.624-3.069-1.747c-1.833-3.091-4.053-4.943-6.599-5.506
					c-4.398-0.974-8.756,1.962-8.8,1.992c-1.618,1.107-3.835,0.706-4.951-0.907c-1.115-1.613-0.728-3.817,0.878-4.942
					c0.277-0.194,6.868-4.731,14.333-3.121c4.582,0.989,8.374,3.965,11.27,8.849c1.005,1.693,0.446,3.879-1.247,4.883
					C1206.365,785.83,1205.738,785.99,1205.121,785.99z"/>
			</g>
			<g>
				<path d="M1118.824,786.35c-0.781,0-1.568-0.255-2.227-0.782c-1.535-1.23-1.783-3.474-0.553-5.01
					c4.685-5.847,9.87-9.029,15.41-9.459c7.15-0.555,12.065,3.855,12.271,4.043c1.452,1.328,1.554,3.583,0.225,5.035
					c-1.322,1.445-3.56,1.553-5.013,0.246c-0.105-0.089-3.027-2.56-7.022-2.211c-3.467,0.303-6.936,2.592-10.308,6.802
					C1120.904,785.894,1119.869,786.351,1118.824,786.35z"/>
			</g>
			<path style="fill:#DE623C;" d="M1169.639,802.419c9.599,6.919,12.592,9.761,16.296,12.067
				c-2.559,8.569-15.999,12.825-19.821,11.836c9.361-4.614,10.68-10.866,10.68-10.866L1169.639,802.419z"/>
			<path style="fill:#F37A50;" d="M1102.881,787.311c8.002,10.134,8.4,23.156,0.891,29.086c-7.512,5.93-20.086,2.522-28.087-7.612
				c-8.002-10.134-8.4-23.156-0.891-29.086C1082.305,773.769,1094.88,777.177,1102.881,787.311z"/>
			<g>
				<path style="fill:#DE623C;" d="M1095.859,809.204c-0.307,0-0.621-0.06-0.923-0.188c-1.209-0.511-1.775-1.904-1.265-3.113
					c1.696-4.017,1.734-7.249,0.113-9.605c-2.501-3.638-8.407-4.762-12.696-4.619c-1.31,0.047-2.41-0.983-2.453-2.295
					c-0.044-1.312,0.983-2.41,2.295-2.454c5.757-0.192,13.186,1.461,16.772,6.676c1.786,2.599,3.296,7.162,0.348,14.146
					C1097.666,808.658,1096.786,809.204,1095.859,809.204z"/>
			</g>
			<path style="fill:#FFFFFF;" d="M1143.751,838.996c-0.994-1.626,0.418-3.646,2.282-3.254c4.739,1,12.591,2.486,20.151,3.161
				c7.561,0.675,15.551,0.602,20.393,0.458c1.904-0.057,2.936,2.183,1.67,3.606c-3.894,4.378-11.713,10.852-23.302,9.818
				C1153.356,851.751,1146.809,843.994,1143.751,838.996z"/>
		</g>
		<path style="fill:#C4204A;" d="M1073.439,908.881c0,0-90.454,40.137-140.999,145.205c29.519,41.554,61.365,16.839,61.365,16.839
			l84.262-65.817c0,0,21.428-38.791,18.667-59.241C1092.631,915.474,1073.439,908.881,1073.439,908.881z"/>
		<g>
			<g>
				<g>
					<g>
						<path style="fill:#070635;" d="M1088.997,1488.777c-29.103-5.264-57.022-5.234-73.397-4.875
							c10.36-34.664,4.461-250.891,70.14-324.48l168.205,2.229c58.512,100.404,27.519,253.25,63.678,314.191
							c-14.124,6.825-44.807,19.85-96.658,25.082C1163.628,1506.709,1138.181,1497.673,1088.997,1488.777z"/>
					</g>
				</g>
			</g>
		</g>
		<g>
			<g>
				<g>
					<path style="fill:#F5A3B7;" d="M1252.479,1117.727c0-34.361,29.779-85.838,15.504-120.524
						c-10.396-27.902-28.608-78.211-49.878-86.026c-10.036-3.688-14.966-6.509-27.472-9.967c0,0-0.653,26.585-15.354,27.764
						c-28.295,2.27-40.01-34.125-40.01-34.125c-15.256-1.458-71.62,14.538-71.586,20.284c0.166,45.009,19.96,117.793,31.918,166.455
						c2.218,24.778,0.463,43.999-2.019,58.021c-4.531,14.614-12.371,22.136-12.406,25.295c0,0,107.191,36.481,173.925-0.257
						C1255.103,1164.649,1252.479,1140.932,1252.479,1117.727z"/>
				</g>
			</g>
		</g>
		<path style="fill:#E62552;" d="M1122.794,895.777c0,0,33.09,123.398,33.09,175.573c0,59.289-30.402,159.244-30.402,159.244
			l-74.397-2.908c0,0,9.106-41.648,31.804-78.668c23.434-38.225-2.295-119.755-7.969-141.451
			c-5.673-21.696-14.896-91.643-14.896-91.643S1090.999,895.588,1122.794,895.777z"/>
		<path style="fill:#E62552;" d="M1201.633,904.711c7.399,15.708,35.998,80.077,34.22,119.207
			c-1.778,39.131-5.419,173.512,5.295,210.078c26.721-0.788,38.925-8.851,38.925-8.851c3.804-10.317-36.235-69.497-25.447-115.488
			c10.788-45.991,20.198-78.761,17.232-97.597c-3.326-21.12-19.684-74.667-48.142-99.568
			C1213.671,908.044,1201.633,904.711,1201.633,904.711z"/>
		<g id="c_37_">
			<path style="fill:#F37A50;" d="M1063.563,1150.056l4.784,1.991c0,0,9.717-13.111,19.644-12.616l-6.069,12.776
				c0,0,11.413,18.781,41.483,16.791c25.686,5.84,7.717,18.033,14.828,22.912c10.493,7.197-18.935,24.873-43.727,17.248
				c-32.08-9.863-52.923-40.158-52.923-40.158L1063.563,1150.056z"/>
		</g>
		<path style="fill:#C4204A;" d="M1063.563,1150.056l-68.105-85.989c0,0-14.349-27.443-63.018-9.98
			c-2.356,26.166,25.629,61.81,112.434,119.228L1063.563,1150.056z"/>
	</g>
	<g>
		<g>
			<path style="fill:#201D40;" d="M2148.992,659.534c-60.541-17.084-181.466,31.876-146.275,252.073
				c35.188,220.198,193.519,189.639,193.519,189.639s72.658-22.838,79.181-162.731
				C2281.938,798.622,2250.805,688.263,2148.992,659.534z"/>
			<g>
				<g>
					<path style="fill:#7890DB;" d="M2074.943,964.746c-12.892,37.126-61.255,109.736-78.529,123.059
						c-11.502-16.385-53.955-8.216-53.955-8.216s42.453-102.876,80.79-152.73C2041.13,893.285,2096.105,904.173,2074.943,964.746z"
						/>
					<path style="fill:#F37A50;" d="M1942.459,1079.589c8.242,45.239,62.932,104.057,62.932,104.057s6.15-3.54,7.485-30.206
						c-6.781-18.26-16.462-65.635-16.462-65.635S1974.885,1064.666,1942.459,1079.589z"/>
				</g>
			</g>
			<g>
				<g>
					<g>
						<path style="fill:#F37A50;" d="M2096.411,859.531l45.125-6.759l-3.594,41.887c0,0-22.854,41.182-44.537,34.089
							c-21.684-7.093-11.108-25.285-11.108-25.285L2096.411,859.531z"/>
					</g>
				</g>
			</g>
			<g>
				<path style="fill:#F37A50;" d="M2177.637,791.574c-7.333,49.488-44.786,84.937-83.654,79.177
					c-38.867-5.76-64.432-50.547-57.099-100.035c7.334-49.488,44.788-84.937,83.655-79.176
					C2159.406,697.299,2184.97,742.086,2177.637,791.574z"/>
				<g>
					<path style="fill:#201D40;" d="M2135.394,778.223c-0.54-0.159-1.032-0.497-1.38-0.996c-5.038-7.233-15.173-7.029-15.274-7.027
						c-1.417,0.041-2.604-1.072-2.647-2.491c-0.044-1.416,1.063-2.602,2.479-2.65c0.528-0.019,13.006-0.331,19.664,9.228
						c0.813,1.166,0.525,2.769-0.64,3.581C2136.928,778.333,2136.117,778.438,2135.394,778.223z"/>
				</g>
				<g>
					<path style="fill:#201D40;" d="M2048.708,776.787c-0.257-0.101-0.502-0.245-0.725-0.434c-1.082-0.918-1.216-2.542-0.297-3.625
						c7.136-8.412,17.051-6.058,17.47-5.954c1.376,0.343,2.219,1.739,1.874,3.118c-0.342,1.375-1.731,2.213-3.105,1.877
						c-0.325-0.077-7.297-1.629-12.315,4.286C2050.879,776.918,2049.703,777.178,2048.708,776.787z"/>
				</g>
				<path style="fill:#DE623C;" d="M2084.596,797.735c-3.235,3.975-6.023,8.021-9.232,10.461c-1.082,0.822-1.314,2.378-0.546,3.499
					c3.174,4.624,11.539,7.924,16.635,9.579c0.745,0.242,1.249-0.749,0.619-1.212c-5.342-3.911-7.754-6.925-8.804-8.604
					c-0.521-0.835-0.601-1.864-0.234-2.777c0.839-2.099,2.503-6.373,3.573-9.885
					C2086.976,797.582,2085.396,796.752,2084.596,797.735z"/>
				<path style="fill:#FFFFFF;" d="M2117.166,835.113c0.987-1.514-0.295-3.469-2.074-3.149c-4.523,0.817-12.01,2.01-19.199,2.441
					c-7.189,0.431-14.765,0.141-19.353-0.13c-1.805-0.106-2.845,1.989-1.684,3.374c3.572,4.261,10.809,10.617,21.827,9.957
					C2107.702,846.945,2114.128,839.77,2117.166,835.113z"/>
				<path style="fill:#201D40;" d="M2193.456,787.042c-45.971-2.08-106.43-44.509-113.737-67.805
					c6.273-29.31,29.384-45.874,56.988-34.984C2164.311,695.142,2209.537,749.437,2193.456,787.042z"/>
				<path style="fill:#201D40;" d="M2090.22,731.017c0,0-27.357,27.805-55.061,34.158c9.696-32.431,16.622-57.018,33.244-64.983
					c16.621-7.965,34.975-9.35,34.975-9.35L2090.22,731.017z"/>
				<g>
					<path style="fill:#F37A50;" d="M2166.892,783.888c-8.615,8.012-10.285,20.221-3.729,27.272c6.556,7.05,18.855,6.271,27.47-1.74
						c8.614-8.011,10.284-20.221,3.728-27.271C2187.804,775.098,2175.506,775.878,2166.892,783.888z"/>
					<g>
						<path style="fill:#DE623C;" d="M2174.319,807.962c-0.36-0.142-0.694-0.367-0.971-0.674c-3.968-4.412-4.769-9.692-2.144-14.123
							c2.688-4.537,8.204-6.991,13.117-5.835c1.383,0.327,2.24,1.711,1.914,3.093c-0.325,1.384-1.71,2.24-3.093,1.914
							c-2.692-0.634-5.991,0.881-7.513,3.449c-1.462,2.467-0.913,5.329,1.543,8.061c0.95,1.056,0.864,2.682-0.192,3.632
							C2176.232,808.153,2175.196,808.306,2174.319,807.962z"/>
					</g>
				</g>
				<path d="M2130.452,785.791c0,4.363-3.536,7.899-7.899,7.899c-4.362,0-7.898-3.536-7.898-7.899c0-4.362,3.536-7.899,7.898-7.899
					C2126.916,777.892,2130.452,781.429,2130.452,785.791z"/>
				<path d="M2072.89,785.791c0,4.363-3.536,7.899-7.898,7.899s-7.899-3.536-7.899-7.899c0-4.362,3.537-7.899,7.899-7.899
					S2072.89,781.429,2072.89,785.791z"/>
			</g>
			<g>
				<path style="fill:#F37A50;" d="M2054.163,1807.975c3.021-30.137-12.527-259.496-12.527-259.496
					c-43.975-201.639-26.701-345.979-26.701-345.979l75.582,5.311l29.789,113.943l-14.129,190.289c0,0,5.304,14.649,8.103,26.361
					c15.175,63.521,0.061,139.432-9.285,190.03c-4.33,23.446-11.066,72.724-11.243,83.923l18.989,24.548
					c0,0-68.722,76.056-79.294,76.532c-20.549,0.93-14.494-19.422-14.494-19.422
					C2047.198,1865.01,2053.298,1816.606,2054.163,1807.975z"/>
				<path style="fill:#C4204A;" d="M2113.916,1863.854l-3.781,48.866l-8.783,0.396l-4.442-45.38
					c-23.378,5.967-40.127,48.393-40.127,48.393c-16.102,5.774-57.035,9.736-71.602,2.23c-3.518-14.275,33.834-24.286,33.834-24.286
					c3.375,3.997,23.313,7.058,30.394,2.778c26.072-22.2,38.785-54.477,44.343-84.494
					C2093.751,1812.357,2134.948,1815.23,2113.916,1863.854z"/>
			</g>
			<g>
				<path style="fill:#F37A50;" d="M2079.723,1217.166L2186.2,1202.5c40.731,92.154,54.01,252.605,65.066,309.763
					c44.384,74.419,58.477,300.095,58.477,300.095l18.989,24.548c0,0-68.722,76.056-79.294,76.532
					c-20.548,0.93-14.494-19.422-14.494-19.422c28.246-29.006,33.753-67.542,35.581-76.021
					c2.749-12.743-86.184-263.101-86.184-263.101l-9.494-23.754c-108.623-179.409-126.446-315.041-126.446-315.041
					L2079.723,1217.166z"/>
				<path style="fill:#C4204A;" d="M2329.908,1863.854l-3.781,48.866l-8.783,0.396l-4.441-45.38
					c-23.379,5.967-40.128,48.393-40.128,48.393c-16.103,5.774-57.035,9.736-71.602,2.23c-3.518-14.275,33.834-24.286,33.834-24.286
					c3.374,3.997,23.313,7.058,30.394,2.778c26.071-22.2,38.786-54.477,44.343-84.494
					C2309.743,1812.357,2350.94,1815.23,2329.908,1863.854z"/>
			</g>
			<g>
				<g>
					<g>
						<g>
							<path style="fill:#070635;" d="M2277.682,1501.795c-10.634-35.578-6.007-290.234-99.88-359.48l-161.541,17.02
								c-37.33,60.426-23.635,217.652-11.065,347.049C2081.147,1533.493,2141.536,1544.373,2277.682,1501.795z"/>
						</g>
					</g>
				</g>
			</g>
			<g>
				<g>
					<g>
						<path style="fill:#95A6DB;" d="M2014.29,1119.475c0-35.377-30.659-88.377-15.963-124.088
							c10.705-28.727,29.456-80.524,51.354-88.57c10.333-3.797,20.084-2.869,32.96-6.429c0,0-4.004,23.54,11.131,24.753
							c29.133,2.336,44.444-35.013,44.444-35.013c15.707-1.502,70.485,14.847,70.453,20.763
							c-0.171,46.341-20.551,121.277-32.862,171.379c-2.284,25.51-0.477,45.299,2.078,59.734
							c4.664,15.049,10.36,23.664,10.396,26.919c0,0-107.985,36.686-176.692-1.14
							C2011.59,1167.783,2014.29,1143.367,2014.29,1119.475z"/>
					</g>
				</g>
			</g>
			<g id="c_36_">
				<path style="fill:#F37A50;" d="M2206.411,1153.097l-9.204,3.679c0,0-9.593-15.256-19.321-14.771l4.849,14.573
					c0,0-5.503,17.034-34.974,15.085c-25.174,5.723-7.563,17.674-14.533,22.455c-10.284,7.054,18.558,24.377,42.857,16.906
					c31.441-9.67,51.869-39.359,51.869-39.359L2206.411,1153.097z"/>
			</g>
			<path style="fill:#F37A50;" d="M2206.411,908.117c0,0,76.94,45.07,114.194,153.1c-33.461,37.094-61.651,9.414-61.651,9.414
				l-74.542-73.655c0,0-21.912-26.915-11.434-59.793C2182.106,908.544,2206.411,908.117,2206.411,908.117z"/>
			<path style="fill:#F37A50;" d="M2206.411,1153.097l53.789-78.778c0,0,12.705-30.217,60.405-13.102
				c2.308,25.646-16.262,62.166-101.339,118.44C2213.772,1165.297,2206.411,1153.097,2206.411,1153.097z"/>
			<path style="fill:#FFFFFF;" d="M2093.772,925.141c-2.598,12.119,4.444,26.65,24.748,19.836
				c24.319-8.161,35.679-53.806,35.679-53.806l-15.249-8.26C2138.95,882.911,2127.373,914.44,2093.772,925.141z"/>
			<path style="fill:#FFFFFF;" d="M2093.772,925.141c-3.002,6.242-20.105,22.25-28.211,12.715
				c-8.106-9.535,1.356-34.562,1.356-34.562l18.442-9.369C2085.36,893.925,2078.13,916.466,2093.772,925.141z"/>
			<path style="fill:#7890DB;" d="M2206.411,908.117c0,0,76.94,45.07,114.194,153.1c-33.461,37.094-64.556,6.544-64.556,6.544
				l-71.638-70.785c0,0-21.912-26.915-11.434-59.793C2182.106,908.544,2206.411,908.117,2206.411,908.117z"/>
			<path id="c_35_" style="fill:#F37A50;" d="M1996.619,1189.787c0.551-0.379,1.154-0.623,1.775-0.81
				c-0.066-0.091-0.138-0.177-0.202-0.271c-3.814-5.543-3.68-12.255,0.298-14.988c0.653-0.447,1.373-0.749,2.131-0.936
				c-1.117-4.133-0.248-8.113,2.593-10.066c1.128-0.773,2.445-1.133,3.838-1.142c-1.383-4.058-0.414-8.358,2.767-10.543
				c3.978-2.733,9.842-1.114,13.098,3.618c3.254,4.732,2.668,10.784-1.311,13.518c-1.007,0.691-2.135,1.104-3.311,1.258
				c2.768,5.172,2.326,10.895-1.271,13.366c-0.652,0.449-1.372,0.749-2.13,0.937c1.116,4.134,0.247,8.113-2.593,10.066
				c-1.048,0.719-2.259,1.083-3.542,1.139c1.392,3.547,0.613,7.404-2.184,9.325c-3.359,2.311-8.312,0.942-11.061-3.056
				C1992.765,1197.209,1993.26,1192.097,1996.619,1189.787z"/>
		</g>
	</g>
	<g>
		<g>
			<path style="fill:#F37A50;" d="M1661.412,1860.797l-30.85,14.335l-15.652-32.646l-44.813-293.049
				c7.739-98.023,82.813-306.563,82.813-306.563l86.684,126.032l-98.393,198.26
				C1679.865,1606.738,1656.455,1728.482,1661.412,1860.797z"/>
			<path style="fill:#F37A50;" d="M1703.754,1249.785c0.773-6.057,97.496-14.719,97.496-14.719
				c18.316,76.451,19.762,200.049,5.314,284.449c21.154,73.045,10.995,244.736-0.778,332.308l-50.977-0.128
				c-3.353-47.309-0.851-202.188-42.583-332.18C1703.972,1470.692,1700.4,1282.333,1703.754,1249.785z"/>
		</g>
		<g>
			<path style="fill:#E62552;" d="M1634.755,1862.252c-6.326-17.785-19.845-19.766-19.845-19.766
				c-26.282,37.545-90.822,14.508-88.686,65.291c98.146-0.652,138.936,0,138.936,0c-0.128-11.664-2.069-39.349-4.333-50.186
				l-5.114,0.973L1634.755,1862.252z"/>
			<path style="fill:#FFFFFF;" d="M1532.758,1921.334h125.817c3.637,0,6.585-2.949,6.585-6.586v-8.369h-138.987v8.369
				C1526.173,1918.385,1529.121,1921.334,1532.758,1921.334z"/>
		</g>
		<g>
			<path style="fill:#E62552;" d="M1742.659,1908.27c0,0,7.878-31.484,8.573-35.527c0.789-4.601,3.105-15.472,3.577-21.047
				c0.116-1.373,13.645-10.234,23.974-10.217c13.992,0.023,26.746,8.706,27.003,10.345c1.652,10.507,1.701,22.858,4.377,33.09
				c1.989,7.612,7.396,25.347,7.396,25.347L1742.659,1908.27z"/>
			<g>
				<g>
					<g>
						<g>
							<path style="fill:#FFFFFF;" d="M1742.66,1905.822c1.837,6.249,24.49-0.961,41.022-0.955
								c13.879,0.004,31.838,5.764,33.878,3.522c3.47,6.563,0.612,20.171,0.612,20.171s-14.464,0.802-31.811,0
								c-17.349-0.8-37.396,0.385-44.949-2.018C1736.649,1918.009,1742.66,1905.822,1742.66,1905.822z"/>
						</g>
					</g>
				</g>
			</g>
		</g>
		<path d="M1583.175,737.106c-3.175-43.23,9.324-81.421,43.792-100.871c34.938-19.713,78.704-0.379,78.704-0.379l0,0
			c0.003-0.002,37.046-13.18,70.619,23.802c33.574,36.983,8.178,69.527,21.913,96.499c8.134,15.972,49.492,19.266,38.809,71.292
			c-3.082,15.005-21.128,25.104-36.413,26.108c-26.854,1.764-51.861-8.618-62.748,1.764c-35.873,34.21-115.367,21.837-126.493-9.455
			c-3.449-9.703-74.958,9.073-67.823-57.014C1547.148,755.364,1586.012,775.733,1583.175,737.106z"/>
		<g>
			<g>
				<g>
					<path style="fill:#F37A50;" d="M1663.049,830.481l46.1-6.904l-3.673,42.79c0,0-13.647,39.986-40.841,40.755
						c-27.193,0.769-17.103-31.299-17.103-31.299L1663.049,830.481z"/>
				</g>
			</g>
		</g>
		<g>
			<g>
				<g>
					<path style="fill:#3F964F;" d="M1579.156,1096.033c0-36.14-31.321-90.283-16.307-126.765
						c10.936-29.348,29.203-78.613,51.575-86.832c10.556-3.878,21.162-6.513,34.316-10.15c0,0-3.849,23.981,11.611,25.221
						c29.762,2.387,45.531-35.9,45.531-35.9c16.047-1.534,88.975,22.462,92.416,34.193c-0.175,47.339-41.564,111.043-54.143,162.227
						c-4.947,55.277,6.863,84.789,6.934,91.078c0,0-104.504,34.922-174.693-3.719
						C1576.397,1145.385,1579.156,1120.44,1579.156,1096.033z"/>
				</g>
			</g>
		</g>
		<g>
			<path style="fill:#F37A50;" d="M1748.131,768.568c-9.44,50.229-49.074,84.937-88.523,77.521
				c-39.449-7.415-63.775-54.144-54.335-104.372c9.441-50.228,49.074-84.935,88.523-77.52
				C1733.245,671.612,1757.571,718.341,1748.131,768.568z"/>
			<g>
				<path d="M1705.945,748.345c-0.562-0.125-1.087-0.436-1.475-0.92c-5.635-7.025-15.95-6.118-16.054-6.108
					c-1.441,0.14-2.729-0.914-2.871-2.355c-0.143-1.441,0.904-2.726,2.345-2.873c0.536-0.055,13.234-1.235,20.679,8.049
					c0.908,1.132,0.727,2.786-0.405,3.694C1707.516,748.351,1706.698,748.513,1705.945,748.345z"/>
			</g>
			<g>
				<path d="M1621.101,747.607c-0.27-0.081-0.531-0.207-0.774-0.38c-1.18-0.844-1.453-2.485-0.609-3.666
					c6.553-9.169,16.848-7.611,17.282-7.541c1.43,0.233,2.404,1.584,2.172,3.016c-0.232,1.428-1.576,2.399-3.004,2.174
					c-0.337-0.051-7.565-1.042-12.174,5.407C1623.322,747.555,1622.147,747.92,1621.101,747.607z"/>
			</g>
			<path style="fill:#DE623C;" d="M1653.188,768.637c-3.087,3.581-5.726,7.283-8.842,9.342c-1.05,0.694-1.225,2.214-0.416,3.414
				c3.34,4.954,11.819,9.185,16.973,11.408c0.752,0.325,1.221-0.603,0.573-1.133c-5.48-4.494-8.001-7.762-9.111-9.55
				c-0.553-0.889-0.669-1.919-0.337-2.787c0.761-1.988,2.267-6.046,3.208-9.412C1655.561,768.756,1653.951,767.751,1653.188,768.637
				z"/>
			<path style="fill:#FFFFFF;" d="M1686.844,807.115c0.978-1.567-0.371-3.54-2.182-3.175c-4.604,0.924-12.226,2.292-19.56,2.877
				c-7.334,0.584-15.078,0.439-19.77,0.254c-1.846-0.072-2.866,2.088-1.652,3.48c3.735,4.279,11.252,10.627,22.494,9.732
				C1677.416,819.389,1683.834,811.931,1686.844,807.115z"/>
			<path d="M1685.548,756.533c0,4.487,3.638,8.123,8.123,8.123c4.488,0,8.124-3.636,8.124-8.123c0-4.487-3.636-8.125-8.124-8.125
				C1689.186,748.408,1685.548,752.045,1685.548,756.533z"/>
			<path d="M1625.559,756.533c0,4.487,3.636,8.123,8.124,8.123c4.486,0,8.124-3.636,8.124-8.123c0-4.487-3.638-8.125-8.124-8.125
				C1629.195,748.408,1625.559,752.045,1625.559,756.533z"/>
			<path d="M1647.743,662.042c0,0,0,0,0,0.001c17.735-16.884,49.675-24.284,70.568-15.093c27.749,12.206,56.19,68.981,38.29,106.734
				c-36.701-3.087-86.048-30.888-108.845-54.36c-6.331,5.652-22.332,19.077-42.652,29.821
				C1602.672,711.207,1639.522,665.583,1647.743,662.042z"/>
			<g>
				<path style="fill:#F37A50;" d="M1737.176,748.297c-9.111,7.838-11.297,20.235-4.883,27.691c6.414,7.456,19,7.147,28.11-0.691
					c9.111-7.837,11.296-20.235,4.883-27.692C1758.872,740.15,1746.286,740.459,1737.176,748.297z"/>
				<g>
					<path style="fill:#DE623C;" d="M1743.808,773.164c-0.362-0.159-0.693-0.402-0.964-0.726
						c-3.876-4.661-4.486-10.082-1.631-14.502c2.923-4.526,8.651-6.812,13.621-5.437c1.398,0.387,2.219,1.834,1.831,3.233
						c-0.387,1.398-1.835,2.218-3.232,1.831c-2.724-0.753-6.15,0.663-7.806,3.224c-1.59,2.461-1.143,5.405,1.258,8.291
						c0.928,1.116,0.776,2.772-0.34,3.701C1745.753,773.436,1744.69,773.55,1743.808,773.164z"/>
				</g>
			</g>
		</g>
		<g>
			<g>
				<g>
					<g>
						<path style="fill:#3F964F;" d="M1856.035,1491.406c-52.949-65.406-14.171-297.327-110.07-368.068l-164.796,13.415
							c-54.996,71.29-16.87,223.841-62.056,369.189C1596.704,1533.637,1716.954,1534.904,1856.035,1491.406z"/>
					</g>
				</g>
			</g>
		</g>
		<g id="c_34_">
			<path style="fill:#F37A50;" d="M1788.371,1145.052l-9.681,3.87c0,0-10.091-16.047-20.322-15.535l5.1,15.325
				c0,0-5.787,17.917-36.784,15.866c-26.479,6.02-7.955,18.59-15.285,23.617c-10.817,7.42,19.518,25.641,45.075,17.783
				c33.069-10.17,54.556-41.398,54.556-41.398L1788.371,1145.052z"/>
		</g>
		<path style="fill:#F37A50;" d="M1788.371,1145.052l56.574-82.856c0,0,13.363-31.783,63.532-13.781
			c2.428,26.973-17.104,65.385-106.586,124.574C1796.113,1157.885,1788.371,1145.052,1788.371,1145.052z"/>
		<path style="fill:#F37A50;" d="M1788.371,887.387c0,0,80.924,47.403,120.106,161.027c-35.193,39.016-67.898,6.883-67.898,6.883
			l-75.347-74.451c0,0-23.047-28.309-12.025-62.889C1762.807,887.836,1788.371,887.387,1788.371,887.387z"/>
		<path style="fill:#FFFFFF;" d="M1642.027,881.706c0,4.238-3.436,7.673-7.674,7.673s-7.673-3.435-7.673-7.673
			c0-4.239,3.435-7.675,7.673-7.675S1642.027,877.467,1642.027,881.706z"/>
		<path style="fill:#FFFFFF;" d="M1642.027,897.053c0,4.238-3.436,7.674-7.674,7.674s-7.673-3.436-7.673-7.674
			c0-4.238,3.435-7.674,7.673-7.674S1642.027,892.815,1642.027,897.053z"/>
		<path style="fill:#FFFFFF;" d="M1644.506,911.04c0,4.239-3.436,7.674-7.673,7.674c-4.239,0-7.675-3.436-7.675-7.674
			c0-4.238,3.436-7.674,7.675-7.674C1641.07,903.366,1644.506,906.802,1644.506,911.04z"/>
		<path style="fill:#FFFFFF;" d="M1653.374,922.055c0,4.238-3.436,7.674-7.674,7.674c-4.237,0-7.674-3.435-7.674-7.674
			c0-4.238,3.437-7.674,7.674-7.674C1649.938,914.381,1653.374,917.817,1653.374,922.055z"/>
		<circle style="fill:#FFFFFF;" cx="1660.276" cy="926.388" r="7.674"/>
		<path style="fill:#FFFFFF;" d="M1682.27,922.055c0,4.238-3.436,7.674-7.674,7.674c-4.239,0-7.675-3.435-7.675-7.674
			c0-4.238,3.436-7.674,7.675-7.674C1678.834,914.381,1682.27,917.817,1682.27,922.055z"/>
		<path style="fill:#FFFFFF;" d="M1694.847,914.381c0,4.239-3.435,7.674-7.674,7.674c-4.238,0-7.675-3.436-7.675-7.674
			c0-4.238,3.436-7.673,7.675-7.673C1691.411,906.708,1694.847,910.143,1694.847,914.381z"/>
		<path style="fill:#FFFFFF;" d="M1704.964,904.727c0,4.238-3.436,7.674-7.674,7.674s-7.674-3.436-7.674-7.674
			c0-4.239,3.437-7.674,7.674-7.674S1704.964,900.488,1704.964,904.727z"/>
		<path style="fill:#FFFFFF;" d="M1715.428,895.06c0,4.239-3.436,7.674-7.674,7.674s-7.674-3.435-7.674-7.674
			c0-4.238,3.436-7.673,7.674-7.673S1715.428,890.822,1715.428,895.06z"/>
		<path style="fill:#FFFFFF;" d="M1723.103,883.497c0,4.238-3.436,7.674-7.675,7.674c-4.238,0-7.674-3.435-7.674-7.674
			c0-4.238,3.436-7.674,7.674-7.674C1719.667,875.823,1723.103,879.259,1723.103,883.497z"/>
		<path style="fill:#FFFFFF;" d="M1728.059,870.831c0,4.237-3.436,7.674-7.675,7.674c-4.237,0-7.673-3.437-7.673-7.674
			c0-4.238,3.436-7.674,7.673-7.674C1724.623,863.157,1728.059,866.592,1728.059,870.831z"/>
	</g>
	<path style="fill:#201D40;" d="M2773.183,1949.381H464.194c-7.532,0-13.639-6.106-13.639-13.641l0,0
		c0-7.532,6.107-13.639,13.639-13.639h2308.988c7.534,0,13.642,6.106,13.642,13.639l0,0
		C2786.824,1943.274,2780.717,1949.381,2773.183,1949.381z"/>
	<g>
		<g id="с_52_">
			<path id="с_53_" style="fill:#95A6DB;" d="M2254.404,1460.428H1080.989c-27.579,0-49.936-15.044-49.936-33.603l0,0
				c0-18.558,22.356-33.601,49.936-33.601h1173.415c27.577,0,49.936,15.044,49.936,33.601l0,0
				C2304.34,1445.384,2281.981,1460.428,2254.404,1460.428z"/>
			<g>
				<path style="fill:#95A6DB;" d="M1520.775,1933.928L1520.775,1933.928c-12.576,0-20.134-13.956-13.261-24.488l309.822-474.788
					l26.521,17.307l-309.822,474.788C1531.113,1931.227,1526.125,1933.928,1520.775,1933.928z"/>
			</g>
			<g>
				<path style="fill:#95A6DB;" d="M1814.617,1933.928L1814.617,1933.928c12.578,0,20.135-13.956,13.261-24.488l-309.821-474.788
					l-26.523,17.307l309.821,474.788C1804.279,1931.227,1809.269,1933.928,1814.617,1933.928z"/>
			</g>
		</g>
		<g id="с_44_">
			<path id="с_51_" style="fill:#768FDB;" d="M2301.114,1926.406L2301.114,1926.406c-8.377,0-15.168-6.791-15.168-15.168v-268.747
				h30.335v268.747C2316.281,1919.615,2309.49,1926.406,2301.114,1926.406z"/>
			<path id="с_50_" style="fill:#768FDB;" d="M2407.549,1926.406L2407.549,1926.406c-8.378,0-15.169-6.791-15.169-15.168v-268.747
				h30.338v268.747C2422.718,1919.615,2415.927,1926.406,2407.549,1926.406z"/>
			<path id="с_49_" style="fill:#768FDB;" d="M2547.209,1926.406L2547.209,1926.406c-8.376,0-15.169-6.791-15.169-15.168v-268.747
				h30.336v268.747C2562.376,1919.615,2555.585,1926.406,2547.209,1926.406z"/>
			<path id="с_48_" style="fill:#768FDB;" d="M2653.644,1926.406L2653.644,1926.406c-8.377,0-15.168-6.791-15.168-15.168v-268.747
				h30.337v268.747C2668.813,1919.615,2662.021,1926.406,2653.644,1926.406z"/>
			<path id="с_47_" style="fill:#95A6DB;" d="M2485.816,1243.646v319.812c0,3.639-2.949,6.59-6.589,6.59h-198.289
				c-20.006,0-36.224,16.217-36.224,36.222l0,0c0,20.006,16.218,36.223,36.224,36.223h204.878h36.223
				c20.007,0,36.224-16.217,36.224-36.223v-36.222v-326.401c0-20.005-16.217-36.223-36.224-36.223l0,0
				C2502.033,1207.423,2485.816,1223.641,2485.816,1243.646z"/>
			<rect id="с_46_" x="2522.039" y="1207.423" style="fill:#95A6DB;" width="156.775" height="368.497"/>
			<path id="с_45_" style="fill:#768FDB;" d="M2642.59,1243.646v319.812c0,3.639-2.95,6.59-6.589,6.59h-198.289
				c-20.005,0-36.223,16.217-36.223,36.222l0,0c0,20.006,16.218,36.223,36.223,36.223h204.878h36.225
				c20.005,0,36.223-16.217,36.223-36.223v-36.222v-326.401c0-20.005-16.218-36.223-36.223-36.223h-0.001
				C2658.808,1207.423,2642.59,1223.641,2642.59,1243.646z"/>
		</g>
		<g id="с_36_">
			<path id="с_43_" style="fill:#768FDB;" d="M1019.429,1926.406L1019.429,1926.406c8.377,0,15.168-6.791,15.168-15.168v-268.747
				h-30.337v268.747C1004.26,1919.615,1011.051,1926.406,1019.429,1926.406z"/>
			<path id="с_42_" style="fill:#768FDB;" d="M912.993,1926.406L912.993,1926.406c8.378,0,15.168-6.791,15.168-15.168v-268.747
				h-30.336v268.747C897.825,1919.615,904.616,1926.406,912.993,1926.406z"/>
			<path id="с_41_" style="fill:#768FDB;" d="M773.333,1926.406L773.333,1926.406c8.377,0,15.169-6.791,15.169-15.168v-268.747
				h-30.337v268.747C758.165,1919.615,764.956,1926.406,773.333,1926.406z"/>
			<path id="с_40_" style="fill:#768FDB;" d="M666.898,1926.406L666.898,1926.406c8.377,0,15.168-6.791,15.168-15.168v-268.747
				H651.73v268.747C651.73,1919.615,658.521,1926.406,666.898,1926.406z"/>
			<path id="с_39_" style="fill:#95A6DB;" d="M834.727,1243.646v319.812c0,3.639,2.95,6.59,6.59,6.59h198.288
				c20.006,0,36.224,16.217,36.224,36.222l0,0c0,20.006-16.218,36.223-36.224,36.223H834.727h-36.224
				c-20.006,0-36.224-16.217-36.224-36.223v-36.222v-326.401c0-20.005,16.218-36.223,36.224-36.223l0,0
				C818.509,1207.423,834.727,1223.641,834.727,1243.646z"/>
			
				<rect id="с_38_" x="641.729" y="1207.423" transform="matrix(-1 -1.224647e-16 1.224647e-16 -1 1440.2314 2783.3428)" style="fill:#95A6DB;" width="156.774" height="368.497"/>
			<path id="с_37_" style="fill:#768FDB;" d="M677.952,1243.646v319.812c0,3.639,2.95,6.59,6.59,6.59H882.83
				c20.006,0,36.224,16.217,36.224,36.222l0,0c0,20.006-16.218,36.223-36.224,36.223H677.952h-36.224
				c-20.006,0-36.224-16.217-36.224-36.223v-36.222v-326.401c0-20.005,16.218-36.223,36.224-36.223l0,0
				C661.734,1207.423,677.952,1223.641,677.952,1243.646z"/>
		</g>
		<g>
			<path style="fill:#2C2858;" d="M2405.128,1121.424c-33.458-12.068-85.134-38.457-50.79-86.676
				c34.344-48.22,33.467-27.174,21.106-85.745c-12.36-58.572,29.285-104.646,68.989-92.987
				c39.702,11.66,49.834,43.789,98.502,35.657c48.667-8.133,89.119,37.386,70.8,76.857c-18.319,39.47-26.144,58.476-9.015,80.326
				c17.13,21.848,94.313,45.383,62.121,97.727c-32.191,52.342-46.945,49.129-35.764,75.961
				c11.182,26.831-14.609,57.379-59.355,53.207s-85.252-21.091-101.663-71.053
				C2453.649,1154.736,2405.128,1121.424,2405.128,1121.424z"/>
			<path style="fill:#F37A50;" d="M2286.769,1882.25l-26.434,7.896l-19.909-20.352c0.951-1.412,0.036-15.047-3.041-29.575
				l49.384-8.196C2288.738,1847.072,2286.769,1867.053,2286.769,1882.25z"/>
			<path style="fill:#E62552;" d="M2260.529,1885.392c-6.287-16.502-19.722-18.339-19.722-18.339
				c-26.115,34.835-90.251,13.461-88.128,60.576c97.53-0.605,138.063,0,138.063,0c-0.129-10.82-2.057-36.506-4.307-46.561
				l-5.082,0.902L2260.529,1885.392z"/>
			<path style="fill:#F37A50;" d="M2110.944,1887.165l-27.522,1.886l-15.828-16.86c1.238-1.167,4.23-22.044,4.426-36.894
				l46.397,2.063C2117.027,1852.476,2114.289,1872.34,2110.944,1887.165z"/>
			<path style="fill:#E62552;" d="M2086.41,1885.392c-6.285-16.502-19.72-18.339-19.72-18.339
				c-26.116,34.835-90.252,13.461-88.129,60.576c97.529-0.605,138.064,0,138.064,0c-0.129-10.82-2.058-36.506-4.308-46.561
				l-5.082,0.902L2086.41,1885.392z"/>
			<path style="fill:#0E6A41;" d="M2389.311,1426.896c-75.143,10.114-286.821,88.558-298.619,102.751
				c-24.37,29.316-11.523,188.82-23.098,320.44l61.525,3.635c29.472-107.188,27.123-153.449,40.451-276.391
				c0,0,241.835,18.113,329.223-40.873C2588.892,1475.643,2450.074,1412.484,2389.311,1426.896z"/>
			<path style="fill:#DE623C;" d="M2291.384,1270.639c17.758,3.03,24.598,17.275,28.881,43.516
				c-67.65,39.854-168.158,42.691-168.158,42.691l-32.034-15.844C2120.072,1341.002,2200.663,1311.976,2291.384,1270.639z"/>
			<path style="fill:#DE623C;" d="M2476.373,1195.637c-29.607,43.021-143.027,135.539-161.803,138.457l-22.743-63.658
				c0,0,110.737-119.854,130.896-141.037C2457.546,1092.637,2524.844,1125.491,2476.373,1195.637z"/>
			<path style="fill:#FF4F78;" d="M2351.644,1188.754c23.743-25.581,54.663-83.322,94.9-79.217
				c40.235,4.105,43.145,46.805,31.016,69.797c-12.13,22.992-54.008,79.65-54.008,79.65L2351.644,1188.754z"/>
			<path style="fill:#F37A50;" d="M2358.934,1296.982c17.052,5.873,26.789,59.598,22.004,63.707
				c-73.118,28.96-225.249-2.36-225.249-2.36l-8.077-27.552C2147.611,1330.777,2262.802,1323.725,2358.934,1296.982z"/>
			<path style="fill:#E62552;" d="M2599.507,1472.058c-16.721-86.263-23.927-116.835-30.872-157.434
				c-17.164-100.334,33.303-170.852-53.219-218.938l-63.064,10.166c-50.991,53.646-82.384,102.342-85.074,135.979
				c-3.7,43.389,39.355,66.935,39.355,66.935l-17.322,118.131c0,0-4.077,9.646,67.034,23.078
				C2527.453,1463.406,2599.507,1472.058,2599.507,1472.058z"/>
			<path style="fill:#F37A50;" d="M2547.67,1207.877c-29.607,43.52-156.117,154.12-175.127,155.101l-13.609-65.995
				c0,0,114.928-134.684,135.087-156.113C2528.844,1103.685,2596.142,1136.918,2547.67,1207.877z"/>
			<path style="fill:#FF4F78;" d="M2426.724,1208.182c22.091-32.146,66.659-91.455,106.894-87.349
				c40.236,4.106,43.146,46.806,31.017,69.798c-12.129,22.991-54.009,79.65-54.009,79.65L2426.724,1208.182z"/>
			<path style="fill:#F37A50;" d="M2147.611,1330.777c-23.26-5.717-73.831-22.708-94.191,30.553
				c5.107,9.775,23.829-14.357,31.872-16.595c12.766-3.549,23.718,3.159,33.38,12.396c13.855,13.24,37.017,1.198,37.017,1.198
				L2147.611,1330.777z"/>
			<g>
				<path style="fill:#FF4F78;" d="M2129.514,1392.66h-218.492v-29.337h247.829l0,0
					C2158.851,1379.524,2145.716,1392.66,2129.514,1392.66z"/>
				<path style="fill:#FF4F78;" d="M1798.672,1208.359l112.351,184.301l25.969-13.651L1810.99,1168.74l0,0
					C1796.648,1176.278,1791.133,1194.017,1798.672,1208.359z"/>
			</g>
			<path style="fill:#F37A50;" d="M2544.276,1013.498c-10.624,44.37-47.488,73.577-82.339,65.232
				c-34.85-8.344-54.488-51.08-43.865-95.452c10.625-44.373,47.49-73.579,82.34-65.234
				C2535.263,926.389,2554.9,969.124,2544.276,1013.498z"/>
			<path style="fill:#F37A50;" d="M2527.395,1036.867l-57.915,35.9c0,0-5.139,25.596-7.703,33.9
				c-5.294,17.137,14.986,24.625,32.132,13.957c17.145-10.668,21.508-24.939,21.508-24.939L2527.395,1036.867z"/>
			<path style="fill:#2C2858;" d="M2414.087,966.334c16.458,1.416,52.114-1.442,65.117-16.86
				c9.271,31.307,48.676,61.107,81.271,75.081c1.308-32.122,1.068-91.213-56.512-115.763
				C2458.727,889.505,2414.087,966.334,2414.087,966.334z"/>
			<path d="M2434.405,994.935c-1.534,3.081-5.275,4.335-8.357,2.8c-3.081-1.535-4.333-5.276-2.799-8.358
				c1.534-3.08,5.275-4.335,8.355-2.8C2434.686,988.111,2435.94,991.854,2434.405,994.935z"/>
			<path d="M2483.354,1007.011c-1.662,3.335-5.712,4.69-9.047,3.03c-3.335-1.661-4.692-5.711-3.031-9.046
				c1.662-3.335,5.712-4.692,9.047-3.031C2483.658,999.625,2485.016,1003.675,2483.354,1007.011z"/>
			<g>
				<path style="fill:#2C2858;" d="M2490.813,1001.424c-0.461-0.229-0.848-0.612-1.081-1.114c-3.38-7.294-12.515-8.715-12.607-8.728
					c-1.278-0.188-2.168-1.376-1.984-2.658c0.185-1.278,1.366-2.167,2.647-1.987c0.478,0.067,11.734,1.762,16.201,11.4
					c0.545,1.177,0.033,2.57-1.142,3.116C2492.173,1001.765,2491.429,1001.731,2490.813,1001.424z"/>
			</g>
			<g>
				<path style="fill:#2C2858;" d="M2420.813,985.902c-0.226-0.113-0.437-0.263-0.623-0.452c-0.91-0.921-0.901-2.406,0.02-3.317
					c7.157-7.071,15.978-4.138,16.349-4.01c1.222,0.421,1.876,1.756,1.452,2.982c-0.421,1.22-1.749,1.872-2.971,1.456
					c-0.29-0.095-6.499-2.063-11.532,2.91C2422.775,986.193,2421.686,986.337,2420.813,985.902z"/>
			</g>
			<path style="fill:#DE623C;" d="M2438.413,1008.486c-3.418,3.518-6.418,7.143-9.683,9.201c-1.101,0.692-1.454,2.156-0.814,3.291
				c2.639,4.675,10.338,8.525,15.059,10.531c0.688,0.293,1.255-0.609,0.691-1.103c-4.766-4.18-6.813-7.257-7.674-8.946
				c-0.426-0.84-0.416-1.828,0.011-2.668c0.977-1.931,2.923-5.867,4.239-9.127
				C2440.696,1008.541,2439.259,1007.617,2438.413,1008.486z"/>
			<path style="fill:#F37A50;" d="M2527.506,1013.78c-8.468,6.588-10.962,17.547-5.57,24.478c5.392,6.93,16.628,7.207,25.095,0.618
				c8.47-6.589,10.963-17.546,5.572-24.477C2547.21,1007.469,2535.976,1007.191,2527.506,1013.78z"/>
			<g>
				<path style="fill:#DE623C;" d="M2532.327,1036.245c-0.316-0.158-0.601-0.39-0.827-0.69c-3.252-4.324-3.558-9.186-0.818-13.002
					c2.805-3.906,8.016-5.694,12.386-4.252c1.229,0.41,1.897,1.734,1.491,2.965c-0.406,1.23-1.732,1.896-2.964,1.491
					c-2.394-0.792-5.514,0.321-7.102,2.531c-1.524,2.124-1.256,4.77,0.758,7.447c0.776,1.035,0.57,2.507-0.467,3.285
					C2534.05,1036.572,2533.097,1036.628,2532.327,1036.245z"/>
			</g>
			<path style="fill:#3F964F;" d="M2473.385,1440.605c-75.141,10.114-287.139,78.822-298.938,93.015
				c-24.369,29.316,29.884,154.854,47.238,316.466h72.532c-0.759-115.152,8.438-221.086-26.994-258.628
				c0,0,203.2-13.561,304.499-13.561C2623.357,1577.897,2651.936,1403.407,2473.385,1440.605z"/>
			<path style="fill:#FFFFFF;" d="M2435.244,1045.825c-1.003-1.354,0.083-3.243,1.756-3.041c4.251,0.511,11.279,1.21,17.987,1.217
				c6.71,0.007,13.739-0.677,17.991-1.181c1.674-0.197,2.755,1.694,1.751,3.045c-3.089,4.158-9.47,10.465-19.754,10.455
				S2438.323,1049.988,2435.244,1045.825z"/>
		</g>
		<g>
			<g>
				<path style="fill:#F37A50;" d="M992.313,1316.518c-14.349,9.553-10.376,61.586-4.958,64.231
					c74.613,9.116,200.637-52.698,200.637-52.698l4.936-27.652C1192.928,1300.399,1087.673,1318.029,992.313,1316.518z"/>
				<path style="fill:#F37A50;" d="M828.37,1226.293c26.673,42.655,143.424,152.949,161.543,154.587l15.431-62.53
					c0,0-104.802-132.867-123.265-154.076C850.191,1127.475,784.69,1156.736,828.37,1226.293z"/>
			</g>
			<path style="fill:#2C2858;" d="M892.177,998.373c3.207-43.671-9.419-82.255-44.24-101.903
				c-35.295-19.915-79.511-0.383-79.511-0.383l0,0c-0.003,0-37.425-13.313-71.342,24.048c-33.917,37.36-8.262,70.238-22.138,97.485
				c-8.217,16.136-49.998,19.464-39.205,72.024c3.113,15.157,21.344,25.359,36.785,26.374c27.13,1.782,52.394-8.706,63.392,1.782
				c36.238,34.56,116.549,22.061,127.787-9.553c3.485-9.803,75.727,9.167,68.519-57.598
				C928.572,1016.82,889.31,1037.399,892.177,998.373z"/>
			<g>
				<g>
					<g>
						<polygon style="fill:#F37A50;" points="825.979,1139.549 768.624,1128.96 747.116,1157.575 792.825,1251.288 
							860.055,1194.225 						"/>
					</g>
				</g>
			</g>
			<g>
				<g>
					<g>
						<path style="fill:#3F964F;" d="M900.326,1365.503c-0.98-17.831,27.835-91.054,12.667-127.912
							c-11.047-29.647-29.503-79.417-52.102-87.721c-10.665-3.919-21.624-6.647-34.912-10.321c0,0,7.497,37.361-8.121,38.613
							c-30.067,2.41-49.233-49.202-49.233-49.202c-16.21-1.549-90.569,22.884-90.533,28.989
							c0.176,47.824,39.031,117.602,51.737,169.309c4.999,55.844-14.484,122.67-14.555,129.023c0,0,119.619,33.628,190.526-5.41
							C907.282,1445.438,901.679,1390.124,900.326,1365.503z"/>
					</g>
				</g>
			</g>
			<path style="fill:#3F964F;" d="M733.268,1398.902c0,0-26.407,66.625-32.847,108.563c-6.44,41.939,29.903,68.85,29.903,68.85
				h302.228c0,0,32.356-52.474,23.037-88.706c-9.32-36.232-30.755-41.994-30.755-41.994L733.268,1398.902z"/>
			<path style="fill:#DE623C;" d="M1036.601,1443.758c-38.587-5.443-150.573,38.055-198.324,132.557h133.589L1036.601,1443.758z"/>
			<g>
				<path style="fill:#DE623C;" d="M994.284,1478.54c4.988-5.458,9.515-12.185,13.5-19.208
					c11.261-19.839,38.406-23.191,53.733-6.292c55.7,61.41,174.444,201.407,200.915,218.829c7.479,4.922,51.121,30.05,92.608,25.081
					c0,0,20.479,7.796,6.835,24.06c-7.019,8.369-112.454,17.018-112.454,17.018l-8.218-30.959
					c-61.374-45.424-137.776-42.157-202.559-125.201C1002.972,1536.137,994.284,1478.54,994.284,1478.54z"/>
				<path style="fill:#E62552;" d="M1270.776,1755.887l42.428,27.537l5.831-6.949l-34.413-32.094
					c19.548-15.425,64.828-2.555,64.828-2.555c14.83-9.578,43.74-40.649,46.722-57.297c-9.497-11.834-41.122,12.509-41.122,12.509
					c1.16,5.272-8.831,23.536-16.779,26.657c-34.545,7.453-68.975-2.361-97.066-16.627
					C1241.204,1707.068,1217.729,1742.641,1270.776,1755.887z"/>
			</g>
			<g>
				<path style="fill:#F37A50;" d="M993.667,1486.881c-7.728,2.08-13.491,8.553-14.608,16.475
					c-3.021,21.435-18.627,64.842,2.485,110.299c51.831,111.594,82.434,185.123,87.87,213.924
					c-13.539,25.355,40.446,94.619,41.251,99.154l38.856-12.162c0,0-22.296-33.166-30.323-46.15
					c-19.116-30.926-22.243-68.873-25.35-98.289c-13.265-125.58,9.542-204.868-81.322-278.534
					C1007.153,1487.24,1000.349,1485.084,993.667,1486.881z"/>
				<path style="fill:#E62552;" d="M1050.057,1880.695l3.83,50.437l9.063,0.421l4.652-46.826
					c24.118,6.193,41.341,50.002,41.341,50.002c16.609,5.984,58.847,10.133,73.893,2.408c3.651-14.729-34.883-25.115-34.883-25.115
					c-3.488,4.121-24.07,7.249-31.371,2.822c-26.874-22.949-41.478-56.278-47.168-87.266
					C1069.414,1827.578,1028.422,1830.481,1050.057,1880.695z"/>
			</g>
			<g>
				<g>
					<g>
						<path style="fill:#F37A50;" d="M811.485,1092.706l-46.571-6.975l3.71,43.229c0,0,8.914,19.585,19.254,20.91l38.101-10.321
							L811.485,1092.706z"/>
					</g>
				</g>
			</g>
			<g>
				<path style="fill:#F37A50;" d="M721.824,1030.203c12.022,50.211,53.738,83.26,93.175,73.819
					c39.435-9.444,61.659-57.804,49.636-108.015c-12.022-50.211-53.738-83.262-93.175-73.819
					C732.024,931.632,709.801,979.991,721.824,1030.203z"/>
				<path d="M846.154,1009.197c1.736,3.487,5.971,4.904,9.456,3.169c3.486-1.738,4.905-5.972,3.169-9.456
					c-1.736-3.487-5.971-4.906-9.457-3.169C845.836,1001.477,844.418,1005.711,846.154,1009.197z"/>
				<path d="M790.764,1022.863c1.88,3.773,6.463,5.307,10.237,3.429c3.773-1.88,5.309-6.462,3.429-10.237
					c-1.879-3.773-6.463-5.31-10.236-3.43C790.419,1014.506,788.884,1019.088,790.764,1022.863z"/>
				<g>
					<path style="fill:#2C2858;" d="M782.323,1016.54c0.521-0.259,0.96-0.69,1.224-1.26c3.825-8.253,14.162-9.862,14.267-9.878
						c1.446-0.212,2.454-1.558,2.245-3.006c-0.209-1.447-1.546-2.454-2.995-2.25c-0.54,0.075-13.279,1.994-18.334,12.902
						c-0.616,1.33-0.038,2.908,1.293,3.524C780.783,1016.926,781.626,1016.887,782.323,1016.54z"/>
				</g>
				<g>
					<path style="fill:#2C2858;" d="M861.535,998.977c0.255-0.128,0.493-0.297,0.704-0.511c1.031-1.043,1.021-2.724-0.022-3.755
						c-8.098-8.001-18.079-4.683-18.5-4.538c-1.383,0.478-2.122,1.989-1.644,3.375c0.477,1.381,1.979,2.117,3.362,1.648
						c0.328-0.108,7.354-2.335,13.05,3.291C859.314,999.307,860.547,999.469,861.535,998.977z"/>
				</g>
				<path style="fill:#DE623C;" d="M841.619,1024.533c3.869,3.98,7.264,8.082,10.957,10.41c1.245,0.786,1.645,2.443,0.921,3.724
					c-2.984,5.292-11.697,9.648-17.04,11.918c-0.779,0.333-1.419-0.688-0.782-1.247c5.393-4.73,7.709-8.211,8.682-10.124
					c0.483-0.95,0.471-2.067-0.011-3.019c-1.106-2.185-3.307-6.639-4.796-10.328
					C839.035,1024.596,840.662,1023.548,841.619,1024.533z"/>
				<path style="fill:#F37A50;" d="M740.801,1030.522c9.582,7.456,12.404,19.856,6.304,27.698c-6.102,7.842-18.816,8.156-28.398,0.7
					c-9.582-7.454-12.404-19.856-6.304-27.698C718.504,1023.381,731.218,1023.066,740.801,1030.522z"/>
				<g>
					<path style="fill:#DE623C;" d="M735.346,1055.944c0.357-0.177,0.68-0.441,0.935-0.78c3.68-4.896,4.026-10.396,0.926-14.715
						c-3.175-4.42-9.068-6.443-14.015-4.811c-1.393,0.461-2.147,1.963-1.688,3.354c0.46,1.393,1.962,2.148,3.354,1.688
						c2.709-0.894,6.239,0.364,8.035,2.866c1.727,2.403,1.422,5.396-0.855,8.427c-0.882,1.171-0.646,2.836,0.526,3.718
						C733.396,1056.314,734.474,1056.379,735.346,1055.944z"/>
				</g>
				<path style="fill:#FFFFFF;" d="M798.024,1064.568c-1.111-1.497,0.09-3.592,1.941-3.371c4.71,0.563,12.497,1.33,19.929,1.33
					c7.434,0,15.22-0.768,19.93-1.33c1.852-0.221,3.054,1.874,1.942,3.371c-3.417,4.611-10.479,11.605-21.872,11.605
					C808.503,1076.174,801.441,1069.18,798.024,1064.568z"/>
			</g>
			<path style="fill:#2C2858;" d="M720.85,1025.763c47.072-6.304,112.934-54.262,118.336-78.872
				c-9.105-29.564-57.615-44.423-85.007-30.727C726.787,929.859,700.911,988.558,720.85,1025.763z"/>
			<path style="fill:#FFFFFF;" d="M1161.202,1381.716L1161.202,1381.716c-6.265-2.045-9.686-8.782-7.641-15.047l72.658-222.575
				c2.045-6.266,8.782-9.687,15.047-7.643v0.001c6.266,2.046,9.687,8.782,7.641,15.048l-72.657,222.574
				C1174.205,1380.34,1167.468,1383.761,1161.202,1381.716z"/>
			<path style="fill:#F37A50;" d="M1199.795,1301.95l14.804-45.351c0,0,12.831,26.088,0,50.851
				c-12.832,24.761-25.045,25.868-25.045,25.868L1199.795,1301.95z"/>
			<path style="fill:#F37A50;" d="M1178.651,1289.811c-3.745-8.802-12.557-30.828-3.745-30.727
				c8.813,0.102,10.251,10.799,10.251,10.799L1178.651,1289.811z"/>
			<g>
				<g>
					<g>
						<g>
							<path style="fill:#F37A50;" d="M450.793,1157.271c19.982-20.16,6.874-40.83,6.874-40.83
								c10.966-2.353,68.812,85.276,93.754,140.961c43.509-43.851,120.173-103.068,140.902-106.52c0,0,27.967-7.519,38.016,26.294
								c8.97,30.18-26.011,51.563-26.011,51.563s-149.64,105.647-171.77,96.257C498.119,1310.383,466.953,1184.643,450.793,1157.271
								z"/>
						</g>
					</g>
				</g>
				<g>
					<g>
						<g>
							<g>
								<path style="fill:#F37A50;" d="M419.551,1154.777c12.21,0.745,27.31-5.291,32.015,5.657l24.1-11.749l1.458-14.534
									c-20.708-33.181-71.185-42.597-76.184-43.035c-12.983-1.14-19.013-2.479-20.027-0.743
									c-1.013,1.735-4.194,13.296,14.646,15.559c23.643,2.84,7.946,21.741-40.021,3.748c-12.009-4.505-34.612,1.343-26.437,10.119
									C338.109,1129.47,363.99,1151.389,419.551,1154.777z"/>
							</g>
						</g>
					</g>
				</g>
			</g>
		</g>
	</g>
	<g>
		<path id="Vector_25_3_" style="fill:#3F964F;" d="M1641.989,1280.19c0,0-23.984-45.253-33.579-93.257
			c-8.341-41.017-7.949-90-6.928-116.168c0.233-5.955,8.046-7.984,11.155-2.9c15.099,24.685,42.392,74.283,48.524,119.099
			c4.393,30.925,7.222,62.049,8.476,93.259L1641.989,1280.19z"/>
		<path id="Vector_26_3_" style="fill:#3F964F;" d="M1667.078,1280.19c0,0,15.992-55.329,33.582-92.233
			c12.786-26.83,41.893-58.958,56.831-74.502c2.828-2.943,7.752-0.412,7,3.599c-3.834,20.46-12.703,60.79-27.197,88.331
			c-20.148,38.283-53.712,74.806-53.712,74.806H1667.078z"/>
		<path id="Vector_27_3_" style="fill:#0E6A41;" d="M1584.837,1231.107c-2.285-4.48,2.002-9.465,6.77-7.856
			c12.096,4.081,23.293,10.552,32.907,19.071c17.892,16.26,21.22,34.786,21.22,34.786l-6.154,2.073
			C1639.579,1279.182,1606.249,1273.107,1584.837,1231.107z"/>
		<path id="Vector_28_3_" style="fill:#0E6A41;" d="M1710.017,1101.744c-0.412-5.723-7.757-7.803-11.106-3.145
			c-12.491,17.375-33.45,51.623-40.306,93.596c-8.587,52.384,1.407,88.027,1.407,88.027h7.066c0,0,26.034-49.331,36.188-82.752
			C1712.847,1165.93,1711.616,1124.043,1710.017,1101.744z"/>
		<path id="Vector_29_3_" style="fill:#0E6A41;" d="M1683.582,1280.19c0,0,14.975-49.876,66.206-68.865
			c2.978-1.104,5.856,1.897,4.651,4.835c-6.754,16.483-26.007,55.844-58.522,64.01L1683.582,1280.19z"/>
		<path id="Vector_23_4_" style="fill:#768FDB;" d="M1728.931,1271.747h-118.585l15.221,121.495h88.144L1728.931,1271.747z"/>
	</g>
	<g>
		<g>
			<path style="fill:#E62552;" d="M1601.427,1366.758v17.44h4.748c2.305,0,4.173,1.868,4.173,4.171v0.701
				c0,2.305-1.868,4.172-4.173,4.172h-202.346c-2.673,0-4.855-2.17-4.855-4.855v-25.115c0-2.682,2.174-4.856,4.855-4.856h202.346
				c2.305,0,4.173,1.868,4.173,4.171l0,0c0,2.304-1.868,4.172-4.173,4.172H1601.427z"/>
			<path style="fill:#FFFFFF;" d="M1602.026,1384.194H1424.42c-1.608,0-2.912-1.304-2.912-2.913v-11.609
				c0-1.607,1.305-2.912,2.913-2.912h177.605V1384.194z"/>
		</g>
		<g>
			<path style="fill:#3F964F;" d="M1381.082,1329.109v19.296h-4.748c-2.305,0-4.172,2.067-4.172,4.616v0.777
				c0,2.549,1.867,4.616,4.172,4.616h202.347c2.672,0,4.856-2.401,4.856-5.372v-27.794c0-2.966-2.174-5.372-4.856-5.372h-202.347
				c-2.305,0-4.172,2.066-4.172,4.617l0,0c0,2.547,1.867,4.615,4.172,4.615H1381.082z"/>
			<path style="fill:#FFFFFF;" d="M1380.482,1348.402h177.455c1.692,0,3.063-1.371,3.063-3.063v-13.166
				c0-1.692-1.371-3.064-3.064-3.064h-177.454V1348.402z"/>
		</g>
		<path style="fill:#E62552;" d="M1581.863,1301.998h-187.146c-3.35,0-6.064-2.716-6.064-6.065v-19.158
			c0-3.35,2.715-6.065,6.064-6.065h187.147c3.349,0,6.064,2.716,6.064,6.065v19.158
			C1587.929,1299.282,1585.213,1301.998,1581.863,1301.998z"/>
		<path style="fill:#768FDB;" d="M1596.365,1319.877H1406.26c-2.531,0-4.584-2.053-4.584-4.584v-8.711
			c0-2.532,2.052-4.584,4.584-4.584h190.106c2.532,0,4.585,2.053,4.585,4.584v8.71
			C1600.95,1317.824,1598.897,1319.877,1596.365,1319.877z"/>
	</g>
</g>
</svg>
